<?xml version="1.0" standalone="no"?>
<!DOCTYPE svg PUBLIC "-//W3C//DTD SVG 20010904//EN"
 "http://www.w3.org/TR/2001/REC-SVG-20010904/DTD/svg10.dtd">
<svg version="1.0" xmlns="http://www.w3.org/2000/svg"
 width="350.000000pt" height="102.000000pt" viewBox="0 0 350.000000 102.000000"
 preserveAspectRatio="xMidYMid meet">

<g transform="translate(0.000000,102.000000) scale(0.100000,-0.100000)"
fill="#000000" stroke="none">
<path d="M267 828 c-13 -10 -18 -24 -15 -48 l3 -35 130 -6 c72 -4 142 -11 156
-17 47 -19 69 -58 69 -122 l0 -58 -152 -4 c-131 -3 -158 -6 -187 -23 -53 -31
-74 -67 -79 -135 -14 -188 53 -250 267 -250 111 0 228 15 248 32 11 9 13 62
11 283 l-3 272 -29 37 c-48 64 -99 80 -261 84 -107 3 -144 0 -158 -10z m343
-487 c0 -72 -3 -90 -16 -95 -28 -11 -222 -6 -248 5 -47 22 -59 117 -19 161 14
16 33 18 150 18 l133 0 0 -89z"/>
<path d="M1546 827 c-16 -12 -17 -34 -14 -278 3 -261 3 -265 28 -314 20 -38
37 -55 75 -75 48 -24 56 -25 236 -25 143 0 190 3 202 14 15 12 17 49 17 342
l0 329 -25 12 c-18 8 -35 9 -53 2 l-27 -9 -3 -293 -2 -294 -140 4 c-124 3
-142 5 -160 23 -31 31 -40 110 -40 341 0 201 -1 214 -19 224 -26 14 -54 13
-75 -3z"/>
<path d="M2333 825 c-18 -8 -42 -29 -53 -47 -19 -31 -20 -47 -18 -333 l3 -300
50 0 50 0 5 285 5 284 25 13 c14 7 59 13 101 13 80 0 99 9 99 46 0 45 -23 54
-133 54 -65 -1 -114 -6 -134 -15z"/>
<path d="M2776 825 c-84 -32 -114 -86 -129 -233 -13 -128 2 -292 33 -351 42
-84 116 -112 289 -110 154 1 165 5 169 53 2 24 -2 42 -10 47 -7 5 -71 9 -141
9 -144 0 -185 12 -208 58 -19 39 -25 304 -7 356 20 60 53 79 140 80 124 2 157
-24 166 -131 l5 -63 -102 0 -101 0 0 -55 0 -55 149 0 c121 0 151 3 161 15 15
18 8 186 -10 246 -15 52 -50 100 -90 123 -29 18 -55 21 -155 23 -87 2 -131 -2
-159 -12z"/>
<path d="M857 824 c-15 -15 -5 -33 93 -168 55 -76 100 -143 100 -148 0 -6 -52
-82 -116 -170 -63 -88 -114 -167 -112 -176 2 -12 16 -18 48 -20 l46 -3 129
178 c72 97 131 182 132 188 2 5 -48 80 -110 165 l-112 155 -46 3 c-24 2 -48 0
-52 -4z"/>
<path d="M1231 358 c-17 -23 -29 -48 -27 -55 3 -7 31 -47 62 -88 l57 -76 46 3
c68 4 65 25 -24 148 -42 57 -78 106 -79 108 -2 1 -18 -16 -35 -40z"/>
</g>
</svg>
