<svg width="2948" height="2063" viewBox="0 0 2948 2063" fill="none" xmlns="http://www.w3.org/2000/svg">
<rect width="2948" height="2063" fill="url(#paint0_linear_126_2)"/>
<g filter="url(#filter0_dddddd_126_2)">
<path fill-rule="evenodd" clip-rule="evenodd" d="M-208.147 908.561V-110H-183.921V902.446L28.8501 1270.9V2063H4.6237V1278.05L-208.147 908.561L-208.147 908.561ZM-84.3249 2063L-85.9618 2060.17V1920.27C-80.8622 1916.64 -77.5357 1910.68 -77.5357 1903.95C-77.5357 1892.9 -86.4958 1883.94 -97.5488 1883.94C-108.602 1883.94 -117.562 1892.9 -117.562 1903.95C-117.562 1910.21 -114.688 1915.8 -110.188 1919.47V2063H-84.3249ZM-158.641 2063V2048.98C-154.21 2046.18 -151.267 2041.24 -151.267 2035.61C-151.267 2026.89 -158.341 2019.81 -167.067 2019.81C-175.793 2019.81 -182.867 2026.89 -182.867 2035.61C-182.867 2041.24 -179.924 2046.18 -175.494 2048.98V2063H-158.641ZM241.621 2063V1920.27C246.721 1916.64 250.048 1910.68 250.048 1903.95C250.048 1892.9 241.087 1883.94 230.035 1883.94C218.982 1883.94 210.021 1892.9 210.021 1903.95C210.021 1910.21 212.895 1915.8 217.395 1919.47V2063H241.621ZM174.208 2063V1517.69L272.167 1347.8L272.334 1347.51L272.167 1347.41V-110H247.941V1340.65L149.982 1511.06V2063H174.208ZM123.649 2063V1229.82L-65.9484 901.395V586.245L-115.454 500.103V66.2294L-65.9492 -19.4143H-65.9484V-19.4157L-65.8251 -19.6292L-65.9484 -19.7015V-110H-90.1748V-26.557L-139.681 59.5846L-139.681 59.5847V507.246L-139.68 507.246L-90.1748 592.89V907.508L99.4229 1237.2L99.4228 2063H123.649ZM72.0366 2063V1917.32C76.4669 1914.52 79.4094 1909.58 79.4094 1903.95C79.4094 1895.22 72.3355 1888.15 63.6096 1888.15C54.8836 1888.15 47.8098 1895.22 47.8098 1903.95C47.8098 1909.58 50.7526 1914.52 55.1835 1917.32V2063H72.0366ZM-156.535 -104.407V-110H-140.097V-104.661C-135.435 -101.914 -132.308 -96.8424 -132.308 -91.0401C-132.308 -82.3141 -139.381 -75.2403 -148.107 -75.2403C-156.833 -75.2403 -163.907 -82.3141 -163.907 -91.0401C-163.907 -96.6678 -160.965 -101.608 -156.535 -104.407ZM-37.5084 612.903V-110H-20.6553V612.904C-16.2249 615.703 -13.2825 620.643 -13.2825 626.271C-13.2825 634.997 -20.3563 642.071 -29.0823 642.071C-37.8083 642.071 -44.8821 634.997 -44.8821 626.271C-44.8821 620.643 -41.9393 615.702 -37.5084 612.903ZM4.6237 190.48V-110H28.8501V189.676C33.9503 193.303 37.2773 199.261 37.2773 205.996C37.2773 217.049 28.3172 226.009 17.2643 226.009C6.21133 226.009 -2.74883 217.049 -2.74883 205.996C-2.74883 199.737 0.124344 194.149 4.6237 190.48ZM73.0896 -22.2487V-110H89.9427V-22.2488C94.3734 -19.45 97.3161 -14.5092 97.3161 -8.88117C97.3161 -0.15519 90.2423 6.91863 81.5163 6.91863C72.7903 6.91863 65.7165 -0.15519 65.7165 -8.88117C65.7165 -14.5091 68.6591 -19.4498 73.0896 -22.2487ZM126.809 323.968V-110H151.036V316.825L200.542 402.967V1156.62C205.641 1160.25 208.968 1166.21 208.968 1172.94C208.968 1184 200.008 1192.96 188.955 1192.96C177.902 1192.96 168.942 1184 168.942 1172.94C168.942 1166.69 171.815 1161.1 176.315 1157.43V409.612L126.81 323.968L126.809 323.968ZM191.061 176.829V-110H207.914V176.829C212.345 179.628 215.288 184.568 215.288 190.196C215.288 198.922 208.214 205.996 199.488 205.996C190.762 205.996 183.688 198.922 183.688 190.196C183.688 184.568 186.631 179.628 191.061 176.829ZM-77.5357 1801.78C-77.5357 1795.04 -80.8622 1789.08 -85.9618 1785.46V1300.4L-186.524 1125.91C-185.525 1123.53 -184.974 1120.91 -184.974 1118.17C-184.974 1107.12 -193.934 1098.16 -204.987 1098.16C-216.04 1098.16 -225 1107.12 -225 1118.17C-225 1128.45 -217.249 1136.92 -207.272 1138.06L-110.188 1307.52V1786.26C-114.688 1789.93 -117.562 1795.52 -117.562 1801.78C-117.562 1812.83 -108.602 1821.79 -97.5488 1821.79C-86.4958 1821.79 -77.5357 1812.83 -77.5357 1801.78ZM-2.74883 350.301C-2.74883 356.56 0.124344 362.148 4.6237 365.818L4.62337 907.508L4.6237 908.561H5.22702L104.727 1082.14C104.02 1084.19 103.636 1086.39 103.636 1088.68C103.636 1099.73 112.596 1108.69 123.649 1108.69C134.702 1108.69 143.662 1099.73 143.662 1088.68C143.662 1078.2 135.604 1069.6 125.345 1068.74L28.8501 901.402V366.622C33.9503 362.994 37.2773 357.036 37.2773 350.301C37.2773 339.248 28.3172 330.288 17.2643 330.288C6.21133 330.288 -2.74883 339.248 -2.74883 350.301ZM241.621 1785.46C246.721 1789.08 250.048 1795.04 250.048 1801.78C250.048 1812.83 241.087 1821.79 230.035 1821.79C218.982 1821.79 210.021 1812.83 210.021 1801.78C210.021 1795.52 212.895 1789.93 217.395 1786.26V1641.79L217.342 1641.76L217.395 1641.67L271.805 1547.68C270.684 1545.19 270.06 1542.42 270.06 1539.5C270.06 1528.45 279.021 1519.49 290.073 1519.49C301.126 1519.49 310.086 1528.45 310.086 1539.5C310.086 1549.53 302.708 1557.84 293.083 1559.29L241.621 1648.81V1785.46ZM89.9427 74.0057C94.3734 71.2069 97.3161 66.2661 97.3161 60.6381C97.3161 51.9121 90.2423 44.8383 81.5163 44.8383C72.7903 44.8383 65.7165 51.9121 65.7165 60.6381C65.7165 66.266 68.6591 71.2067 73.0896 74.0056V323.968L124.703 413.026V617.116C120.272 619.915 117.329 624.856 117.329 630.484C117.329 639.21 124.403 646.284 133.129 646.284C141.855 646.284 148.929 639.21 148.929 630.484C148.929 624.857 145.986 619.916 141.556 617.117V408.234L89.9427 319.427V74.0057ZM73.0896 659.652C68.6591 656.853 65.7165 651.912 65.7165 646.284C65.7165 637.558 72.7903 630.484 81.5163 630.484C90.2423 630.484 97.3161 637.558 97.3161 646.284C97.3161 651.912 94.3734 656.853 89.9427 659.652V811.981C94.3734 814.78 97.3161 819.721 97.3161 825.349C97.3161 834.075 90.2423 841.148 81.5163 841.148C72.7903 841.148 65.7165 834.075 65.7165 825.349C65.7165 819.721 68.6591 814.78 73.0896 811.981V659.652ZM-196.211 1235.66C-194.439 1233.11 -193.4 1230.01 -193.4 1226.66C-193.4 1217.94 -200.474 1210.86 -209.2 1210.86C-217.926 1210.86 -225 1217.94 -225 1226.66C-225 1234.48 -219.331 1240.96 -211.883 1242.24L-175.494 1305.18V1950.62C-179.924 1953.42 -182.867 1958.36 -182.867 1963.99C-182.867 1972.71 -175.793 1979.79 -167.067 1979.79C-158.341 1979.79 -151.267 1972.71 -151.267 1963.99C-151.267 1958.36 -154.21 1953.42 -158.641 1950.62V1300.4L-196.211 1235.66ZM-23.7152 1124.45C-24.0963 1124.48 -24.481 1124.49 -24.8691 1124.49C-33.5951 1124.49 -40.6689 1117.42 -40.6689 1108.69C-40.6689 1099.97 -33.5951 1092.89 -24.8691 1092.89C-16.1431 1092.89 -9.06932 1099.97 -9.06932 1108.69C-9.06932 1110.67 -9.43405 1112.57 -10.1 1114.32L71.9865 1256.16H72.0366V1256.24L72.0378 1256.25L72.0366 1256.25V1832.65C76.4669 1835.45 79.4094 1840.39 79.4094 1846.02C79.4094 1854.74 72.3355 1861.82 63.6096 1861.82C54.8836 1861.82 47.8098 1854.74 47.8098 1846.02C47.8098 1840.39 50.7526 1835.45 55.1835 1832.65V1261.02L-23.7152 1124.45ZM-131.254 904.452V623.839C-126.824 621.04 -123.881 616.099 -123.881 610.471C-123.881 601.745 -130.955 594.671 -139.681 594.671C-148.407 594.671 -155.481 601.745 -155.481 610.471C-155.481 616.099 -152.538 621.04 -148.107 623.839L-148.108 908.561L-104.857 983.818C-105.578 985.627 -105.975 987.6 -105.975 989.667C-105.975 998.393 -98.9011 1005.47 -90.1751 1005.47C-81.4491 1005.47 -74.3753 998.393 -74.3753 989.667C-74.3753 980.941 -81.4491 973.867 -90.1751 973.867C-90.2243 973.867 -90.2735 973.867 -90.3226 973.868C-90.3772 973.868 -90.4316 973.869 -90.486 973.87C-90.6551 973.873 -90.8235 973.879 -90.9912 973.888L-131.254 904.452ZM-32.2422 1468.6C-27.8119 1465.8 -24.8695 1460.86 -24.8695 1455.23C-24.8695 1446.51 -31.9433 1439.43 -40.6693 1439.43C-49.3953 1439.43 -56.4691 1446.51 -56.4691 1455.23C-56.4691 1460.86 -53.5262 1465.8 -49.0954 1468.6V1972.74C-53.5262 1975.54 -56.4691 1980.48 -56.4691 1986.11C-56.4691 1994.83 -49.3953 2001.91 -40.6693 2001.91C-31.9433 2001.91 -24.8695 1994.83 -24.8695 1986.11C-24.8695 1980.48 -27.8119 1975.54 -32.2422 1972.74L-32.2422 1468.6Z" fill="white" fill-opacity="0.5"/>
</g>
<g filter="url(#filter1_dddddd_126_2)">
<path fill-rule="evenodd" clip-rule="evenodd" d="M2682.86 0V325L2776.86 487.813V1075.23L2682.86 1239L2682.86 1239V2063H2706.86V1245.78L2800.86 1082V482H2800.54L2801.04 481.709L2706.86 318.569V0H2682.86ZM2748.86 0V256.387C2744.67 259.873 2742 265.125 2742 271C2742 281.493 2750.51 290 2761 290C2771.49 290 2780 281.493 2780 271C2780 264.991 2777.21 259.633 2772.86 256.152V0H2748.86ZM2788.86 0V338.402C2784.73 341.074 2782 345.718 2782 351C2782 359.284 2788.72 366 2797 366C2805.28 366 2812 359.284 2812 351C2812 345.596 2809.14 340.859 2804.86 338.219V0H2788.86ZM2822.86 0V205.402C2818.73 208.074 2816 212.718 2816 218C2816 226.284 2822.72 233 2831 233C2839.28 233 2846 226.284 2846 218C2846 212.596 2843.14 207.859 2838.86 205.219V0H2822.86ZM2859.86 0V412L2859.86 412L2913.86 505.788V606.495L2859.86 700L2859.86 700V1075.17L2764.86 1239V1293.39C2760.67 1296.87 2758 1302.12 2758 1308C2758 1318.49 2766.51 1327 2777 1327C2787.49 1327 2796 1318.49 2796 1308C2796 1301.99 2793.21 1296.63 2788.86 1293.15V1246.64L2883.86 1082V706.736L2937.97 613.093L2937.7 612.937H2937.86V499L2883.86 405.562V0H2859.86ZM2921.86 0V253.829C2915.44 256.879 2911 263.421 2911 271C2911 281.493 2919.51 290 2930 290C2940.49 290 2949 281.493 2949 271C2949 263.308 2944.43 256.684 2937.86 253.695V0H2921.86ZM2993.86 0V378.387C2989.67 381.873 2987 387.125 2987 393C2987 403.493 2995.51 412 3006 412C3016.49 412 3025 403.493 3025 393C3025 386.991 3022.21 381.633 3017.86 378.152V0H2993.86ZM3065.86 0V530.213L2969.86 697V1297H2969.86L3065.86 1463.88V2063H3089.86V1457L2993.86 1290.3V703.789L3089.86 537V0H3065.86ZM3030.86 1641.78V2063H3014.86V1641.6C3010.73 1638.93 3008 1634.28 3008 1629C3008 1620.72 3014.72 1614 3023 1614C3031.28 1614 3038 1620.72 3038 1629C3038 1634.4 3035.14 1639.14 3030.86 1641.78ZM2993.86 2005.85V2063H2969.86V2005.61C2965.67 2002.13 2963 1996.88 2963 1991C2963 1980.51 2971.51 1972 2982 1972C2992.49 1972 3001 1980.51 3001 1991C3001 1997.01 2998.21 2002.37 2993.86 2005.85ZM2945.86 1829V2063H2929.86V1833.5L2871.86 1732L2871.86 1732V1191.6C2867.73 1188.93 2865 1184.28 2865 1179C2865 1170.72 2871.72 1164 2880 1164C2888.28 1164 2895 1170.72 2895 1179C2895 1184.4 2892.14 1189.14 2887.86 1191.78V1727.74L2945.86 1829L2945.86 1829L2945.86 1829ZM2889.86 1938V2063H2873.86V1942.53L2822.86 1854L2823 1853.92V1795.69C2818.79 1793.03 2816 1788.34 2816 1783C2816 1774.72 2822.72 1768 2831 1768C2839.28 1768 2846 1774.72 2846 1783C2846 1788.34 2843.21 1793.03 2839 1795.69V1849.96L2889.86 1938L2889.86 1938L2889.86 1938ZM2838.86 1939.78V2063H2822.86V1939.6C2818.73 1936.93 2816 1932.28 2816 1927C2816 1918.72 2822.72 1912 2831 1912C2839.28 1912 2846 1918.72 2846 1927C2846 1932.4 2843.14 1937.14 2838.86 1939.78ZM2788.86 1476.85V2063H2764.86V1476.61C2760.67 1473.13 2758 1467.88 2758 1462C2758 1451.51 2766.51 1443 2777 1443C2787.49 1443 2796 1451.51 2796 1462C2796 1468.01 2793.21 1473.37 2788.86 1476.85ZM2743.86 1641.78V2063H2727.86V1641.6C2723.73 1638.93 2721 1634.28 2721 1629C2721 1620.72 2727.72 1614 2736 1614C2744.28 1614 2751 1620.72 2751 1629C2751 1634.4 2748.14 1639.14 2743.86 1641.78ZM2937.86 793.848C2942.21 790.367 2945 785.009 2945 779C2945 768.507 2936.49 760 2926 760C2915.51 760 2907 768.507 2907 779C2907 784.875 2909.67 790.127 2913.86 793.613V1293.39C2909.67 1296.87 2907 1302.12 2907 1308C2907 1318.49 2915.51 1327 2926 1327C2936.49 1327 2945 1318.49 2945 1308C2945 1301.99 2942.21 1296.63 2937.86 1293.15V793.848ZM3001 1462C3001 1468.01 2998.21 1473.37 2993.86 1476.85V1904.15C2998.21 1907.63 3001 1912.99 3001 1919C3001 1929.49 2992.49 1938 2982 1938C2971.51 1938 2963 1929.49 2963 1919C2963 1913.12 2965.67 1907.87 2969.86 1904.39V1476.61C2965.67 1473.13 2963 1467.88 2963 1462C2963 1451.51 2971.51 1443 2982 1443C2992.49 1443 3001 1451.51 3001 1462ZM3047.86 704.556L3102.78 609.98C3110.7 609.573 3117 603.022 3117 595C3117 586.716 3110.28 580 3102 580C3093.72 580 3087 586.716 3087 595C3087 597.543 3087.63 599.938 3088.75 602.037L3031.86 700V1297L3089.6 1396.79C3089.21 1398.13 3089 1399.54 3089 1401C3089 1409.28 3095.72 1416 3104 1416C3112.28 1416 3119 1409.28 3119 1401C3119 1392.72 3112.28 1386 3104 1386C3103.34 1386 3102.69 1386.04 3102.06 1386.12L3047.86 1292.46V704.556ZM2949 327C2949 334.692 2944.43 341.316 2937.86 344.305V402.687L2993.86 499V613L2942.76 701.038C2944.19 703.707 2945 706.759 2945 710C2945 720.493 2936.49 729 2926 729C2915.51 729 2907 720.493 2907 710C2907 699.507 2915.51 691 2926 691C2927.32 691 2928.6 691.134 2929.84 691.388L2977.86 608.454V503.552L2921.86 407V344.171C2915.44 341.121 2911 334.579 2911 327C2911 316.507 2919.51 308 2930 308C2940.49 308 2949 316.507 2949 327ZM2822.86 1239.6C2818.73 1236.93 2816 1232.28 2816 1227C2816 1218.72 2822.72 1212 2831 1212C2839.28 1212 2846 1218.72 2846 1227C2846 1232.4 2843.14 1237.14 2838.86 1239.78V1729.22C2843.14 1731.86 2846 1736.6 2846 1742C2846 1750.28 2839.28 1757 2831 1757C2822.72 1757 2816 1750.28 2816 1742C2816 1736.72 2818.73 1732.07 2822.86 1729.4V1239.6ZM2859.86 491.564L2822.86 428V295.598C2818.73 292.926 2816 288.282 2816 283C2816 274.716 2822.72 268 2831 268C2839.28 268 2846 274.716 2846 283C2846 288.404 2843.14 293.141 2838.86 295.781V423.436L2875.86 487V624L2838.86 687.564V932.219C2843.14 934.859 2846 939.596 2846 945C2846 953.284 2839.28 960 2831 960C2822.72 960 2816 953.284 2816 945C2816 939.718 2818.73 935.074 2822.86 932.402V683L2859.86 619.436V491.564ZM2816 1028C2816 1033.28 2818.73 1037.93 2822.86 1040.6V1073.49L2727.86 1239L2727.86 1239V1488.4C2723.73 1491.07 2721 1495.72 2721 1501C2721 1509.28 2727.72 1516 2736 1516C2744.28 1516 2751 1509.28 2751 1501C2751 1495.6 2748.14 1490.86 2743.86 1488.22V1242.54L2838.86 1078L2838.86 1078L2838.86 1078V1040.78C2843.14 1038.14 2846 1033.4 2846 1028C2846 1019.72 2839.28 1013 2831 1013C2822.72 1013 2816 1019.72 2816 1028ZM2732.86 551.001L2732.86 551L2732.86 551L2687.57 473.403C2688.49 471.461 2689 469.29 2689 467C2689 458.716 2682.28 452 2674 452C2665.72 452 2659 458.716 2659 467C2659 475.284 2665.72 482 2674 482H2674.02L2716.86 555.564V1016.45L2674.72 1089.02C2674.48 1089.01 2674.24 1089 2674 1089C2665.72 1089 2659 1095.72 2659 1104C2659 1112.28 2665.72 1119 2674 1119C2682.28 1119 2689 1112.28 2689 1104C2689 1101.87 2688.56 1099.84 2687.75 1098.01L2732.86 1021V551.001Z" fill="white" fill-opacity="0.5"/>
</g>
<defs>
<filter id="filter0_dddddd_126_2" x="-5423.76" y="-5308.76" width="10932.6" height="12570.5" filterUnits="userSpaceOnUse" color-interpolation-filters="sRGB">
<feFlood flood-opacity="0" result="BackgroundImageFix"/>
<feColorMatrix in="SourceAlpha" type="matrix" values="0 0 0 0 0 0 0 0 0 0 0 0 0 0 0 0 0 0 127 0" result="hardAlpha"/>
<feOffset/>
<feGaussianBlur stdDeviation="61.89"/>
<feColorMatrix type="matrix" values="0 0 0 0 0 0 0 0 0 0.521569 0 0 0 0 1 0 0 0 1 0"/>
<feBlend mode="normal" in2="BackgroundImageFix" result="effect1_dropShadow_126_2"/>
<feColorMatrix in="SourceAlpha" type="matrix" values="0 0 0 0 0 0 0 0 0 0 0 0 0 0 0 0 0 0 127 0" result="hardAlpha"/>
<feOffset/>
<feGaussianBlur stdDeviation="123.78"/>
<feColorMatrix type="matrix" values="0 0 0 0 0 0 0 0 0 0.521569 0 0 0 0 1 0 0 0 1 0"/>
<feBlend mode="normal" in2="effect1_dropShadow_126_2" result="effect2_dropShadow_126_2"/>
<feColorMatrix in="SourceAlpha" type="matrix" values="0 0 0 0 0 0 0 0 0 0 0 0 0 0 0 0 0 0 127 0" result="hardAlpha"/>
<feOffset/>
<feGaussianBlur stdDeviation="433.23"/>
<feColorMatrix type="matrix" values="0 0 0 0 0 0 0 0 0 0.521569 0 0 0 0 1 0 0 0 1 0"/>
<feBlend mode="normal" in2="effect2_dropShadow_126_2" result="effect3_dropShadow_126_2"/>
<feColorMatrix in="SourceAlpha" type="matrix" values="0 0 0 0 0 0 0 0 0 0 0 0 0 0 0 0 0 0 127 0" result="hardAlpha"/>
<feOffset/>
<feGaussianBlur stdDeviation="866.46"/>
<feColorMatrix type="matrix" values="0 0 0 0 0 0 0 0 0 0.521569 0 0 0 0 1 0 0 0 1 0"/>
<feBlend mode="normal" in2="effect3_dropShadow_126_2" result="effect4_dropShadow_126_2"/>
<feColorMatrix in="SourceAlpha" type="matrix" values="0 0 0 0 0 0 0 0 0 0 0 0 0 0 0 0 0 0 127 0" result="hardAlpha"/>
<feOffset/>
<feGaussianBlur stdDeviation="1485.36"/>
<feColorMatrix type="matrix" values="0 0 0 0 0 0 0 0 0 0.521569 0 0 0 0 1 0 0 0 1 0"/>
<feBlend mode="normal" in2="effect4_dropShadow_126_2" result="effect5_dropShadow_126_2"/>
<feColorMatrix in="SourceAlpha" type="matrix" values="0 0 0 0 0 0 0 0 0 0 0 0 0 0 0 0 0 0 127 0" result="hardAlpha"/>
<feOffset/>
<feGaussianBlur stdDeviation="2599.38"/>
<feColorMatrix type="matrix" values="0 0 0 0 0 0 0 0 0 0.521569 0 0 0 0 1 0 0 0 1 0"/>
<feBlend mode="normal" in2="effect5_dropShadow_126_2" result="effect6_dropShadow_126_2"/>
<feBlend mode="normal" in="SourceGraphic" in2="effect6_dropShadow_126_2" result="shape"/>
</filter>
<filter id="filter1_dddddd_126_2" x="-2539.76" y="-5198.76" width="10857.5" height="12460.5" filterUnits="userSpaceOnUse" color-interpolation-filters="sRGB">
<feFlood flood-opacity="0" result="BackgroundImageFix"/>
<feColorMatrix in="SourceAlpha" type="matrix" values="0 0 0 0 0 0 0 0 0 0 0 0 0 0 0 0 0 0 127 0" result="hardAlpha"/>
<feOffset/>
<feGaussianBlur stdDeviation="61.89"/>
<feColorMatrix type="matrix" values="0 0 0 0 0.619608 0 0 0 0 0 0 0 0 0 1 0 0 0 1 0"/>
<feBlend mode="normal" in2="BackgroundImageFix" result="effect1_dropShadow_126_2"/>
<feColorMatrix in="SourceAlpha" type="matrix" values="0 0 0 0 0 0 0 0 0 0 0 0 0 0 0 0 0 0 127 0" result="hardAlpha"/>
<feOffset/>
<feGaussianBlur stdDeviation="123.78"/>
<feColorMatrix type="matrix" values="0 0 0 0 0.619608 0 0 0 0 0 0 0 0 0 1 0 0 0 1 0"/>
<feBlend mode="normal" in2="effect1_dropShadow_126_2" result="effect2_dropShadow_126_2"/>
<feColorMatrix in="SourceAlpha" type="matrix" values="0 0 0 0 0 0 0 0 0 0 0 0 0 0 0 0 0 0 127 0" result="hardAlpha"/>
<feOffset/>
<feGaussianBlur stdDeviation="433.23"/>
<feColorMatrix type="matrix" values="0 0 0 0 0.619608 0 0 0 0 0 0 0 0 0 1 0 0 0 1 0"/>
<feBlend mode="normal" in2="effect2_dropShadow_126_2" result="effect3_dropShadow_126_2"/>
<feColorMatrix in="SourceAlpha" type="matrix" values="0 0 0 0 0 0 0 0 0 0 0 0 0 0 0 0 0 0 127 0" result="hardAlpha"/>
<feOffset/>
<feGaussianBlur stdDeviation="866.46"/>
<feColorMatrix type="matrix" values="0 0 0 0 0.619608 0 0 0 0 0 0 0 0 0 1 0 0 0 1 0"/>
<feBlend mode="normal" in2="effect3_dropShadow_126_2" result="effect4_dropShadow_126_2"/>
<feColorMatrix in="SourceAlpha" type="matrix" values="0 0 0 0 0 0 0 0 0 0 0 0 0 0 0 0 0 0 127 0" result="hardAlpha"/>
<feOffset/>
<feGaussianBlur stdDeviation="1485.36"/>
<feColorMatrix type="matrix" values="0 0 0 0 0.619608 0 0 0 0 0 0 0 0 0 1 0 0 0 1 0"/>
<feBlend mode="normal" in2="effect4_dropShadow_126_2" result="effect5_dropShadow_126_2"/>
<feColorMatrix in="SourceAlpha" type="matrix" values="0 0 0 0 0 0 0 0 0 0 0 0 0 0 0 0 0 0 127 0" result="hardAlpha"/>
<feOffset/>
<feGaussianBlur stdDeviation="2599.38"/>
<feColorMatrix type="matrix" values="0 0 0 0 0.619608 0 0 0 0 0 0 0 0 0 1 0 0 0 1 0"/>
<feBlend mode="normal" in2="effect5_dropShadow_126_2" result="effect6_dropShadow_126_2"/>
<feBlend mode="normal" in="SourceGraphic" in2="effect6_dropShadow_126_2" result="shape"/>
</filter>
<linearGradient id="paint0_linear_126_2" x1="64.7319" y1="1980.75" x2="1981.02" y2="-438.433" gradientUnits="userSpaceOnUse">
<stop stop-color="#07358F"/>
<stop offset="0.113757" stop-color="#112572"/>
<stop offset="0.254382" stop-color="#141869"/>
<stop offset="0.590243" stop-color="#37075E"/>
<stop offset="0.848132" stop-color="#530970"/>
<stop offset="0.900216" stop-color="#580D72"/>
<stop offset="1" stop-color="#630A7A" stop-opacity="0.95"/>
</linearGradient>
</defs>
</svg>
