<svg width="2948" height="1926" viewBox="0 0 2948 1926" fill="none" xmlns="http://www.w3.org/2000/svg">
<g clip-path="url(#clip0_28_2)">
<rect width="2948" height="1926" fill="white"/>
<g clip-path="url(#clip1_28_2)">
<rect width="3053" height="2009" transform="translate(0 -51)" fill="white"/>
<rect y="-125" width="2948" height="2063" fill="url(#paint0_linear_28_2)"/>
<g filter="url(#filter0_dddddd_28_2)">
<path fill-rule="evenodd" clip-rule="evenodd" d="M2491.86 -99V226L2585.86 388.813V976.229L2491.86 1140L2491.86 1140V1964H2515.86V1146.78L2609.86 983V383H2609.54L2610.04 382.709L2515.86 219.569V-99H2491.86ZM2557.86 -99V157.387C2553.67 160.873 2551 166.125 2551 172C2551 182.493 2559.51 191 2570 191C2580.49 191 2589 182.493 2589 172C2589 165.991 2586.21 160.633 2581.86 157.152V-99H2557.86ZM2597.86 -99V239.402C2593.73 242.074 2591 246.718 2591 252C2591 260.284 2597.72 267 2606 267C2614.28 267 2621 260.284 2621 252C2621 246.596 2618.14 241.859 2613.86 239.219V-99H2597.86ZM2631.86 -99V106.402C2627.73 109.074 2625 113.718 2625 119C2625 127.284 2631.72 134 2640 134C2648.28 134 2655 127.284 2655 119C2655 113.596 2652.14 108.859 2647.86 106.219V-99H2631.86ZM2668.86 -99V313L2668.86 313L2722.86 406.788V507.495L2668.86 601L2668.86 601V976.173L2573.86 1140V1194.39C2569.67 1197.87 2567 1203.12 2567 1209C2567 1219.49 2575.51 1228 2586 1228C2596.49 1228 2605 1219.49 2605 1209C2605 1202.99 2602.21 1197.63 2597.86 1194.15V1147.64L2692.86 983V607.736L2746.97 514.093L2746.7 513.937H2746.86V400L2692.86 306.562V-99H2668.86ZM2730.86 -99V154.829C2724.44 157.879 2720 164.421 2720 172C2720 182.493 2728.51 191 2739 191C2749.49 191 2758 182.493 2758 172C2758 164.308 2753.43 157.684 2746.86 154.695V-99H2730.86ZM2802.86 -99V279.387C2798.67 282.873 2796 288.125 2796 294C2796 304.493 2804.51 313 2815 313C2825.49 313 2834 304.493 2834 294C2834 287.991 2831.21 282.633 2826.86 279.152V-99H2802.86ZM2874.86 -99V431.213L2778.86 598V1198H2778.86L2874.86 1364.88V1964H2898.86V1358L2802.86 1191.3V604.789L2898.86 438V-99H2874.86ZM2839.86 1542.78V1964H2823.86V1542.6C2819.73 1539.93 2817 1535.28 2817 1530C2817 1521.72 2823.72 1515 2832 1515C2840.28 1515 2847 1521.72 2847 1530C2847 1535.4 2844.14 1540.14 2839.86 1542.78ZM2802.86 1906.85V1964H2778.86V1906.61C2774.67 1903.13 2772 1897.88 2772 1892C2772 1881.51 2780.51 1873 2791 1873C2801.49 1873 2810 1881.51 2810 1892C2810 1898.01 2807.21 1903.37 2802.86 1906.85ZM2754.86 1730V1964H2738.86V1734.5L2680.86 1633L2680.86 1633V1092.6C2676.73 1089.93 2674 1085.28 2674 1080C2674 1071.72 2680.72 1065 2689 1065C2697.28 1065 2704 1071.72 2704 1080C2704 1085.4 2701.14 1090.14 2696.86 1092.78V1628.74L2754.86 1730L2754.86 1730L2754.86 1730ZM2698.86 1839V1964H2682.86V1843.53L2631.86 1755L2632 1754.92V1696.69C2627.79 1694.03 2625 1689.34 2625 1684C2625 1675.72 2631.72 1669 2640 1669C2648.28 1669 2655 1675.72 2655 1684C2655 1689.34 2652.21 1694.03 2648 1696.69V1750.96L2698.86 1839L2698.86 1839L2698.86 1839ZM2647.86 1840.78V1964H2631.86V1840.6C2627.73 1837.93 2625 1833.28 2625 1828C2625 1819.72 2631.72 1813 2640 1813C2648.28 1813 2655 1819.72 2655 1828C2655 1833.4 2652.14 1838.14 2647.86 1840.78ZM2597.86 1377.85V1964H2573.86V1377.61C2569.67 1374.13 2567 1368.88 2567 1363C2567 1352.51 2575.51 1344 2586 1344C2596.49 1344 2605 1352.51 2605 1363C2605 1369.01 2602.21 1374.37 2597.86 1377.85ZM2552.86 1542.78V1964H2536.86V1542.6C2532.73 1539.93 2530 1535.28 2530 1530C2530 1521.72 2536.72 1515 2545 1515C2553.28 1515 2560 1521.72 2560 1530C2560 1535.4 2557.14 1540.14 2552.86 1542.78ZM2746.86 694.848C2751.21 691.367 2754 686.009 2754 680C2754 669.507 2745.49 661 2735 661C2724.51 661 2716 669.507 2716 680C2716 685.875 2718.67 691.127 2722.86 694.613V1194.39C2718.67 1197.87 2716 1203.12 2716 1209C2716 1219.49 2724.51 1228 2735 1228C2745.49 1228 2754 1219.49 2754 1209C2754 1202.99 2751.21 1197.63 2746.86 1194.15V694.848ZM2810 1363C2810 1369.01 2807.21 1374.37 2802.86 1377.85V1805.15C2807.21 1808.63 2810 1813.99 2810 1820C2810 1830.49 2801.49 1839 2791 1839C2780.51 1839 2772 1830.49 2772 1820C2772 1814.12 2774.67 1808.87 2778.86 1805.39V1377.61C2774.67 1374.13 2772 1368.88 2772 1363C2772 1352.51 2780.51 1344 2791 1344C2801.49 1344 2810 1352.51 2810 1363ZM2856.86 605.556L2911.78 510.98C2919.7 510.573 2926 504.022 2926 496C2926 487.716 2919.28 481 2911 481C2902.72 481 2896 487.716 2896 496C2896 498.543 2896.63 500.938 2897.75 503.037L2840.86 601V1198L2898.6 1297.79C2898.21 1299.13 2898 1300.54 2898 1302C2898 1310.28 2904.72 1317 2913 1317C2921.28 1317 2928 1310.28 2928 1302C2928 1293.72 2921.28 1287 2913 1287C2912.34 1287 2911.69 1287.04 2911.06 1287.12L2856.86 1193.46V605.556ZM2758 228C2758 235.692 2753.43 242.316 2746.86 245.305V303.687L2802.86 400V514L2751.76 602.038C2753.19 604.707 2754 607.759 2754 611C2754 621.493 2745.49 630 2735 630C2724.51 630 2716 621.493 2716 611C2716 600.507 2724.51 592 2735 592C2736.32 592 2737.6 592.134 2738.84 592.388L2786.86 509.454V404.552L2730.86 308V245.171C2724.44 242.121 2720 235.579 2720 228C2720 217.507 2728.51 209 2739 209C2749.49 209 2758 217.507 2758 228ZM2631.86 1140.6C2627.73 1137.93 2625 1133.28 2625 1128C2625 1119.72 2631.72 1113 2640 1113C2648.28 1113 2655 1119.72 2655 1128C2655 1133.4 2652.14 1138.14 2647.86 1140.78V1630.22C2652.14 1632.86 2655 1637.6 2655 1643C2655 1651.28 2648.28 1658 2640 1658C2631.72 1658 2625 1651.28 2625 1643C2625 1637.72 2627.73 1633.07 2631.86 1630.4V1140.6ZM2668.86 392.564L2631.86 329V196.598C2627.73 193.926 2625 189.282 2625 184C2625 175.716 2631.72 169 2640 169C2648.28 169 2655 175.716 2655 184C2655 189.404 2652.14 194.141 2647.86 196.781V324.436L2684.86 388V525L2647.86 588.564V833.219C2652.14 835.859 2655 840.596 2655 846C2655 854.284 2648.28 861 2640 861C2631.72 861 2625 854.284 2625 846C2625 840.718 2627.73 836.074 2631.86 833.402V584L2668.86 520.436V392.564ZM2625 929C2625 934.282 2627.73 938.926 2631.86 941.598V974.486L2536.86 1140L2536.86 1140V1389.4C2532.73 1392.07 2530 1396.72 2530 1402C2530 1410.28 2536.72 1417 2545 1417C2553.28 1417 2560 1410.28 2560 1402C2560 1396.6 2557.14 1391.86 2552.86 1389.22V1143.54L2647.86 979L2647.86 979L2647.86 978.999V941.781C2652.14 939.141 2655 934.404 2655 929C2655 920.716 2648.28 914 2640 914C2631.72 914 2625 920.716 2625 929ZM2541.86 452.001L2541.86 452L2541.86 452L2496.57 374.403C2497.49 372.461 2498 370.29 2498 368C2498 359.716 2491.28 353 2483 353C2474.72 353 2468 359.716 2468 368C2468 376.284 2474.72 383 2483 383H2483.02L2525.86 456.564V917.447L2483.72 990.017C2483.48 990.006 2483.24 990 2483 990C2474.72 990 2468 996.716 2468 1005C2468 1013.28 2474.72 1020 2483 1020C2491.28 1020 2498 1013.28 2498 1005C2498 1002.87 2497.56 1000.84 2496.75 999.005L2541.86 922V452.001Z" fill="white" fill-opacity="0.5"/>
</g>
<g filter="url(#filter1_dddddd_28_2)">
<path fill-rule="evenodd" clip-rule="evenodd" d="M36 868V-99H59V862.195L261 1212V1964H238V1218.79L36 868ZM153.554 1964L152 1961.32V1828.49C156.842 1825.05 160 1819.39 160 1813C160 1802.51 151.493 1794 141 1794C130.507 1794 122 1802.51 122 1813C122 1818.94 124.728 1824.25 129 1827.73V1964H153.554ZM83 1964V1950.69C87.2063 1948.03 90 1943.34 90 1938C90 1929.72 83.2843 1923 75 1923C66.7157 1923 60 1929.72 60 1938C60 1943.34 62.7937 1948.03 67 1950.69V1964H83ZM463 1964V1828.49C467.842 1825.05 471 1819.39 471 1813C471 1802.51 462.493 1794 452 1794C441.507 1794 433 1802.51 433 1813C433 1818.94 435.728 1824.25 440 1827.73V1964H463ZM399 1964V1446.3L492 1285L492.158 1284.73L492 1284.63V-99H469V1278.22L376 1440V1964H399ZM351 1964V1173L171 861.197V562L124 480.219V68.3083L170.999 -13H171V-13.0018L171.117 -13.204L171 -13.2725V-99H148V-19.7816L100.999 61.9998L101 62V487L101.001 487L148 568.309V867L328 1180L328 1964H351ZM302 1964V1825.69C306.206 1823.03 309 1818.34 309 1813C309 1804.72 302.284 1798 294 1798C285.716 1798 279 1804.72 279 1813C279 1818.34 281.794 1823.03 286 1825.69V1964H302ZM85 -93.6909V-99H100.606V-93.9315C105.031 -91.3232 108 -86.5083 108 -81C108 -72.7157 101.284 -66 93 -66C84.7157 -66 78 -72.7157 78 -81C78 -86.3431 80.7937 -91.0337 85 -93.6909ZM198 587.309V-99H214V587.309C218.206 589.966 221 594.657 221 600C221 608.284 214.284 615 206 615C197.716 615 191 608.284 191 600C191 594.657 193.794 589.966 198 587.309ZM238 186.268V-99H261V185.506C265.842 188.95 269 194.606 269 201C269 211.493 260.493 220 250 220C239.507 220 231 211.493 231 201C231 195.058 233.728 189.752 238 186.268ZM303 -15.6909V-99H319V-15.6909C323.206 -13.0337 326 -8.34311 326 -3C326 5.28427 319.284 12 311 12C302.716 12 296 5.28427 296 -3C296 -8.34311 298.794 -13.0337 303 -15.6909ZM354 313V-99H377V306.219L424 388V1103.51C428.842 1106.95 432 1112.61 432 1119C432 1129.49 423.493 1138 413 1138C402.507 1138 394 1129.49 394 1119C394 1113.06 396.728 1107.75 401 1104.27V394.309L354.001 313L354 313ZM415 173.309V-99H431V173.309C435.206 175.966 438 180.657 438 186C438 194.284 431.284 201 423 201C414.716 201 408 194.284 408 186C408 180.657 410.794 175.966 415 173.309ZM160 1716C160 1709.61 156.842 1703.95 152 1700.51V1240L56.5283 1074.34C57.4762 1072.09 58 1069.6 58 1067C58 1056.51 49.4934 1048 39 1048C28.5066 1048 20 1056.51 20 1067C20 1076.76 27.3588 1084.8 36.8306 1085.88L129 1246.76V1701.27C124.728 1704.75 122 1710.06 122 1716C122 1726.49 130.507 1735 141 1735C151.493 1735 160 1726.49 160 1716ZM231 338C231 343.942 233.728 349.248 238 352.732L238 867L238 868H238.573L333.036 1032.8C332.365 1034.74 332 1036.83 332 1039C332 1049.49 340.507 1058 351 1058C361.493 1058 370 1049.49 370 1039C370 1029.05 362.35 1020.88 352.611 1020.07L261 861.203V353.494C265.842 350.05 269 344.394 269 338C269 327.507 260.493 319 250 319C239.507 319 231 327.507 231 338ZM463 1700.51C467.842 1703.95 471 1709.61 471 1716C471 1726.49 462.493 1735 452 1735C441.507 1735 433 1726.49 433 1716C433 1710.06 435.728 1704.75 440 1701.27V1564.12L439.951 1564.09L440 1564L491.656 1474.77C490.592 1472.4 490 1469.77 490 1467C490 1456.51 498.507 1448 509 1448C519.493 1448 528 1456.51 528 1467C528 1476.52 520.995 1484.41 511.857 1485.79L463 1570.78V1700.51ZM319 75.6909V308.688L368 393V591.309C372.206 593.966 375 598.657 375 604C375 612.284 368.284 619 360 619C351.716 619 345 612.284 345 604C345 598.657 347.794 593.966 352 591.309V397.549L303 313V75.6909C298.794 73.0338 296 68.3431 296 63C296 54.7157 302.716 48 311 48C319.284 48 326 54.7157 326 63C326 68.3431 323.206 73.0338 319 75.6909ZM303 631.691V776.309C298.794 778.966 296 783.657 296 789C296 797.284 302.716 804 311 804C319.284 804 326 797.284 326 789C326 783.657 323.206 778.966 319 776.309V631.691C323.206 629.034 326 624.343 326 619C326 610.716 319.284 604 311 604C302.716 604 296 610.716 296 619C296 624.343 298.794 629.034 303 631.691ZM47.3318 1178.54C49.0141 1176.12 50 1173.17 50 1170C50 1161.72 43.2843 1155 35 1155C26.7157 1155 20 1161.72 20 1170C20 1177.42 25.3822 1183.58 32.4537 1184.78L67 1244.54V1857.31C62.7937 1859.97 60 1864.66 60 1870C60 1878.28 66.7157 1885 75 1885C83.2843 1885 90 1878.28 90 1870C90 1864.66 87.2063 1859.97 83 1857.31V1240L47.3318 1178.54ZM211.095 1072.96C210.733 1072.99 210.368 1073 210 1073C201.716 1073 195 1066.28 195 1058C195 1049.72 201.716 1043 210 1043C218.284 1043 225 1049.72 225 1058C225 1059.88 224.654 1061.68 224.021 1063.34L301.952 1198H302V1198.08L302.001 1198.08L302 1198.08V1745.31C306.206 1747.97 309 1752.66 309 1758C309 1766.28 302.284 1773 294 1773C285.716 1773 279 1766.28 279 1758C279 1752.66 281.794 1747.97 286 1745.31V1202.62L211.095 1072.96ZM109 864.099V597.691C113.206 595.034 116 590.343 116 585C116 576.716 109.284 570 101 570C92.7157 570 86 576.716 86 585C86 590.343 88.7937 595.034 93 597.691L92.9993 868L134.061 939.448C133.377 941.165 133 943.038 133 945C133 953.284 139.716 960 148 960C156.284 960 163 953.284 163 945C163 936.716 156.284 930 148 930C147.74 930 147.482 930.007 147.225 930.02L109 864.099ZM203 1399.69C207.206 1397.03 210 1392.34 210 1387C210 1378.72 203.284 1372 195 1372C186.716 1372 180 1378.72 180 1387C180 1392.34 182.794 1397.03 187 1399.69V1878.31C182.794 1880.97 180 1885.66 180 1891C180 1899.28 186.716 1906 195 1906C203.284 1906 210 1899.28 210 1891C210 1885.66 207.206 1880.97 203 1878.31V1399.69Z" fill="white" fill-opacity="0.5"/>
</g>
</g>
</g>
<defs>
<filter id="filter0_dddddd_28_2" x="-2730.76" y="-5297.76" width="10857.5" height="12460.5" filterUnits="userSpaceOnUse" color-interpolation-filters="sRGB">
<feFlood flood-opacity="0" result="BackgroundImageFix"/>
<feColorMatrix in="SourceAlpha" type="matrix" values="0 0 0 0 0 0 0 0 0 0 0 0 0 0 0 0 0 0 127 0" result="hardAlpha"/>
<feOffset/>
<feGaussianBlur stdDeviation="61.89"/>
<feColorMatrix type="matrix" values="0 0 0 0 0.619608 0 0 0 0 0 0 0 0 0 1 0 0 0 1 0"/>
<feBlend mode="normal" in2="BackgroundImageFix" result="effect1_dropShadow_28_2"/>
<feColorMatrix in="SourceAlpha" type="matrix" values="0 0 0 0 0 0 0 0 0 0 0 0 0 0 0 0 0 0 127 0" result="hardAlpha"/>
<feOffset/>
<feGaussianBlur stdDeviation="123.78"/>
<feColorMatrix type="matrix" values="0 0 0 0 0.619608 0 0 0 0 0 0 0 0 0 1 0 0 0 1 0"/>
<feBlend mode="normal" in2="effect1_dropShadow_28_2" result="effect2_dropShadow_28_2"/>
<feColorMatrix in="SourceAlpha" type="matrix" values="0 0 0 0 0 0 0 0 0 0 0 0 0 0 0 0 0 0 127 0" result="hardAlpha"/>
<feOffset/>
<feGaussianBlur stdDeviation="433.23"/>
<feColorMatrix type="matrix" values="0 0 0 0 0.619608 0 0 0 0 0 0 0 0 0 1 0 0 0 1 0"/>
<feBlend mode="normal" in2="effect2_dropShadow_28_2" result="effect3_dropShadow_28_2"/>
<feColorMatrix in="SourceAlpha" type="matrix" values="0 0 0 0 0 0 0 0 0 0 0 0 0 0 0 0 0 0 127 0" result="hardAlpha"/>
<feOffset/>
<feGaussianBlur stdDeviation="866.46"/>
<feColorMatrix type="matrix" values="0 0 0 0 0.619608 0 0 0 0 0 0 0 0 0 1 0 0 0 1 0"/>
<feBlend mode="normal" in2="effect3_dropShadow_28_2" result="effect4_dropShadow_28_2"/>
<feColorMatrix in="SourceAlpha" type="matrix" values="0 0 0 0 0 0 0 0 0 0 0 0 0 0 0 0 0 0 127 0" result="hardAlpha"/>
<feOffset/>
<feGaussianBlur stdDeviation="1485.36"/>
<feColorMatrix type="matrix" values="0 0 0 0 0.619608 0 0 0 0 0 0 0 0 0 1 0 0 0 1 0"/>
<feBlend mode="normal" in2="effect4_dropShadow_28_2" result="effect5_dropShadow_28_2"/>
<feColorMatrix in="SourceAlpha" type="matrix" values="0 0 0 0 0 0 0 0 0 0 0 0 0 0 0 0 0 0 127 0" result="hardAlpha"/>
<feOffset/>
<feGaussianBlur stdDeviation="2599.38"/>
<feColorMatrix type="matrix" values="0 0 0 0 0.619608 0 0 0 0 0 0 0 0 0 1 0 0 0 1 0"/>
<feBlend mode="normal" in2="effect5_dropShadow_28_2" result="effect6_dropShadow_28_2"/>
<feBlend mode="normal" in="SourceGraphic" in2="effect6_dropShadow_28_2" result="shape"/>
</filter>
<filter id="filter1_dddddd_28_2" x="-5178.76" y="-5297.76" width="10905.5" height="12460.5" filterUnits="userSpaceOnUse" color-interpolation-filters="sRGB">
<feFlood flood-opacity="0" result="BackgroundImageFix"/>
<feColorMatrix in="SourceAlpha" type="matrix" values="0 0 0 0 0 0 0 0 0 0 0 0 0 0 0 0 0 0 127 0" result="hardAlpha"/>
<feOffset/>
<feGaussianBlur stdDeviation="61.89"/>
<feColorMatrix type="matrix" values="0 0 0 0 0 0 0 0 0 0.521569 0 0 0 0 1 0 0 0 1 0"/>
<feBlend mode="normal" in2="BackgroundImageFix" result="effect1_dropShadow_28_2"/>
<feColorMatrix in="SourceAlpha" type="matrix" values="0 0 0 0 0 0 0 0 0 0 0 0 0 0 0 0 0 0 127 0" result="hardAlpha"/>
<feOffset/>
<feGaussianBlur stdDeviation="123.78"/>
<feColorMatrix type="matrix" values="0 0 0 0 0 0 0 0 0 0.521569 0 0 0 0 1 0 0 0 1 0"/>
<feBlend mode="normal" in2="effect1_dropShadow_28_2" result="effect2_dropShadow_28_2"/>
<feColorMatrix in="SourceAlpha" type="matrix" values="0 0 0 0 0 0 0 0 0 0 0 0 0 0 0 0 0 0 127 0" result="hardAlpha"/>
<feOffset/>
<feGaussianBlur stdDeviation="433.23"/>
<feColorMatrix type="matrix" values="0 0 0 0 0 0 0 0 0 0.521569 0 0 0 0 1 0 0 0 1 0"/>
<feBlend mode="normal" in2="effect2_dropShadow_28_2" result="effect3_dropShadow_28_2"/>
<feColorMatrix in="SourceAlpha" type="matrix" values="0 0 0 0 0 0 0 0 0 0 0 0 0 0 0 0 0 0 127 0" result="hardAlpha"/>
<feOffset/>
<feGaussianBlur stdDeviation="866.46"/>
<feColorMatrix type="matrix" values="0 0 0 0 0 0 0 0 0 0.521569 0 0 0 0 1 0 0 0 1 0"/>
<feBlend mode="normal" in2="effect3_dropShadow_28_2" result="effect4_dropShadow_28_2"/>
<feColorMatrix in="SourceAlpha" type="matrix" values="0 0 0 0 0 0 0 0 0 0 0 0 0 0 0 0 0 0 127 0" result="hardAlpha"/>
<feOffset/>
<feGaussianBlur stdDeviation="1485.36"/>
<feColorMatrix type="matrix" values="0 0 0 0 0 0 0 0 0 0.521569 0 0 0 0 1 0 0 0 1 0"/>
<feBlend mode="normal" in2="effect4_dropShadow_28_2" result="effect5_dropShadow_28_2"/>
<feColorMatrix in="SourceAlpha" type="matrix" values="0 0 0 0 0 0 0 0 0 0 0 0 0 0 0 0 0 0 127 0" result="hardAlpha"/>
<feOffset/>
<feGaussianBlur stdDeviation="2599.38"/>
<feColorMatrix type="matrix" values="0 0 0 0 0 0 0 0 0 0.521569 0 0 0 0 1 0 0 0 1 0"/>
<feBlend mode="normal" in2="effect5_dropShadow_28_2" result="effect6_dropShadow_28_2"/>
<feBlend mode="normal" in="SourceGraphic" in2="effect6_dropShadow_28_2" result="shape"/>
</filter>
<linearGradient id="paint0_linear_28_2" x1="64.7319" y1="1855.75" x2="1981.02" y2="-563.433" gradientUnits="userSpaceOnUse">
<stop stop-color="#07358F"/>
<stop offset="0.113757" stop-color="#112572"/>
<stop offset="0.254382" stop-color="#141869"/>
<stop offset="0.590243" stop-color="#37075E"/>
<stop offset="0.848132" stop-color="#530970"/>
<stop offset="0.900216" stop-color="#590974"/>
<stop offset="1" stop-color="#630A7A"/>
<stop offset="1" stop-color="#B71AB1"/>
</linearGradient>
<clipPath id="clip0_28_2">
<rect width="2948" height="1926" fill="white"/>
</clipPath>
<clipPath id="clip1_28_2">
<rect width="3053" height="2009" fill="white" transform="translate(0 -51)"/>
</clipPath>
</defs>
</svg>
