<svg xmlns="http://www.w3.org/2000/svg" width="2854" height="803" fill="none" viewBox="0 0 2854 803"><path fill="#F4F8F7" fill-rule="evenodd" d="M800.065 50C781.126 50 763.813 60.7001 755.343 77.6393L745.343 97.6393C728.721 130.884 752.896 170 790.065 170H1048.66L1010.16 247H558.902C539.963 247 522.65 257.7 514.18 274.639L504.18 294.639C487.558 327.884 511.733 367 548.902 367H836.664L773.664 493H423.902C404.963 493 387.65 503.7 379.181 520.639L369.181 540.639C352.558 573.884 376.733 613 413.902 613H1132.16L1101.16 675H1041.06C1022.13 675 1004.81 685.7 996.343 702.639L986.343 722.639C969.721 755.884 993.896 795 1031.06 795H2100.76C2119.7 795 2137.01 784.3 2145.48 767.361L2155.48 747.361C2172.11 714.116 2147.93 675 2110.76 675H1948.16L2003.16 565H2215.26C2234.2 565 2251.51 554.3 2259.98 537.361L2269.98 517.361C2286.61 484.116 2262.43 445 2225.26 445H2063.16H1943.16H1784.66L1823.66 367H1878.1C1897.04 367 1914.35 356.3 1922.82 339.361L1932.82 319.361C1949.44 286.116 1925.27 247 1888.1 247H1130.16L1168.66 170H1304.26C1323.2 170 1340.51 159.3 1348.98 142.361L1358.98 122.361C1375.61 89.1156 1351.43 50 1314.26 50H800.065ZM1223.06 493H893.664L956.664 367H1070.16H1703.66L1664.66 445H1528.07C1509.13 445 1491.81 455.7 1483.34 472.639L1473.34 492.639C1456.72 525.884 1480.9 565 1518.07 565H1883.16L1828.16 675H1221.16L1252.16 613H1285.1C1304.04 613 1321.35 602.3 1329.82 585.361L1339.82 565.361C1356.44 532.116 1332.27 493 1295.1 493H1231.26H1223.06ZM1424.11 92.1115C1430.88 78.5601 1444.73 70 1459.88 70H1565.94C1595.68 70 1615.02 101.293 1601.72 127.889C1594.94 141.44 1581.09 150 1565.94 150H1459.88C1430.15 150 1410.81 118.707 1424.11 92.1115ZM2384.02 487.953C2389.57 479.915 2398.76 475 2408.71 475H2433.62C2435.02 475 2436.38 475.092 2437.71 475.268C2457.64 477.92 2469.81 499.715 2460.46 518.415C2460.46 518.415 2460.46 518.416 2460.46 518.416C2455.38 528.579 2444.99 534.999 2433.63 535C2433.63 535 2433.63 535 2433.62 535H2408.71C2386.41 535 2371.9 511.531 2381.87 491.584C2382.51 490.313 2383.23 489.101 2384.02 487.953ZM2775.89 663C2760.74 663 2746.89 671.56 2740.11 685.111C2726.81 711.708 2746.15 743 2775.89 743H2813.75C2828.9 743 2842.75 734.44 2849.53 720.889C2862.82 694.292 2843.48 663 2813.75 663H2775.89ZM78.9474 542.111C85.7231 528.56 99.5736 520 114.724 520H220.782C250.517 520 269.857 551.293 256.559 577.889C249.783 591.44 235.933 600 220.782 600H114.724C84.9892 600 65.6494 568.708 78.9474 542.111ZM2263.34 710.639C2271.81 693.7 2289.13 683 2308.07 683H2629.76C2666.93 683 2691.11 722.116 2674.48 755.361L2664.48 775.361C2656.01 792.3 2638.7 803 2619.76 803H2298.07C2260.9 803 2236.72 763.884 2253.34 730.639L2263.34 710.639ZM343.871 286.584C348.953 276.42 359.341 270 370.704 270H395.622C417.923 270 432.428 293.469 422.455 313.416C417.373 323.58 406.985 330 395.622 330H370.704C348.402 330 333.897 306.531 343.871 286.584Z" clip-rule="evenodd" opacity=".45"/><path fill="#F4F8F7" d="M2334.71 441.584C2339.79 431.42 2350.18 425 2361.54 425H2386.46C2408.76 425 2423.27 448.469 2413.29 468.416V468.416C2408.21 478.58 2397.82 485 2386.46 485H2361.54C2339.24 485 2324.73 461.531 2334.71 441.584V441.584Z"/><path fill="#F4F8F7" d="M2334.71 441.584C2339.79 431.42 2350.18 425 2361.54 425H2386.46C2408.76 425 2423.27 448.469 2413.29 468.416V468.416C2408.21 478.58 2397.82 485 2386.46 485H2361.54C2339.24 485 2324.73 461.531 2334.71 441.584V441.584Z"/><path fill="#F4F8F7" d="M1376.94 42.1115C1383.72 28.5601 1397.57 20 1412.72 20H1518.78C1548.51 20 1567.85 51.2925 1554.56 77.8885V77.8885C1547.78 91.4399 1533.93 100 1518.78 100H1412.72C1382.99 100 1363.65 68.7075 1376.94 42.1115V42.1115Z"/><path fill="#F4F8F7" d="M2692.94 635.111C2699.72 621.56 2713.57 613 2728.72 613H2766.58C2796.32 613 2815.66 644.293 2802.36 670.889V670.889C2795.58 684.44 2781.73 693 2766.58 693H2728.72C2698.99 693 2679.65 661.707 2692.94 635.111V635.111Z"/><path fill="#F4F8F7" d="M1043 37H1163L1023 317H903L1043 37Z"/><path fill="#F4F8F7" d="M1705 220H1825L1685 500H1565L1705 220Z"/><path fill="#F4F8F7" d="M1896 395H2016L1876 675H1756L1896 395Z"/><path fill="#F4F8F7" d="M838 220H958L818 500H698L838 220Z"/><path fill="#F4F8F7" d="M1131.18 470.639C1139.65 453.7 1156.96 443 1175.9 443H1184.1C1221.27 443 1245.44 482.116 1228.82 515.361L1138.82 695.361C1130.35 712.3 1113.04 723 1094.1 723H1085.9C1048.73 723 1024.56 683.884 1041.18 650.639L1131.18 470.639Z"/><path fill="#F4F8F7" d="M708.18 27.6393C716.65 10.7001 733.963 0 752.902 0H1267.1C1304.27 0 1328.44 39.1156 1311.82 72.3607L1301.82 92.3607C1293.35 109.3 1276.04 120 1257.1 120H742.902C705.733 120 681.558 80.8844 698.18 47.6393L708.18 27.6393Z"/><path fill="#F4F8F7" d="M2216.18 660.639C2224.65 643.7 2241.96 633 2260.9 633H2582.6C2619.77 633 2643.94 672.116 2627.32 705.361L2617.32 725.361C2608.85 742.3 2591.54 753 2572.6 753H2250.9C2213.73 753 2189.56 713.884 2206.18 680.639L2216.18 660.639Z"/><path fill="#F4F8F7" d="M949.18 652.639C957.65 635.7 974.963 625 993.902 625H2063.6C2100.77 625 2124.94 664.116 2108.32 697.361L2098.32 717.361C2089.85 734.3 2072.54 745 2053.6 745H983.902C946.733 745 922.558 705.884 939.18 672.639L949.18 652.639Z"/><path fill="#F4F8F7" d="M463.68 224.639C472.15 207.7 489.463 197 508.402 197H1837.6C1874.77 197 1898.94 236.116 1882.32 269.361L1872.32 289.361C1863.85 306.3 1846.54 317 1827.6 317H498.402C461.233 317 437.058 277.884 453.68 244.639L463.68 224.639Z"/><path fill="#F4F8F7" d="M1436.18 422.639C1444.65 405.7 1461.96 395 1480.9 395H2178.1C2215.27 395 2239.44 434.116 2222.82 467.361L2212.82 487.361C2204.35 504.3 2187.04 515 2168.1 515H1470.9C1433.73 515 1409.56 475.884 1426.18 442.639L1436.18 422.639Z"/><path fill="#F4F8F7" d="M329.18 470.639C337.65 453.7 354.963 443 373.902 443H1245.1C1282.27 443 1306.44 482.116 1289.82 515.361L1279.82 535.361C1271.35 552.3 1254.04 563 1235.1 563H363.902C326.733 563 302.558 523.884 319.18 490.639L329.18 470.639Z"/><path fill="#F4F8F7" d="M28.9443 492.111C35.72 478.56 49.5705 470 64.7214 470H170.779C200.514 470 219.854 501.293 206.556 527.889V527.889C199.78 541.44 185.93 550 170.779 550H64.7213C34.9861 550 15.6463 518.707 28.9443 492.111V492.111Z"/><path fill="#F4F8F7" d="M296.708 236.584C301.79 226.42 312.178 220 323.541 220H348.459C370.76 220 385.265 243.469 375.292 263.416V263.416C370.21 273.58 359.822 280 348.459 280H323.541C301.24 280 286.735 256.531 296.708 236.584V236.584Z"/></svg>