<svg xmlns="http://www.w3.org/2000/svg" width="2857" height="1018" fill="none" viewBox="0 0 2857 1018"><path fill="#F4F8F7" fill-rule="evenodd" d="M1749.23 50C1730.29 50 1712.98 60.7001 1704.51 77.6393L1694.51 97.6393C1677.89 130.884 1702.06 170 1739.23 170H1999.33L1944.33 280H1567.33H1447.33H1146.23C1127.29 280 1109.98 290.7 1101.51 307.639L1091.51 327.639C1074.89 360.884 1099.06 400 1136.23 400H1387.33L1330.33 514H385.732C366.793 514 349.48 524.7 341.011 541.639L331.011 561.639C314.388 594.884 338.563 634 375.732 634H991.33L951.33 714H587.232C568.293 714 550.98 724.7 542.511 741.639L532.511 761.639C515.888 794.884 540.063 834 577.232 834H1091.43C1110.37 834 1127.68 823.3 1136.15 806.361L1146.15 786.361C1162.77 753.116 1138.6 714 1101.43 714H1071.33L1111.33 634H1460.43C1479.37 634 1496.68 623.3 1505.15 606.361L1515.15 586.361C1531.77 553.116 1507.6 514 1470.43 514H1450.33L1507.33 400H2077.33L2048.33 458H1815.23C1796.29 458 1778.98 468.7 1770.51 485.639L1760.51 505.639C1743.89 538.884 1768.06 578 1805.23 578H2330.33L2282.33 674H1410.23C1391.29 674 1373.98 684.7 1365.51 701.639L1355.51 721.639C1338.89 754.884 1363.06 794 1400.23 794H1547.33L1495.33 898H946.232C927.293 898 909.98 908.7 901.511 925.639L891.511 945.639C874.888 978.884 899.063 1018 936.232 1018H1633.43C1652.37 1018 1669.68 1007.3 1678.15 990.361L1688.15 970.361C1704.77 937.116 1680.6 898 1643.43 898H1615.33L1667.33 794H2367.93C2386.87 794 2404.18 783.3 2412.65 766.361L2422.65 746.361C2435.7 720.268 2423.61 690.56 2399.84 678.984L2450.33 578H2482.43C2501.37 578 2518.68 567.3 2527.15 550.361L2537.15 530.361C2553.77 497.116 2529.6 458 2492.43 458H2168.33L2197.33 400H2205.93C2224.87 400 2242.18 389.3 2250.65 372.361L2260.65 352.361C2271.12 331.415 2265.4 308.139 2250.44 293.783L2252.33 290H2246C2237.79 283.785 2227.49 280 2215.93 280H2064.33L2119.33 170H2253.43C2272.37 170 2289.68 159.3 2298.15 142.361L2308.15 122.361C2324.77 89.1156 2300.6 50 2263.43 50H1749.23ZM1534.05 70C1518.9 70 1505.05 78.5601 1498.27 92.1115C1484.98 118.707 1504.32 150 1534.05 150H1640.11C1655.26 150 1669.11 141.44 1675.89 127.889C1689.18 101.293 1669.84 70 1640.11 70H1534.05ZM1294.04 96.5836C1299.12 86.4201 1309.51 80 1320.87 80H1345.79C1368.09 80 1382.6 103.469 1372.62 123.416C1367.54 133.58 1357.15 140 1345.79 140H1320.87C1298.57 140 1284.06 116.531 1294.04 96.5836ZM373.038 760.584C378.12 750.42 388.508 744 399.871 744H424.789C447.091 744 461.596 767.469 451.622 787.416C446.54 797.58 436.152 804 424.789 804H399.871C377.57 804 363.065 780.531 373.038 760.584ZM79.2745 552.111C86.0502 538.56 99.9007 530 115.052 530H221.109C250.844 530 270.184 561.293 256.886 587.889C250.11 601.44 236.26 610 221.109 610H115.052C85.3163 610 65.9765 578.708 79.2745 552.111ZM2112.23 834C2093.29 834 2075.98 844.7 2067.51 861.639L2057.51 881.639C2040.89 914.884 2065.06 954 2102.23 954H2616.43C2635.37 954 2652.68 943.3 2661.15 926.361L2671.15 906.361C2687.77 873.116 2663.6 834 2626.43 834H2112.23ZM2674.27 496.111C2681.05 482.56 2694.9 474 2710.05 474H2816.11C2845.84 474 2865.18 505.293 2851.89 531.889C2845.11 545.44 2831.26 554 2816.11 554H2710.05C2680.32 554 2660.98 522.707 2674.27 496.111ZM2392.87 310C2381.51 310 2371.12 316.42 2366.04 326.584C2356.06 346.531 2370.57 370 2392.87 370H2417.79C2429.15 370 2439.54 363.58 2444.62 353.416C2454.6 333.469 2440.09 310 2417.79 310H2392.87Z" clip-rule="evenodd" opacity=".45"/><path fill="#F4F8F7" d="M1243.71 46.5836C1248.79 36.4201 1259.18 30 1270.54 30H1295.46C1317.76 30 1332.27 53.4694 1322.29 73.4164C1317.21 83.5799 1306.82 90 1295.46 90H1270.54C1248.24 90 1233.73 66.5306 1243.71 46.5836Z"/><path fill="#F4F8F7" d="M322.708 710.584C327.79 700.42 338.178 694 349.541 694H374.459C396.76 694 411.265 717.469 401.292 737.416C396.21 747.58 385.822 754 374.459 754H349.541C327.24 754 312.735 730.531 322.708 710.584Z"/><path fill="#F4F8F7" d="M2315.71 276.584C2320.79 266.42 2331.18 260 2342.54 260H2367.46C2389.76 260 2404.27 283.469 2394.29 303.416C2389.21 313.58 2378.82 320 2367.46 320H2342.54C2320.24 320 2305.73 296.531 2315.71 276.584Z"/><path fill="#F4F8F7" d="M1447.94 42.1115C1454.72 28.5601 1468.57 20 1483.72 20H1589.78C1619.51 20 1638.85 51.2925 1625.56 77.8885C1618.78 91.4399 1604.93 100 1589.78 100H1483.72C1453.99 100 1434.65 68.7075 1447.94 42.1115Z"/><path fill="#F4F8F7" d="M28.9443 502.111C35.72 488.56 49.5705 480 64.7214 480H170.779C200.514 480 219.854 511.293 206.556 537.889C199.78 551.44 185.93 560 170.779 560H64.7213C34.9861 560 15.6463 528.707 28.9443 502.111Z"/><path fill="#F4F8F7" d="M1702.94 890.111C1709.72 876.56 1723.57 868 1738.72 868H1844.78C1874.51 868 1893.85 899.293 1880.56 925.889C1873.78 939.44 1859.93 948 1844.78 948H1738.72C1708.99 948 1689.65 916.707 1702.94 890.111Z"/><path fill="#F4F8F7" d="M1397 230H1517L1377 510H1257L1397 230Z"/><path fill="#F4F8F7" d="M2308.5 447H2428.5L2288.5 727H2168.5L2308.5 447Z"/><path fill="#F4F8F7" d="M2082 240H2202L2062 520H1942L2082 240Z"/><path fill="#F4F8F7" d="M1527 684H1647L1507 964H1387L1527 684Z"/><path fill="#F4F8F7" d="M999 468H1119L979 748H859L999 468Z"/><path fill="#F4F8F7" d="M1979 60H2099L1959 340H1839L1979 60Z"/><path fill="#F4F8F7" d="M1654.18 27.6393C1662.65 10.7001 1679.96 0 1698.9 0H2213.1C2250.27 0 2274.44 39.1156 2257.82 72.3607L2247.82 92.3607C2239.35 109.3 2222.04 120 2203.1 120H1688.9C1651.73 120 1627.56 80.8844 1644.18 47.6393L1654.18 27.6393Z"/><path fill="#F4F8F7" d="M492.18 691.639C500.65 674.7 517.963 664 536.902 664H1051.1C1088.27 664 1112.44 703.116 1095.82 736.361L1085.82 756.361C1077.35 773.3 1060.04 784 1041.1 784H526.902C489.733 784 465.558 744.884 482.18 711.639L492.18 691.639Z"/><path fill="#F4F8F7" d="M1051.18 257.639C1059.65 240.7 1076.96 230 1095.9 230H2165.6C2202.77 230 2226.94 269.116 2210.32 302.361L2200.32 322.361C2191.85 339.3 2174.54 350 2155.6 350H1085.9C1048.73 350 1024.56 310.884 1041.18 277.639L1051.18 257.639Z"/><path fill="#F4F8F7" d="M1051.18 257.639C1059.65 240.7 1076.96 230 1095.9 230H2165.6C2202.77 230 2226.94 269.116 2210.32 302.361L2200.32 322.361C2191.85 339.3 2174.54 350 2155.6 350H1085.9C1048.73 350 1024.56 310.884 1041.18 277.639L1051.18 257.639Z"/><path fill="#F4F8F7" d="M1720.18 435.639C1728.65 418.7 1745.96 408 1764.9 408H2442.1C2479.27 408 2503.44 447.116 2486.82 480.361L2476.82 500.361C2468.35 517.3 2451.04 528 2432.1 528H1754.9C1717.73 528 1693.56 488.884 1710.18 455.639L1720.18 435.639Z"/><path fill="#F4F8F7" d="M290.68 491.639C299.15 474.7 316.463 464 335.402 464H1420.1C1457.27 464 1481.44 503.116 1464.82 536.361L1454.82 556.361C1446.35 573.3 1429.04 584 1410.1 584H325.402C288.233 584 264.058 544.884 280.68 511.639L290.68 491.639Z"/><path fill="#F4F8F7" d="M1315.18 651.639C1323.65 634.7 1340.96 624 1359.9 624H2327.6C2364.77 624 2388.94 663.116 2372.32 696.361L2362.32 716.361C2353.85 733.3 2336.54 744 2317.6 744H1349.9C1312.73 744 1288.56 704.884 1305.18 671.639L1315.18 651.639Z"/><path fill="#F4F8F7" d="M851.18 875.639C859.65 858.7 876.963 848 895.902 848H1593.1C1630.27 848 1654.44 887.116 1637.82 920.361L1627.82 940.361C1619.35 957.3 1602.04 968 1583.1 968H885.902C848.733 968 824.558 928.884 841.18 895.639L851.18 875.639Z"/><path fill="#F4F8F7" d="M2017.18 811.639C2025.65 794.7 2042.96 784 2061.9 784H2576.1C2613.27 784 2637.44 823.116 2620.82 856.361L2610.82 876.361C2602.35 893.3 2585.04 904 2566.1 904H2051.9C2014.73 904 1990.56 864.884 2007.18 831.639L2017.18 811.639Z"/><path fill="#F4F8F7" d="M1702.94 890.111C1709.72 876.56 1723.57 868 1738.72 868H1844.78C1874.51 868 1893.85 899.293 1880.56 925.889C1873.78 939.44 1859.93 948 1844.78 948H1738.72C1708.99 948 1689.65 916.707 1702.94 890.111Z"/><path fill="#F4F8F7" d="M2622.94 446.111C2629.72 432.56 2643.57 424 2658.72 424H2764.78C2794.51 424 2813.85 455.293 2800.56 481.889C2793.78 495.44 2779.93 504 2764.78 504H2658.72C2628.99 504 2609.65 472.707 2622.94 446.111Z"/></svg>