<svg xmlns="http://www.w3.org/2000/svg" width="1040" height="640" fill="none" viewBox="0 0 1040 640"><path stroke="#fff" stroke-width="40" d="M20 20V520L121 619.5H1020V120L919 20H780V90H850V120H670L570 20H500V80L440 20H370L303 120H260L160 20H20Z"/><g clip-path="url(#clip0_1_277)"><path fill="#fff" d="M880 120H1020L919 20H780L880 120Z"/><path fill="#fff" d="M1020 120H880H670L570 20V90V120H540L440 20V90.003V120L260 120L160 20H20V520L120 620H1020V120Z"/><g clip-path="url(#clip1_1_277)"><path fill="#000" fill-rule="evenodd" d="M780 90V20H920V70V90V450V470V520H780V450H850V90H780Z" clip-rule="evenodd"/><path fill="#000" fill-rule="evenodd" d="M20 70V20H160V90H90V450H160V520H20V470V450V90V70Z" clip-rule="evenodd"/><path fill="#000" fill-rule="evenodd" d="M570 20H500V520H570V305H830V235H570V20Z" clip-rule="evenodd"/><path fill="#000" fill-rule="evenodd" d="M370 20H440V40V520H370V144L265 300H195V240H221.924L370 20.0043V20Z" clip-rule="evenodd"/><mask id="mask0_1_277" style="mask-type:alpha" width="245" height="280" x="20" y="20" maskUnits="userSpaceOnUse"><path fill="#EA469E" d="M265 280L195 300L20 40L90 20L265 280Z"/></mask><g mask="url(#mask0_1_277)"><rect width="210" height="270" x="110" y="110" fill="#000"/></g></g></g><defs><clipPath id="clip0_1_277"><rect width="1000" height="600" fill="#fff" transform="translate(20 20)"/></clipPath><clipPath id="clip1_1_277"><rect width="899" height="500" fill="#fff" transform="translate(20 20)"/></clipPath></defs></svg>