<svg xmlns="http://www.w3.org/2000/svg" width="266" height="160" fill="none" viewBox="0 0 266 160"><path fill="#434667" d="M228.396 27.0677V31H265.5V27.0677L238.734 0.567749H201.896L228.396 27.0677Z"/><path fill="#434667" d="M265.5 27.0677H172.75L146.25 0.567749V27.0677H138.297L111.797 0.567749V27.0677H64.099L37.599 0.567749H0.5V133.068L27 159.568H265.5V27.0677Z"/><path fill="#FFA4D5" fill-rule="evenodd" d="M201.896 19.1146V0.567749H239V133.068H201.896V114.516H220.448V19.1146H201.896Z" clip-rule="evenodd"/><path fill="#FFA4D5" fill-rule="evenodd" d="M0.5 13.8177V0.567749H37.599V19.1146H19.0469V114.516H37.599V133.068H0.5V13.8177Z" clip-rule="evenodd"/><path fill="#ABFF80" fill-rule="evenodd" d="M146.25 0.567749H127.698V133.068H146.25V76.0938H215.146V57.5417H146.25V0.567749Z" clip-rule="evenodd"/><path fill="#C1ECFF" fill-rule="evenodd" d="M93.25 0.567749H111.797V133.068H93.25V33.4271L65.4219 74.7657H46.875V58.8646H54.0104L93.25 0.567749Z" clip-rule="evenodd"/><path fill="#C1ECFF" fill-rule="evenodd" d="M46.875 74.7656L65.4219 69.4687L35.099 24.4166H24.349V41.302L46.875 74.7656Z" clip-rule="evenodd"/></svg>