<svg width="307" height="253" viewBox="0 0 307 253" fill="none" xmlns="http://www.w3.org/2000/svg">
<path d="M18.6826 201.437C14.4987 204.052 17.6222 199.476 12 196.991L11 190.977L15.1524 187.708L21.8206 185.093L44.7016 172.149L109.422 157.113L145.77 175.679L176.888 189.539L197.416 175.679L217.813 162.081L231.672 141.554L241.74 162.866L264.882 173.849L295.632 175.679L294.063 174.11C294.76 174.459 301.511 178.223 301 179.5C300.477 180.807 303.216 182.478 302.823 183.001C302.431 183.524 302.241 191.449 302.823 191.5C308.5 192 302.17 208.628 301.777 211.243C301.385 213.858 301.647 218.042 301.777 220.918C301.908 223.795 303.608 226.41 304 226.933C304.392 227.456 304.654 232.555 303.216 234.647C301.777 236.739 299.162 236.608 297.855 235.562C296.547 234.516 296.417 233.601 296.024 232.163C295.711 231.012 296.417 225.233 296.809 222.487C297.158 220.177 297.855 215.479 297.855 215.165C297.855 214.773 298.378 208.366 298.378 207.974C298.378 207.582 298.901 203.006 298.901 200.522C298.901 198.037 298.509 193.2 298.378 190.977C298.464 189.681 295.639 187.542 294.769 186.646C293.502 187.472 292.579 191.002 292.363 192.938C292.102 195.292 292.625 199.214 292.625 200.522C292.494 201.568 294.325 205.49 294.978 207.19C295.501 208.55 295.458 210.458 295.371 211.243C295.196 211.679 294.691 212.681 294.063 213.204C293.279 213.858 292.494 213.989 291.971 213.989C288.702 213.466 287.656 209.412 287.526 207.974C287.395 206.536 287.656 202.614 287.264 197.645C286.872 192.677 286.586 190.977 285.802 190.715C285.017 190.454 282.795 190.715 279.918 190.715C277.826 191.134 274.514 186.008 273.119 183.394C272.073 182.452 268.935 182.74 267.497 183.001C266.582 183.168 263.743 185.193 260.5 187C258.21 188.276 256.5 183.394 255.5 187.708C255.5 187.708 254.281 190.872 252.5 191.5C249.911 192.413 246.5 187.839 246.5 187.839C246.5 187.839 244.747 187 243.5 179.5C246.507 178.721 248.722 179.393 247.362 179.079C245.662 178.687 245.662 175.81 244.747 173.195C244.015 171.103 243.221 170.754 242.916 170.842C242.655 171.277 242.053 172.201 241.74 172.411C241.609 172.672 239.386 173.587 238.994 172.149C238.209 171.365 234.287 159.205 234.287 158.944C234.287 158.682 233.372 155.283 232.326 157.113C231.489 158.577 228.7 178.022 227 187C226.433 190.094 224.821 196.207 226.181 200.391C227.88 205.621 226.965 212.027 222.781 212.027C220.166 210.066 218.466 207.844 220.166 199.476C221.866 191.108 220.562 200.522 222 187.708C223.151 177.458 216.592 173.849 213.106 174.372C204.842 175.522 197.285 181.563 195.193 185.355C192.317 191.631 191.411 194.384 189 198C187.431 200.353 185.438 197.216 184 198C182.849 198.628 184.392 206.231 184 208.236C183.346 213.204 180.549 212.42 179.765 212.158C178.773 211.827 176.888 208.236 176.888 204.706L175.5 201.306C171.97 197.296 170.022 189.685 170.22 188.1C170.351 187.054 162.506 199.606 162.506 201.306C162.401 199.737 160.37 195.727 159.63 194.376C158.845 192.502 154.504 195.945 150.739 196.991C146.032 198.299 147.339 206.798 147.339 208.236C147.339 209.674 147.862 213.204 148.124 213.989C148.385 214.773 148.777 218.826 148.908 223.533C149.039 228.24 146.424 230.202 144.855 230.332C143.286 230.463 141.979 229.679 140.54 227.194C139.102 224.71 140.41 220.134 140.54 219.742C140.671 219.349 141.586 216.604 141.979 215.296C142.371 213.989 142.894 209.02 142.894 207.974C142.894 206.928 143.025 204.836 142.894 203.79C142.763 202.744 141.848 197.253 141.194 195.422C140.672 193.962 139.371 192.033 138.585 191.634C138.581 191.636 138.579 191.635 138.579 191.631H138.448C136.226 188.885 136.356 189.669 135.049 186.531C133.737 183.384 135.833 182.478 134.395 180.256C132.957 178.033 131.519 177.641 129.95 176.856C128.381 176.072 126.027 178.817 123.935 180.517C122.262 181.877 120.187 181.519 119.359 181.171C117.398 180.386 116.613 179.602 115.437 178.164C114.323 176.802 113.475 175.549 112.56 173.98C111.828 172.724 111.035 172.585 110.73 172.672C109.684 172.934 108.768 174.764 108.376 175.418C108.245 175.81 108.071 176.987 108.115 177.641C108.245 179.079 108.507 180.517 108.768 181.302C109.016 182.046 109.161 182.871 109.422 185.093C109.684 187.316 109.161 188.754 108.115 189.277C107.278 189.696 106.633 189.626 106.415 189.539C102.885 187.577 103.408 184.047 103.538 182.871C103.669 181.694 103.931 180.256 103.931 180.125C103.931 179.994 104.323 178.817 104.846 177.51C105.369 176.202 105.369 174.633 105.369 174.11C105.369 173.587 105.369 172.934 105.107 172.411L104.323 170.842C103.669 169.142 103.669 169.142 102.362 168.488L102.362 168.488C101.303 167.959 98.7879 168.314 97.524 168.75L91.2481 170.188L85.1029 172.28C84.1876 172.585 82.2787 173.3 81.9649 173.718C81.6511 174.136 81.5727 174.415 81.5727 174.503C79.2192 179.863 78.304 182.086 76.4735 182.74C75.5653 183.064 72.6818 183.001 71.2435 182.74C69.6746 182.74 69.2823 184.047 68.6286 185.093C68.1956 185.786 66.9724 188.623 66.5366 190.062C66.1443 190.977 66.0136 198.953 66.5366 200.391C68.1056 202.692 69.108 207.538 69.4131 209.674C69.8489 212.376 70.1191 218.225 67.7133 220.003C64.7061 222.226 62.8756 220.788 61.8296 219.48C60.7836 218.173 60.1299 214.904 60.2607 212.812C60.3653 211.138 61.3502 207.059 61.8296 205.229V194.769C61.8296 193.409 60.0863 189.495 59.2147 187.708C58.3866 185.834 55.7106 182.217 51.6313 182.74C46.5321 183.393 42.6096 186.662 39.0794 190.977C35.5492 195.292 35.1569 203.921 34.8954 204.444C34.6862 204.862 34.1981 210.807 33.9802 213.727C34.0238 216.342 34.0848 221.703 33.9802 222.226C33.8494 222.88 34.1109 229.025 34.8954 231.509C35.6799 233.993 36.5952 237.262 36.9874 239.092C37.3797 240.923 37.5104 243.799 37.5104 246.676C36.4644 252.167 35.0262 252.037 33.065 252.56C31.1037 253.082 28.4888 251.514 28.0965 248.768C27.7043 246.022 27.7043 246.284 28.4888 242.361C29.2732 238.439 29.7962 237.131 29.7962 236.085V230.724C29.9706 226.192 30.3192 217.074 30.3192 216.865C30.3192 216.604 30.5807 209.02 30.3192 207.19C30.0577 205.359 30.1885 205.621 29.0117 201.437C27.835 197.253 19.0824 201.187 18.6826 201.437Z" fill="black"/>
<path d="M138.579 191.631C139.364 192.023 140.671 193.958 141.194 195.422C141.848 197.253 142.763 202.744 142.894 203.79C143.025 204.836 142.894 206.928 142.894 207.974C142.894 209.02 142.371 213.989 141.979 215.296C141.586 216.604 140.671 219.349 140.54 219.742C140.41 220.134 139.102 224.71 140.54 227.194C141.979 229.679 143.286 230.463 144.855 230.332C146.424 230.202 149.039 228.24 148.908 223.533C148.777 218.826 148.385 214.773 148.124 213.989C147.862 213.204 147.339 209.674 147.339 208.236C147.339 206.798 146.032 198.299 150.739 196.991C154.504 195.945 158.845 192.502 159.63 194.376C160.37 195.727 162.401 199.737 162.506 201.306C162.506 199.606 170.351 187.054 170.22 188.1C170.022 189.685 171.97 197.296 175.5 201.306L176.888 204.706C176.888 208.236 178.773 211.827 179.765 212.158C180.549 212.42 183.346 213.204 184 208.236C184.392 206.231 182.849 198.628 184 198C185.438 197.216 187.431 200.353 189 198C191.411 194.384 192.317 191.631 195.193 185.355C197.285 181.563 204.842 175.522 213.106 174.372C216.592 173.849 223.151 177.458 222 187.708C220.562 200.522 221.866 191.108 220.166 199.476C218.466 207.844 220.166 210.066 222.781 212.027C226.965 212.027 227.88 205.621 226.181 200.391C224.821 196.207 226.433 190.094 227 187C228.7 178.022 231.489 158.577 232.326 157.113C233.372 155.283 234.287 158.682 234.287 158.944C234.287 159.205 238.209 171.365 238.994 172.149C239.386 173.587 241.609 172.672 241.74 172.411C242.053 172.201 242.655 171.277 242.916 170.842C243.221 170.754 244.015 171.103 244.747 173.195C245.662 175.81 245.662 178.687 247.362 179.079C248.722 179.393 246.507 178.721 243.5 179.5C244.747 187 246.5 187.839 246.5 187.839C246.5 187.839 249.911 192.413 252.5 191.5C254.281 190.872 255.5 187.708 255.5 187.708C256.5 183.394 258.21 188.276 260.5 187C263.743 185.193 266.582 183.168 267.497 183.001C268.935 182.74 272.073 182.452 273.119 183.394C274.514 186.008 277.826 191.134 279.918 190.715C282.795 190.715 285.017 190.454 285.802 190.715C286.586 190.977 286.872 192.677 287.264 197.645C287.656 202.614 287.395 206.536 287.526 207.974C287.656 209.412 288.702 213.466 291.971 213.989C292.494 213.989 293.279 213.858 294.063 213.204C294.691 212.681 295.196 211.679 295.371 211.243C295.458 210.458 295.501 208.55 294.978 207.19C294.325 205.49 292.494 201.568 292.625 200.522C292.625 199.214 292.102 195.292 292.363 192.938C292.625 190.585 293.932 185.878 295.632 186.531C291.971 185.123 298.509 189.016 298.378 190.977C298.509 193.2 298.901 198.037 298.901 200.522C298.901 203.006 298.378 207.582 298.378 207.974C298.378 208.366 297.855 214.773 297.855 215.165C297.855 215.479 297.158 220.177 296.809 222.487C296.417 225.233 295.711 231.012 296.024 232.163C296.417 233.601 296.547 234.516 297.855 235.562C299.162 236.608 301.777 236.739 303.216 234.647C304.654 232.555 304.392 227.456 304 226.933C303.608 226.41 301.908 223.795 301.777 220.918C301.647 218.042 301.385 213.858 301.777 211.243C302.17 208.628 308.5 192 302.823 191.5C302.241 191.449 302.431 183.524 302.823 183.001C303.216 182.478 300.477 180.807 301 179.5C301.511 178.223 294.76 174.459 294.063 174.11L295.632 175.679L264.882 173.849L241.74 162.866L231.672 141.554L217.813 162.081L197.416 175.679L176.888 189.539L145.77 175.679L109.422 157.113L44.7016 172.149L21.8206 185.093L15.1524 187.708L11 190.977L12 196.991C17.6222 199.476 14.4987 204.052 18.6826 201.437C19.0824 201.187 27.835 197.253 29.0117 201.437C30.1885 205.621 30.0577 205.359 30.3192 207.19C30.5807 209.02 30.3192 216.604 30.3192 216.865C30.3192 217.074 29.9706 226.192 29.7962 230.724C29.7962 232.163 29.7962 235.248 29.7962 236.085C29.7962 237.131 29.2732 238.439 28.4888 242.361C27.7043 246.284 27.7043 246.022 28.0965 248.768C28.4888 251.514 31.1037 253.082 33.065 252.56C35.0262 252.037 36.4644 252.167 37.5104 246.676C37.5104 243.799 37.3797 240.923 36.9874 239.092C36.5952 237.262 35.6799 233.993 34.8954 231.509C34.1109 229.025 33.8494 222.88 33.9802 222.226C34.0848 221.703 34.0238 216.342 33.9802 213.727C34.1981 210.807 34.6862 204.862 34.8954 204.444C35.1569 203.921 35.5492 195.292 39.0794 190.977C42.6096 186.662 46.5321 183.393 51.6313 182.74C55.7106 182.217 58.3866 185.834 59.2147 187.708C60.0863 189.495 61.8296 193.409 61.8296 194.769C61.8296 196.128 61.8296 202.308 61.8296 205.229C61.3502 207.059 60.3653 211.138 60.2607 212.812C60.1299 214.904 60.7837 218.173 61.8296 219.48C62.8756 220.788 64.7061 222.226 67.7133 220.003C70.1191 218.225 69.8489 212.376 69.4131 209.674C69.108 207.538 68.1056 202.692 66.5366 200.391C66.0136 198.953 66.1443 190.977 66.5366 190.062C66.9724 188.623 68.1956 185.786 68.6286 185.093C69.2823 184.047 69.6746 182.74 71.2435 182.74C72.6818 183.001 75.5653 183.064 76.4735 182.74C78.304 182.086 79.2192 179.863 81.5727 174.503C81.5727 174.415 81.6511 174.136 81.9649 173.718C82.2787 173.3 84.1876 172.585 85.1029 172.28L91.2481 170.188L97.524 168.75C98.7879 168.314 101.303 167.959 102.362 168.488C103.669 169.142 103.669 169.142 104.323 170.842C104.497 171.19 104.898 171.992 105.107 172.411C105.369 172.934 105.369 173.587 105.369 174.11C105.369 174.633 105.369 176.202 104.846 177.51C104.323 178.817 103.931 179.994 103.931 180.125C103.931 180.256 103.669 181.694 103.538 182.871C103.408 184.047 102.885 187.577 106.415 189.539C106.633 189.626 107.278 189.696 108.115 189.277C109.161 188.754 109.684 187.316 109.422 185.093C109.161 182.871 109.016 182.046 108.768 181.302C108.507 180.517 108.245 179.079 108.115 177.641C108.071 176.987 108.245 175.81 108.376 175.418C108.768 174.764 109.684 172.934 110.73 172.672C111.035 172.585 111.828 172.724 112.56 173.98C113.475 175.549 114.323 176.802 115.437 178.164C116.613 179.602 117.398 180.386 119.359 181.171C120.187 181.519 122.262 181.877 123.935 180.517C126.027 178.817 128.381 176.072 129.95 176.856C131.519 177.641 132.957 178.033 134.395 180.256C135.833 182.478 133.737 183.384 135.049 186.531C136.356 189.669 136.226 188.885 138.448 191.631H138.579ZM138.579 191.631C138.579 191.735 139.799 189.931 140.41 189.016L140.933 190.585" stroke="black" stroke-width="0.261497"/>
<path d="M299.5 18.5C299.5 18.5 261.896 29 233.896 1C231.427 5 229.396 12 227.896 18L220.5 18.5C220.5 16 222 1 222 1C222 1 186 31 154.5 21C141.576 59.4453 170 171 163 203.5C163 203.5 170 192.5 175.5 190.5C176 192 176 198 176 198C176 198 200 177 219.5 177C219.5 177 218.5 173.5 218.896 171.764L226.396 170.264C226.396 170.264 225.5 173 228.5 177.5C228.5 177.5 238.5 174 242.5 174.5C242.5 174.5 241.5 178 244.5 182.5C244.5 182.5 259.5 174.764 304.896 193.5C289.396 100 288.896 73 305.896 39.5C305.896 39.5 291.638 44.1915 292.896 37.5C295.312 24.6549 299.5 18.5 299.5 18.5Z" fill="black" stroke="black" stroke-width="0.303943"/>
<path d="M24.8049 195C24.8049 195 24 186.5 24.8049 184L11 191C8.1965 162.817 13.2918 105.487 20 77.5L7.5 81.5C17 60.5 6.5 24.5 1 12C47 35.5 77 33.5 77 33.5C77 33.5 87.6593 60.3981 87.976 61.3734L91.4986 32.3056C114 28 129 23 157.5 3C157.5 3 153 20 156.5 24.5C154.5 36.9252 152 45.5 156.5 52.5C160.239 58.3168 179.622 173.809 165 198.5C164.258 199.753 163.927 202.752 163 203.5C112.5 167 75 165.5 24.8049 195Z" fill="black"/>
<path d="M156.5 52.5C152 45.5 154.5 36.9252 156.5 24.5C153 20 157.5 3 157.5 3C129 23 114 28 91.4986 32.3056L87.976 61.3734C87.6593 60.3981 77 33.5 77 33.5C77 33.5 47 35.5 1 12C6.5 24.5 17 60.5 7.5 81.5L20 77.5C13.2918 105.487 8.1965 162.817 11 191L24.8049 184C24 186.5 24.8049 195 24.8049 195C75 165.5 112.5 167 163 203.5C163.927 202.752 164.258 199.753 165 198.5M156.5 52.5C160.239 58.3168 179.622 173.809 165 198.5M156.5 52.5L165 198.5" stroke="black" stroke-width="0.295105"/>
<path d="M27.175 43.6972L26.7002 38.2944L69.9097 43.6972C77.7444 57.8794 91.5145 102.902 86.0539 111.006C84.487 97.2744 72.363 64.0325 66.3485 49.0999L27.175 43.6972Z" fill="white" style="mix-blend-mode:soft-light"/>
<path d="M50.6859 86.7145C50.6837 86.7076 50.6814 86.7008 50.6791 86.6941C50.6814 86.7001 50.6837 86.7069 50.6859 86.7145C51.167 88.1506 52.5391 91.3841 54.2404 92.9973C54.2404 95.0233 53.7655 143.198 63.0247 156.705C59.7959 157.245 57.2476 157.83 56.3771 158.055C53.5154 146.725 49.4921 120.236 49.4921 106.054C50.8339 91.8404 50.85 87.2672 50.6859 86.7145Z" fill="white" style="mix-blend-mode:soft-light"/>
<path d="M112.644 76.3388V57.8794C111.062 64.0325 107.611 78.0947 106.472 85.1182C105.332 92.1418 97.6082 128.265 93.8887 145.449C94.8383 145.374 97.2125 145.044 99.1118 144.323C98.9219 141.262 108.054 97.7246 112.644 76.3388Z" fill="white" style="mix-blend-mode:soft-light"/>
<path d="M101.723 43.9223V38.9697L134.961 32.2163L146.832 44.1474C148.731 73.6374 158.703 128.34 153.48 160.532C153.084 160.456 151.96 160.261 150.631 160.081C154.239 145.134 146.436 79.2652 142.084 48.1994L131.163 36.0433L101.723 43.9223Z" fill="white" style="mix-blend-mode:soft-light"/>
<g opacity="0.5">
<path d="M27.175 43.6972L26.7002 38.2944L69.9097 43.6972C77.7444 57.8794 91.5145 102.902 86.0539 111.006C84.487 97.2744 72.363 64.0325 66.3485 49.0999L27.175 43.6972Z" fill="white" style="mix-blend-mode:soft-light"/>
<path d="M50.6859 86.7145C50.6837 86.7076 50.6814 86.7008 50.6791 86.6941C50.6814 86.7001 50.6837 86.7069 50.6859 86.7145C51.167 88.1506 52.5391 91.3841 54.2404 92.9973C54.2404 95.0233 53.7655 143.198 63.0247 156.705C59.7959 157.245 57.2476 157.83 56.3771 158.055C53.5154 146.725 49.4921 120.236 49.4921 106.054C50.8339 91.8404 50.85 87.2672 50.6859 86.7145Z" fill="white" style="mix-blend-mode:soft-light"/>
<path d="M112.644 76.3388V57.8794C111.062 64.0325 107.611 78.0947 106.472 85.1182C105.332 92.1418 97.6082 128.265 93.8887 145.449C94.8383 145.374 97.2125 145.044 99.1118 144.323C98.9219 141.262 108.054 97.7246 112.644 76.3388Z" fill="white" style="mix-blend-mode:soft-light"/>
<path d="M101.723 43.9223V38.9697L134.961 32.2163L146.832 44.1474C148.731 73.6374 158.703 128.34 153.48 160.532C153.084 160.456 151.96 160.261 150.631 160.081C154.239 145.134 146.436 79.2652 142.084 48.1994L131.163 36.0433L101.723 43.9223Z" fill="white" style="mix-blend-mode:soft-light"/>
</g>
<path d="M16.338 195.511L17.4628 178.632L22.7117 173.64L36.3339 167.806L50.4561 163.789L62.8285 161.019L64.8281 159.079C65.1197 158.802 66.2279 158.802 68.3274 161.019C70.9519 163.789 69.4522 166.421 68.0775 167.529C66.9777 168.416 64.6198 168.176 63.5784 167.945C61.1622 171.823 55.2801 178.722 51.0809 175.286C41.5829 167.945 37.2088 177.918 36.3339 179.581C35.5841 179.581 31.4599 191.078 31.8349 195.649C32.2098 200.22 32.7097 201.606 33.2096 203.129C34.0844 208.116 35.5841 218.228 31.4599 218.09C27.3358 217.951 25.961 210.333 26.5859 207.424C27.0858 205.096 27.1275 200.267 27.0858 198.143C27.2108 195.372 27.0858 191.078 26.211 191.078C25.4611 190.801 23.5865 195.095 22.7117 199.251C21.8369 203.406 20.9621 212.272 20.8371 213.934C20.7121 215.596 21.337 223.492 21.462 225.986C21.5869 228.479 22.7117 234.99 23.5865 237.483C24.2114 245.379 19.5873 252.028 16.588 248.703C9.83936 244.271 14.5884 230.834 15.0883 229.864C15.4882 229.089 16.1714 224 16.463 221.553C16.8796 218.829 17.6628 211.967 17.4628 206.315C17.2628 200.664 16.7129 196.988 16.338 195.511Z" fill="url(#paint0_linear_144_11)"/>
<path d="M20.462 201.883C20.3621 201.661 20.0038 201.144 19.8372 200.913V199.251L21.2119 199.943L21.7118 201.052C21.3369 201.421 20.562 202.104 20.462 201.883Z" fill="url(#paint1_linear_144_11)"/>
<path d="M77.4991 168.499C75.9995 168.831 75.8325 158.165 75.9991 157.611C85.2056 152.347 103.792 152.973 104.499 158.611C105.178 164.03 103.499 166.208 103.499 166.208C101.999 167.611 101.72 166.476 100.321 165.036C98.5711 163.235 91.4475 165.036 88.6362 170.854C88.2362 177.17 89.198 177.801 89.198 179.858C91.1976 185.399 91.9474 192.74 88.1982 192.463C85.1822 192.24 85.3238 189 85.3238 187.892C85.3238 186.784 85.3238 185.26 85.3238 184.429L85.8237 180.966C85.8653 178.288 85.1988 171.574 84.199 170.023C82.9493 168.083 82.0744 168.36 80.9497 167.806C79.8249 167.252 79.3738 168.083 77.4991 168.499Z" fill="url(#paint2_linear_144_11)"/>
<path d="M115.068 165.036C111.668 164.371 112.333 161.047 112.999 158.692L120.317 156.309L147.311 168.36L158.809 180.966L160.434 170.023C160.309 175.333 161.433 187.476 160.434 190.247C160.559 190.662 158.309 199.389 157.059 204.93C156.359 207.922 156.434 216.982 156.559 221.137C159.459 236.873 156.559 245.102 153.56 244.132C149.061 244.409 149.574 231.009 149.686 230.141C150.186 226.263 152.435 221.172 152.435 216.705C152.435 212.826 152.768 206.085 152.435 203.406C151.977 201.005 150.836 195.815 149.936 194.264C149.736 193.045 149.353 193.387 149.186 193.71C148.686 195.326 147.986 199.279 149.186 202.16C150.286 217.12 146.478 218.644 144.437 217.536C141.312 216.843 141.187 210.887 141.562 205.484C141.937 200.082 144.437 200.775 144.187 190.939C145.812 181.658 138.813 164.205 132.314 166.005C125.816 167.806 122.816 163.789 122.316 162.958C121.816 162.127 120.317 162.127 119.692 162.958C119.067 163.789 116.817 165.451 115.068 165.036Z" fill="url(#paint3_linear_144_11)"/>
<path d="M96 37L90.6556 84.9401L72.5 40C51.5 40 31 32.5 11 22C18 35.5 20.7804 58.5 17.2804 71L28.41 67.8192C22.149 100.259 17.2804 152.108 17.2804 179C39.5 165.5 67.5 160.5 67.5 160.5C57 134 59.0053 110.546 60.008 100.259C64.5536 109.582 76 136.394 76 159C89 156 104.5 159 104.5 159C102 137.5 105.664 106.229 114.651 87.4181C116.101 98.0219 121.5 124.5 112.5 160.5C132 164.5 145.5 170 160.5 184.229C167.69 124.972 157.414 73.5422 152.5 58H164C154.5 46.3482 147.704 31.1269 150.52 13.6567C132.5 27.2295 119.192 32.097 96 37Z" fill="url(#paint4_linear_144_11)"/>
<path d="M99.7761 45.4071L101 40.2294C119.5 34.2294 128.39 30.7581 147.393 20.2104C145 29.5 148.975 44.5411 156.5 53.2706H146.5C154 80.2706 160.36 166.979 159 176.5C154.5 208 145.316 172.695 145.316 165.946C145.316 161 149.5 72.7706 140.5 51L146.5 50C145.563 41.3649 143.07 34.8588 141.814 27.379L99.7761 45.4071Z" fill="white" style="mix-blend-mode:soft-light"/>
<path d="M51.5137 84.3396C51.5131 84.3378 51.5125 84.336 51.5119 84.3342C51.5126 84.3359 51.5132 84.3377 51.5137 84.3396C51.9956 85.7816 55.5592 94.5196 57.2665 96.1384L56.2336 101.008L55.6434 106.32C55.5343 110.909 55.4959 113.661 55.4959 116.353C55.4959 121.37 58 160 61 163.5C64 167 50.0041 177 52 166.5C53.9959 156 51.1799 126.977 50.7742 118.861C50.0881 105.139 50.3845 101.346 50.4791 97.1713C50.6605 89.1638 51.6139 84.6807 51.5137 84.3396Z" fill="white" style="mix-blend-mode:soft-light"/>
<path d="M112.644 83.3013L110 67.5C108.417 73.6531 106.858 78.7867 104.5 85.5C101.029 95.3819 94.5 142 96 159.5C95.5 164.5 103 163.261 103 160.5C103 158.5 97.5 106 112.644 83.3013Z" fill="white" style="mix-blend-mode:soft-light"/>
<path d="M24.5 37.9999L22.5 32C41 43 50.7489 42.0002 70.5 44L89.5 90L89 104.5C89 104.5 76 61.5001 66.5 47C49.5 47 30 44 24.5 37.9999Z" fill="white" style="mix-blend-mode:soft-light"/>
<path d="M177.676 37.313L200.309 26.4349C201.274 26.7646 204.519 27.9677 209.783 30.1434C212.099 40.4281 205.134 78.7653 201.361 96.6483L226.626 95.4121V89.4786L206.888 91.2092C210.257 79.5399 215.046 44.2355 215.046 26.4349L204.256 21.7375L176.36 34.5935L177.676 37.313Z" fill="white" style="mix-blend-mode:soft-light"/>
<path d="M197.677 113.954H201.098C199.276 127.159 197.66 154.245 198.44 154.262L198.467 154.253C198.457 154.259 198.448 154.262 198.44 154.262L194.256 155.736C194.694 142.056 195.993 114.548 197.677 113.954Z" fill="white" style="mix-blend-mode:soft-light"/>
<path d="M236.889 24.7044L240.31 19.0181L273.47 36.5714C274.733 37.5603 274.523 53.8775 273.47 66.7335C273.47 70.2936 268.47 100.357 267.154 114.696C265.259 118.256 264.259 141.891 265.048 153.264L261.101 151.781C259.206 150.198 262.68 108.763 265.575 87.9953C268.101 78.3038 270.838 52.3941 269.522 40.2799L236.889 24.7044Z" fill="white" style="mix-blend-mode:soft-light"/>
<g opacity="0.5">
<path d="M177.676 37.313L200.309 26.4349C201.274 26.7646 204.519 27.9677 209.783 30.1434C212.099 40.4281 205.134 78.7653 201.361 96.6483L226.626 95.4121V89.4786L206.888 91.2092C210.257 79.5399 215.046 44.2355 215.046 26.4349L204.256 21.7375L176.36 34.5935L177.676 37.313Z" fill="white" style="mix-blend-mode:soft-light"/>
<path d="M197.677 113.954H201.098C199.276 127.159 197.66 154.245 198.44 154.262L198.467 154.253C198.457 154.259 198.448 154.262 198.44 154.262L194.256 155.736C194.694 142.056 195.993 114.548 197.677 113.954Z" fill="white" style="mix-blend-mode:soft-light"/>
<path d="M236.889 24.7044L240.31 19.0181L273.47 36.5714C274.733 37.5603 274.523 53.8775 273.47 66.7335C273.47 70.2936 268.47 100.357 267.154 114.696C265.259 118.256 264.259 141.891 265.048 153.264L261.101 151.781C259.206 150.198 262.68 108.763 265.575 87.9953C268.101 78.3038 270.838 52.3941 269.522 40.2799L236.889 24.7044Z" fill="white" style="mix-blend-mode:soft-light"/>
</g>
<path d="M168 190C167.871 188.857 165.5 194.5 168 181.741L173.814 168.584L209 148.5C213.5 157.951 210.518 187.172 212.799 189.651C215.649 192.75 213.979 201.477 209.314 200.951C204.65 200.426 207.533 194.735 206.314 183.951C205.095 173.168 200.575 169.979 197.786 168.584C194.996 167.189 183.814 171.398 183.814 176.099C183.814 184.599 179.971 181.747 178.314 181.451C177.791 182.256 173.166 187.182 175.003 193.185C177.299 200.689 177.28 206.349 173.814 205.951C170.348 205.554 169.266 198.307 169.134 197.138C169.002 195.969 168.162 191.429 168 190Z" fill="url(#paint5_linear_144_11)"/>
<path d="M243.5 177C239.294 176.107 237.5 171.926 235.5 166.5L240.314 157.951C246.044 158.971 259.314 152.043 259.314 154.451C259.314 154.974 271.584 158.978 278.028 158.951L279.28 162.004C279.433 161.417 281.316 160.711 284.314 163.951C287.312 167.192 286.725 170.883 286.814 172.451C286.882 180.426 288.073 198.116 289.537 202.688C291.367 208.402 294.453 221.737 288.546 220.695C283.82 219.86 283.787 211.189 284.361 206.957C284.641 197.013 284.502 176.309 281.712 173.045C280.701 169.686 278.835 170.87 278.028 171.883C276.723 173.916 274.904 179.631 278.07 186.22C284.161 197.637 280.524 200.943 276.404 198.251C273.107 196.097 272.295 186.347 272.3 181.741C272.443 180.672 272.541 177.582 271.794 173.772C271.555 169.325 262.701 167.826 260.497 170.443C258.293 173.061 255.305 173.399 254.552 172.563C253.8 171.727 252.702 171.324 252.052 171.398C251.402 171.471 247.025 177.917 243.5 177Z" fill="url(#paint6_linear_144_11)"/>
<path d="M228.399 84.8065C224.56 85.1362 215.781 85.8946 211.383 86.2903C207.718 56.5 213 40 216 12C209.183 18.1802 178.5 35.5 156.5 28C157.5 42 173.5 63.5 173.5 63.5C173.5 63.5 163.234 62.5903 159.5 63.5C170.41 89 171.142 170.191 167 187.5C174 176 199.445 163.77 211.383 161C210.545 155.658 206.001 128.06 211.383 113.987C214.088 113.657 217.928 112.849 226.305 112.256C226.305 133.5 228.399 148.5 235.467 166.66C268 158 287 172 287 172C273 102.5 272.5 71.5 287 26.5C279.667 28.5405 259.1 28.0971 235.5 10C229.768 20.3333 226.724 51.7613 228.399 84.8065Z" fill="url(#paint7_linear_144_11)"/>
<path d="M174.901 35.6965L178 38.5C186.634 38.5 196 33.5435 201.655 30.5C201.95 42.0091 196 71.3769 201.655 91.8267L226.5 90.5L227.772 87.8428L207.5 89C207.5 89 201.655 65 211.5 21.5C202.5 28.5 192.134 35.6965 174.901 35.6965Z" fill="white" style="mix-blend-mode:soft-light"/>
<path d="M206.5 115L201.655 116C198.655 128.5 198 145 200 160.5L205.655 158.5C205.655 158.5 201.017 131.188 206.5 115Z" fill="white" style="mix-blend-mode:soft-light"/>
<path d="M242.5 25.5L240.311 19.0181C249.662 27.4036 259 31 278.5 32.5C269 76 267 95 279 163L272.215 160.615C268.5 144 255.5 88.5 273.5 34.5C259 33.5 249.5 31 242.5 25.5Z" fill="white" style="mix-blend-mode:soft-light"/>
<defs>
<linearGradient id="paint0_linear_144_11" x1="78.9991" y1="236.111" x2="87.9991" y2="26.6111" gradientUnits="userSpaceOnUse">
<stop offset="0.295" stop-color="#EEAF61"/>
<stop offset="0.575505" stop-color="#EE5D6C"/>
<stop offset="0.776318" stop-color="#CE4993"/>
<stop offset="0.996631" stop-color="#6A0D83"/>
</linearGradient>
<linearGradient id="paint1_linear_144_11" x1="78.9991" y1="236.111" x2="87.9991" y2="26.6111" gradientUnits="userSpaceOnUse">
<stop offset="0.295" stop-color="#EEAF61"/>
<stop offset="0.575505" stop-color="#EE5D6C"/>
<stop offset="0.776318" stop-color="#CE4993"/>
<stop offset="0.996631" stop-color="#6A0D83"/>
</linearGradient>
<linearGradient id="paint2_linear_144_11" x1="78.9991" y1="236.111" x2="87.9991" y2="26.6111" gradientUnits="userSpaceOnUse">
<stop offset="0.295" stop-color="#EEAF61"/>
<stop offset="0.575505" stop-color="#EE5D6C"/>
<stop offset="0.776318" stop-color="#CE4993"/>
<stop offset="0.996631" stop-color="#6A0D83"/>
</linearGradient>
<linearGradient id="paint3_linear_144_11" x1="78.9991" y1="236.111" x2="87.9991" y2="26.6111" gradientUnits="userSpaceOnUse">
<stop offset="0.295" stop-color="#EEAF61"/>
<stop offset="0.575505" stop-color="#EE5D6C"/>
<stop offset="0.776318" stop-color="#CE4993"/>
<stop offset="0.996631" stop-color="#6A0D83"/>
</linearGradient>
<linearGradient id="paint4_linear_144_11" x1="90.0231" y1="177.145" x2="90.0231" y2="29.2973" gradientUnits="userSpaceOnUse">
<stop offset="0.05" stop-color="#EEAF61"/>
<stop offset="0.29" stop-color="#EE5D6C"/>
<stop offset="0.59" stop-color="#CE4993"/>
<stop offset="1" stop-color="#6A0D83"/>
</linearGradient>
<linearGradient id="paint5_linear_144_11" x1="204.152" y1="6.75927" x2="222.073" y2="165.305" gradientUnits="userSpaceOnUse">
<stop stop-color="#6A0D83"/>
<stop offset="0.41" stop-color="#CE4993"/>
<stop offset="0.71" stop-color="#EE5D6C"/>
<stop offset="0.89" stop-color="#EEAF61"/>
</linearGradient>
<linearGradient id="paint6_linear_144_11" x1="204.152" y1="6.75927" x2="222.073" y2="165.305" gradientUnits="userSpaceOnUse">
<stop stop-color="#6A0D83"/>
<stop offset="0.41" stop-color="#CE4993"/>
<stop offset="0.71" stop-color="#EE5D6C"/>
<stop offset="0.89" stop-color="#EEAF61"/>
</linearGradient>
<linearGradient id="paint7_linear_144_11" x1="219.357" y1="14.0807" x2="219.357" y2="166.66" gradientUnits="userSpaceOnUse">
<stop stop-color="#6A0D83"/>
<stop offset="0.41" stop-color="#CE4993"/>
<stop offset="0.71" stop-color="#EE5D6C"/>
<stop offset="0.95" stop-color="#EEAF61"/>
</linearGradient>
</defs>
</svg>
