<svg width="1651" height="1037" viewBox="0 0 1651 1037" fill="none" xmlns="http://www.w3.org/2000/svg">
<g filter="url(#filter0_dddddd_6_13693)">
<path fill-rule="evenodd" clip-rule="evenodd" d="M1045.14 283.721L1045.14 444.755H1045.14L1045.14 444.756L1080.87 507.723L1045.14 570.44L1045.14 570.441L1045.14 570.441L1045.14 755.04H1045.14V774.679H1096.2V774.261L1096.38 774.359L1166.89 653.483L1237.59 774.68L1237.59 774.679H1365.24L1365.24 774.679L1365.24 774.679H1388.81L1381.56 762.605L1381.56 762.604L1233.66 507.599L1282.55 423.722C1292.32 422.588 1299.9 414.287 1299.9 404.216C1299.9 393.37 1291.11 384.577 1280.26 384.577C1269.42 384.577 1260.62 393.37 1260.62 404.216C1260.62 408.457 1261.97 412.384 1264.25 415.594L1212.06 507.598H1212.06L1212.06 507.599L1353.98 755.04H1249.56L1166.91 612.685L1166.89 612.664L1166.88 612.685L1084.22 755.04H1064.78L1064.78 575.968L1104.05 507.599L1104.05 507.598L1064.78 439.499L1064.78 283.721H1084.64L1089.62 292.481C1087.25 295.728 1085.84 299.73 1085.84 304.059C1085.84 314.905 1094.64 323.698 1105.48 323.698C1116.33 323.698 1125.12 314.905 1125.12 304.059C1125.12 294.077 1117.67 285.834 1108.03 284.585L1096.2 264.312V264.083H1045.14V283.721H1045.14ZM1372.06 269.076L1375.06 264.083H1237.59V264.084L1166.9 385.832L1151.99 360.949C1153.63 358.075 1154.58 354.743 1154.58 351.192C1154.58 340.346 1145.78 331.553 1134.94 331.553C1124.09 331.553 1115.3 340.346 1115.3 351.192C1115.3 361.762 1123.65 370.381 1134.12 370.813L1166.89 426.754L1166.89 426.753L1166.89 426.754L1249.59 283.721H1340.32L1312.52 331.571C1312.25 331.559 1311.97 331.553 1311.68 331.553C1300.84 331.553 1292.05 340.346 1292.05 351.192C1292.05 362.038 1300.84 370.83 1311.68 370.83C1322.53 370.83 1331.32 362.038 1331.32 351.192C1331.32 348.165 1330.64 345.298 1329.41 342.737L1372.11 269.076H1372.06Z" fill="white"/>
</g>
<g filter="url(#filter1_dddddd_6_13693)">
<path fill-rule="evenodd" clip-rule="evenodd" d="M606.669 292.277C613.938 292.277 620.285 288.327 623.68 282.457H724.498V425.818H598.813V445.456H744.137L744.137 445.456V282.457H744.137V262.819H623.68C620.284 256.949 613.938 253 606.669 253C595.823 253 587.031 261.792 587.031 272.638C587.031 283.484 595.823 292.277 606.669 292.277ZM1009.25 262.819L996.808 262.819C993.412 256.949 987.065 253 979.797 253C968.951 253 960.158 261.792 960.158 272.638C960.158 283.484 968.951 292.277 979.797 292.277C983.374 292.277 986.727 291.32 989.616 289.649L989.616 753.775H883.57V584.887H883.569H863.931H618.452L618.452 498.479H642.016C645.599 503.249 651.303 506.335 657.728 506.335C668.574 506.335 677.367 497.542 677.367 486.696C677.367 475.85 668.574 467.058 657.728 467.058C649.676 467.058 642.755 471.905 639.724 478.841H618.452H598.814H598.813V498.479H598.814L598.814 604.526H618.452L863.931 604.525L863.931 753.775H863.931V773.414H863.931V773.415H883.57V773.414H989.616V773.414H1009.25L1009.25 270.674V262.819ZM618.452 773.414V773.415H598.813V647.73H618.452H724.499H744.137H744.137V675.887C750.007 679.283 753.955 685.629 753.955 692.898C753.955 703.744 745.163 712.536 734.317 712.536C723.471 712.536 714.679 703.744 714.679 692.898C714.679 685.629 718.629 679.282 724.499 675.886V667.368H618.452V753.775H722.53C717.762 750.192 714.679 744.49 714.679 738.067C714.679 727.221 723.471 718.428 734.317 718.428C745.163 718.428 753.955 727.221 753.955 738.067C753.955 745.335 750.006 751.682 744.137 755.077V773.414H618.452ZM928.737 253C921.469 253 915.122 256.949 911.727 262.819H863.931V282.457H863.931L863.931 478.841H736.612C733.581 471.905 726.66 467.058 718.608 467.058C707.762 467.058 698.969 475.85 698.969 486.696C698.969 497.542 707.762 506.335 718.608 506.335C725.033 506.335 730.737 503.249 734.32 498.479H883.569V498.478H883.57V496.515V282.457H911.726C915.122 288.327 921.468 292.277 928.737 292.277C939.583 292.277 948.376 283.484 948.376 272.638C948.376 261.792 939.583 253 928.737 253Z" fill="white"/>
</g>
<g filter="url(#filter2_dddddd_6_13693)">
<path fill-rule="evenodd" clip-rule="evenodd" d="M272.819 567.877V282.458V262.82H292.457H418.142V262.872L418.164 262.86L492.766 386.541L542.24 303.546C540.747 300.776 539.9 297.607 539.9 294.241C539.9 283.395 548.692 274.602 559.538 274.602C570.384 274.602 579.176 283.395 579.176 294.241C579.176 305.065 570.42 313.843 559.604 313.879L492.767 425.818L492.766 425.818V425.817L406.383 282.458H292.457V567.876C298.327 571.272 302.277 577.619 302.277 584.888C302.277 595.734 293.484 604.526 282.638 604.526C271.792 604.526 263 595.734 263 584.888C263 577.619 266.949 571.272 272.819 567.877ZM302.277 667.368C302.277 674.637 298.327 680.984 292.457 684.379V753.777H398.505V423.854H418.142L418.142 423.854L418.143 423.854L492.768 549.539L492.768 588.816L418.143 463.382V755.741H418.142V773.415H272.819V755.74V753.777V684.379C266.949 680.984 263 674.637 263 667.368C263 656.522 271.792 647.73 282.638 647.73C293.484 647.73 302.277 656.522 302.277 667.368ZM563.466 484.732C563.466 481.271 562.571 478.02 561 475.197L579.167 445.456H598.814V425.818L565.429 425.818L542.181 465.161C532.105 465.998 524.189 474.44 524.189 484.732C524.189 495.577 532.981 504.37 543.827 504.37C554.673 504.37 563.466 495.577 563.466 484.732ZM496.857 542.725L492.769 549.54L492.769 588.816L513.664 553.454C513.765 553.458 513.866 553.461 513.968 553.463C514.101 553.465 514.235 553.467 514.369 553.467C525.215 553.467 534.008 544.674 534.008 533.828C534.008 522.983 525.215 514.19 514.369 514.19C503.523 514.19 494.731 522.983 494.731 533.828C494.731 537.031 495.498 540.054 496.857 542.725Z" fill="white"/>
</g>
<path fill-rule="evenodd" clip-rule="evenodd" d="M272.819 567.877V282.458V262.82H292.457H418.142V262.872L418.164 262.86L492.766 386.541L542.24 303.546C540.747 300.776 539.9 297.607 539.9 294.241C539.9 283.395 548.692 274.602 559.538 274.602C570.384 274.602 579.176 283.395 579.176 294.241C579.176 305.065 570.42 313.843 559.604 313.879L492.767 425.818L492.766 425.818V425.817L406.383 282.458H292.457V567.876C298.327 571.272 302.277 577.619 302.277 584.888C302.277 595.734 293.484 604.526 282.638 604.526C271.792 604.526 263 595.734 263 584.888C263 577.619 266.949 571.272 272.819 567.877ZM302.277 667.368C302.277 674.637 298.327 680.984 292.457 684.379V753.777H398.505V423.854H418.142L418.142 423.854L418.143 423.854L492.768 549.539L492.768 588.816L418.143 463.382V755.741H418.142V773.415H272.819V755.74V753.777V684.379C266.949 680.984 263 674.637 263 667.368C263 656.522 271.792 647.73 282.638 647.73C293.484 647.73 302.277 656.522 302.277 667.368ZM563.466 484.732C563.466 481.271 562.571 478.02 561 475.197L579.167 445.456H598.814V425.818L565.429 425.818L542.181 465.161C532.105 465.998 524.189 474.44 524.189 484.732C524.189 495.577 532.981 504.37 543.827 504.37C554.673 504.37 563.466 495.577 563.466 484.732ZM496.857 542.725L492.769 549.54L492.769 588.816L513.664 553.454C513.765 553.458 513.866 553.461 513.968 553.463C514.101 553.465 514.235 553.467 514.369 553.467C525.215 553.467 534.008 544.674 534.008 533.828C534.008 522.983 525.215 514.19 514.369 514.19C503.523 514.19 494.731 522.983 494.731 533.828C494.731 537.031 495.498 540.054 496.857 542.725Z" fill="white"/>
<path fill-rule="evenodd" clip-rule="evenodd" d="M1045.14 283.721L1045.14 444.755H1045.14L1045.14 444.756L1080.87 507.723L1045.14 570.44L1045.14 570.441L1045.14 570.441L1045.14 755.04H1045.14V774.679H1096.2V774.261L1096.38 774.359L1166.89 653.483L1237.59 774.68L1237.59 774.679H1365.24L1365.24 774.679L1365.24 774.679H1388.81L1381.56 762.605L1381.56 762.604L1233.66 507.599L1282.55 423.722C1292.32 422.588 1299.9 414.287 1299.9 404.216C1299.9 393.37 1291.11 384.577 1280.26 384.577C1269.42 384.577 1260.62 393.37 1260.62 404.216C1260.62 408.457 1261.97 412.384 1264.25 415.594L1212.06 507.598H1212.06L1212.06 507.599L1353.98 755.04H1249.56L1166.91 612.685L1166.89 612.664L1166.88 612.685L1084.22 755.04H1064.78L1064.78 575.968L1104.05 507.599L1104.05 507.598L1064.78 439.499L1064.78 283.721H1084.64L1089.62 292.481C1087.25 295.728 1085.84 299.73 1085.84 304.059C1085.84 314.905 1094.64 323.698 1105.48 323.698C1116.33 323.698 1125.12 314.905 1125.12 304.059C1125.12 294.077 1117.67 285.834 1108.03 284.585L1096.2 264.312V264.083H1045.14V283.721H1045.14ZM1372.06 269.076L1375.06 264.083H1237.59V264.084L1166.9 385.832L1151.99 360.949C1153.63 358.075 1154.58 354.743 1154.58 351.192C1154.58 340.346 1145.78 331.553 1134.94 331.553C1124.09 331.553 1115.3 340.346 1115.3 351.192C1115.3 361.762 1123.65 370.381 1134.12 370.813L1166.89 426.754L1166.89 426.753L1166.89 426.754L1249.59 283.721H1340.32L1312.52 331.571C1312.25 331.559 1311.97 331.553 1311.68 331.553C1300.84 331.553 1292.05 340.346 1292.05 351.192C1292.05 362.038 1300.84 370.83 1311.68 370.83C1322.53 370.83 1331.32 362.038 1331.32 351.192C1331.32 348.165 1330.64 345.298 1329.41 342.737L1372.11 269.076H1372.06Z" fill="white"/>
<path fill-rule="evenodd" clip-rule="evenodd" d="M606.669 292.277C613.938 292.277 620.285 288.327 623.68 282.457H724.498V425.818H598.813V445.456H744.137L744.137 445.456V282.457H744.137V262.819H623.68C620.284 256.949 613.938 253 606.669 253C595.823 253 587.031 261.792 587.031 272.638C587.031 283.484 595.823 292.277 606.669 292.277ZM1009.25 262.819L996.808 262.819C993.412 256.949 987.065 253 979.797 253C968.951 253 960.158 261.792 960.158 272.638C960.158 283.484 968.951 292.277 979.797 292.277C983.374 292.277 986.727 291.32 989.616 289.649L989.616 753.775H883.57V584.887H883.569H863.931H618.452L618.452 498.479H642.016C645.599 503.249 651.303 506.335 657.728 506.335C668.574 506.335 677.367 497.542 677.367 486.696C677.367 475.85 668.574 467.058 657.728 467.058C649.676 467.058 642.755 471.905 639.724 478.841H618.452H598.814H598.813V498.479H598.814L598.814 604.526H618.452L863.931 604.525L863.931 753.775H863.931V773.414H863.931V773.415H883.57V773.414H989.616V773.414H1009.25L1009.25 270.674V262.819ZM618.452 773.414V773.415H598.813V647.73H618.452H724.499H744.137H744.137V675.887C750.007 679.283 753.955 685.629 753.955 692.898C753.955 703.744 745.163 712.536 734.317 712.536C723.471 712.536 714.679 703.744 714.679 692.898C714.679 685.629 718.629 679.282 724.499 675.886V667.368H618.452V753.775H722.53C717.762 750.192 714.679 744.49 714.679 738.067C714.679 727.221 723.471 718.428 734.317 718.428C745.163 718.428 753.955 727.221 753.955 738.067C753.955 745.335 750.006 751.682 744.137 755.077V773.414H618.452ZM928.737 253C921.469 253 915.122 256.949 911.727 262.819H863.931V282.457H863.931L863.931 478.841H736.612C733.581 471.905 726.66 467.058 718.608 467.058C707.762 467.058 698.969 475.85 698.969 486.696C698.969 497.542 707.762 506.335 718.608 506.335C725.033 506.335 730.737 503.249 734.32 498.479H883.569V498.478H883.57V496.515V282.457H911.726C915.122 288.327 921.468 292.277 928.737 292.277C939.583 292.277 948.376 283.484 948.376 272.638C948.376 261.792 939.583 253 928.737 253Z" fill="white"/>
<defs>
<filter id="filter0_dddddd_6_13693" x="783.056" y="2.00226" width="867.831" height="1034.76" filterUnits="userSpaceOnUse" color-interpolation-filters="sRGB">
<feFlood flood-opacity="0" result="BackgroundImageFix"/>
<feColorMatrix in="SourceAlpha" type="matrix" values="0 0 0 0 0 0 0 0 0 0 0 0 0 0 0 0 0 0 127 0" result="hardAlpha"/>
<feOffset/>
<feGaussianBlur stdDeviation="3.12"/>
<feColorMatrix type="matrix" values="0 0 0 0 0.964706 0 0 0 0 0.0784314 0 0 0 0 0.815686 0 0 0 1 0"/>
<feBlend mode="normal" in2="BackgroundImageFix" result="effect1_dropShadow_6_13693"/>
<feColorMatrix in="SourceAlpha" type="matrix" values="0 0 0 0 0 0 0 0 0 0 0 0 0 0 0 0 0 0 127 0" result="hardAlpha"/>
<feOffset/>
<feGaussianBlur stdDeviation="6.24001"/>
<feColorMatrix type="matrix" values="0 0 0 0 0.964706 0 0 0 0 0.0784314 0 0 0 0 0.815686 0 0 0 1 0"/>
<feBlend mode="normal" in2="effect1_dropShadow_6_13693" result="effect2_dropShadow_6_13693"/>
<feColorMatrix in="SourceAlpha" type="matrix" values="0 0 0 0 0 0 0 0 0 0 0 0 0 0 0 0 0 0 127 0" result="hardAlpha"/>
<feOffset/>
<feGaussianBlur stdDeviation="21.84"/>
<feColorMatrix type="matrix" values="0 0 0 0 0.964706 0 0 0 0 0.0784314 0 0 0 0 0.815686 0 0 0 1 0"/>
<feBlend mode="normal" in2="effect2_dropShadow_6_13693" result="effect3_dropShadow_6_13693"/>
<feColorMatrix in="SourceAlpha" type="matrix" values="0 0 0 0 0 0 0 0 0 0 0 0 0 0 0 0 0 0 127 0" result="hardAlpha"/>
<feOffset/>
<feGaussianBlur stdDeviation="43.68"/>
<feColorMatrix type="matrix" values="0 0 0 0 0.964706 0 0 0 0 0.0784314 0 0 0 0 0.815686 0 0 0 1 0"/>
<feBlend mode="normal" in2="effect3_dropShadow_6_13693" result="effect4_dropShadow_6_13693"/>
<feColorMatrix in="SourceAlpha" type="matrix" values="0 0 0 0 0 0 0 0 0 0 0 0 0 0 0 0 0 0 127 0" result="hardAlpha"/>
<feOffset/>
<feGaussianBlur stdDeviation="74.8801"/>
<feColorMatrix type="matrix" values="0 0 0 0 0.964706 0 0 0 0 0.0784314 0 0 0 0 0.815686 0 0 0 1 0"/>
<feBlend mode="normal" in2="effect4_dropShadow_6_13693" result="effect5_dropShadow_6_13693"/>
<feColorMatrix in="SourceAlpha" type="matrix" values="0 0 0 0 0 0 0 0 0 0 0 0 0 0 0 0 0 0 127 0" result="hardAlpha"/>
<feOffset/>
<feGaussianBlur stdDeviation="131.04"/>
<feColorMatrix type="matrix" values="0 0 0 0 0.964706 0 0 0 0 0.0784314 0 0 0 0 0.815686 0 0 0 1 0"/>
<feBlend mode="normal" in2="effect5_dropShadow_6_13693" result="effect6_dropShadow_6_13693"/>
<feBlend mode="normal" in="SourceGraphic" in2="effect6_dropShadow_6_13693" result="shape"/>
</filter>
<filter id="filter1_dddddd_6_13693" x="386.691" y="52.66" width="822.903" height="921.095" filterUnits="userSpaceOnUse" color-interpolation-filters="sRGB">
<feFlood flood-opacity="0" result="BackgroundImageFix"/>
<feColorMatrix in="SourceAlpha" type="matrix" values="0 0 0 0 0 0 0 0 0 0 0 0 0 0 0 0 0 0 127 0" result="hardAlpha"/>
<feOffset/>
<feGaussianBlur stdDeviation="2.385"/>
<feColorMatrix type="matrix" values="0 0 0 0 0.521569 0 0 0 0 0.313726 0 0 0 0 0.980392 0 0 0 1 0"/>
<feBlend mode="normal" in2="BackgroundImageFix" result="effect1_dropShadow_6_13693"/>
<feColorMatrix in="SourceAlpha" type="matrix" values="0 0 0 0 0 0 0 0 0 0 0 0 0 0 0 0 0 0 127 0" result="hardAlpha"/>
<feOffset/>
<feGaussianBlur stdDeviation="4.77"/>
<feColorMatrix type="matrix" values="0 0 0 0 0.521569 0 0 0 0 0.313726 0 0 0 0 0.980392 0 0 0 1 0"/>
<feBlend mode="normal" in2="effect1_dropShadow_6_13693" result="effect2_dropShadow_6_13693"/>
<feColorMatrix in="SourceAlpha" type="matrix" values="0 0 0 0 0 0 0 0 0 0 0 0 0 0 0 0 0 0 127 0" result="hardAlpha"/>
<feOffset/>
<feGaussianBlur stdDeviation="16.695"/>
<feColorMatrix type="matrix" values="0 0 0 0 0.521569 0 0 0 0 0.313726 0 0 0 0 0.980392 0 0 0 1 0"/>
<feBlend mode="normal" in2="effect2_dropShadow_6_13693" result="effect3_dropShadow_6_13693"/>
<feColorMatrix in="SourceAlpha" type="matrix" values="0 0 0 0 0 0 0 0 0 0 0 0 0 0 0 0 0 0 127 0" result="hardAlpha"/>
<feOffset/>
<feGaussianBlur stdDeviation="33.39"/>
<feColorMatrix type="matrix" values="0 0 0 0 0.521569 0 0 0 0 0.313726 0 0 0 0 0.980392 0 0 0 1 0"/>
<feBlend mode="normal" in2="effect3_dropShadow_6_13693" result="effect4_dropShadow_6_13693"/>
<feColorMatrix in="SourceAlpha" type="matrix" values="0 0 0 0 0 0 0 0 0 0 0 0 0 0 0 0 0 0 127 0" result="hardAlpha"/>
<feOffset/>
<feGaussianBlur stdDeviation="57.24"/>
<feColorMatrix type="matrix" values="0 0 0 0 0.521569 0 0 0 0 0.313726 0 0 0 0 0.980392 0 0 0 1 0"/>
<feBlend mode="normal" in2="effect4_dropShadow_6_13693" result="effect5_dropShadow_6_13693"/>
<feColorMatrix in="SourceAlpha" type="matrix" values="0 0 0 0 0 0 0 0 0 0 0 0 0 0 0 0 0 0 127 0" result="hardAlpha"/>
<feOffset/>
<feGaussianBlur stdDeviation="100.17"/>
<feColorMatrix type="matrix" values="0 0 0 0 0.521569 0 0 0 0 0.313726 0 0 0 0 0.980392 0 0 0 1 0"/>
<feBlend mode="normal" in2="effect5_dropShadow_6_13693" result="effect6_dropShadow_6_13693"/>
<feBlend mode="normal" in="SourceGraphic" in2="effect6_dropShadow_6_13693" result="shape"/>
</filter>
<filter id="filter2_dddddd_6_13693" x="0.920013" y="0.740082" width="859.974" height="1034.75" filterUnits="userSpaceOnUse" color-interpolation-filters="sRGB">
<feFlood flood-opacity="0" result="BackgroundImageFix"/>
<feColorMatrix in="SourceAlpha" type="matrix" values="0 0 0 0 0 0 0 0 0 0 0 0 0 0 0 0 0 0 127 0" result="hardAlpha"/>
<feOffset/>
<feGaussianBlur stdDeviation="3.12"/>
<feColorMatrix type="matrix" values="0 0 0 0 0.219608 0 0 0 0 0.823529 0 0 0 0 0.988235 0 0 0 1 0"/>
<feBlend mode="normal" in2="BackgroundImageFix" result="effect1_dropShadow_6_13693"/>
<feColorMatrix in="SourceAlpha" type="matrix" values="0 0 0 0 0 0 0 0 0 0 0 0 0 0 0 0 0 0 127 0" result="hardAlpha"/>
<feOffset/>
<feGaussianBlur stdDeviation="6.24"/>
<feColorMatrix type="matrix" values="0 0 0 0 0.219608 0 0 0 0 0.823529 0 0 0 0 0.988235 0 0 0 1 0"/>
<feBlend mode="normal" in2="effect1_dropShadow_6_13693" result="effect2_dropShadow_6_13693"/>
<feColorMatrix in="SourceAlpha" type="matrix" values="0 0 0 0 0 0 0 0 0 0 0 0 0 0 0 0 0 0 127 0" result="hardAlpha"/>
<feOffset/>
<feGaussianBlur stdDeviation="21.84"/>
<feColorMatrix type="matrix" values="0 0 0 0 0.219608 0 0 0 0 0.823529 0 0 0 0 0.988235 0 0 0 1 0"/>
<feBlend mode="normal" in2="effect2_dropShadow_6_13693" result="effect3_dropShadow_6_13693"/>
<feColorMatrix in="SourceAlpha" type="matrix" values="0 0 0 0 0 0 0 0 0 0 0 0 0 0 0 0 0 0 127 0" result="hardAlpha"/>
<feOffset/>
<feGaussianBlur stdDeviation="43.68"/>
<feColorMatrix type="matrix" values="0 0 0 0 0.219608 0 0 0 0 0.823529 0 0 0 0 0.988235 0 0 0 1 0"/>
<feBlend mode="normal" in2="effect3_dropShadow_6_13693" result="effect4_dropShadow_6_13693"/>
<feColorMatrix in="SourceAlpha" type="matrix" values="0 0 0 0 0 0 0 0 0 0 0 0 0 0 0 0 0 0 127 0" result="hardAlpha"/>
<feOffset/>
<feGaussianBlur stdDeviation="74.88"/>
<feColorMatrix type="matrix" values="0 0 0 0 0.219608 0 0 0 0 0.823529 0 0 0 0 0.988235 0 0 0 1 0"/>
<feBlend mode="normal" in2="effect4_dropShadow_6_13693" result="effect5_dropShadow_6_13693"/>
<feColorMatrix in="SourceAlpha" type="matrix" values="0 0 0 0 0 0 0 0 0 0 0 0 0 0 0 0 0 0 127 0" result="hardAlpha"/>
<feOffset/>
<feGaussianBlur stdDeviation="131.04"/>
<feColorMatrix type="matrix" values="0 0 0 0 0.219608 0 0 0 0 0.823529 0 0 0 0 0.988235 0 0 0 1 0"/>
<feBlend mode="normal" in2="effect5_dropShadow_6_13693" result="effect6_dropShadow_6_13693"/>
<feBlend mode="normal" in="SourceGraphic" in2="effect6_dropShadow_6_13693" result="shape"/>
</filter>
</defs>
</svg>
