<svg width="307" height="204" viewBox="0 0 307 204" fill="none" xmlns="http://www.w3.org/2000/svg">
<path d="M299.5 18.5C299.5 18.5 261.896 29 233.896 1C231.427 5 229.396 12 227.896 18L220.5 18.5C220.5 16 222 1 222 1C222 1 186 31 154.5 21C141.576 59.4453 170 171 163 203.5C163 203.5 170 192.5 175.5 190.5C176 192 176 198 176 198C176 198 200 177 219.5 177C219.5 177 218.5 173.5 218.896 171.764L226.396 170.264C226.396 170.264 225.5 173 228.5 177.5C228.5 177.5 238.5 174 242.5 174.5C242.5 174.5 241.5 178 244.5 182.5C244.5 182.5 259.5 174.764 304.896 193.5C289.396 100 288.896 73 305.896 39.5C305.896 39.5 291.638 44.1915 292.896 37.5C295.312 24.6549 299.5 18.5 299.5 18.5Z" fill="black" stroke="black" stroke-width="0.303943"/>
<path d="M24.8049 195C24.8049 195 24 186.5 24.8049 184L11 191C8.1965 162.817 13.2918 105.487 20 77.5L7.5 81.5C17 60.5 6.5 24.5 1 12C47 35.5 77 33.5 77 33.5C77 33.5 87.6593 60.3981 87.976 61.3734L91.4986 32.3056C114 28 129 23 157.5 3C157.5 3 153 20 156.5 24.5C154.5 36.9252 152 45.5 156.5 52.5C160.239 58.3168 179.622 173.809 165 198.5C164.258 199.753 163.927 202.752 163 203.5C112.5 167 75 165.5 24.8049 195Z" fill="black"/>
<path d="M156.5 52.5C152 45.5 154.5 36.9252 156.5 24.5C153 20 157.5 3 157.5 3C129 23 114 28 91.4986 32.3056L87.976 61.3734C87.6593 60.3981 77 33.5 77 33.5C77 33.5 47 35.5 1 12C6.5 24.5 17 60.5 7.5 81.5L20 77.5C13.2918 105.487 8.1965 162.817 11 191L24.8049 184C24 186.5 24.8049 195 24.8049 195C75 165.5 112.5 167 163 203.5C163.927 202.752 164.258 199.753 165 198.5M156.5 52.5C160.239 58.3168 179.622 173.809 165 198.5M156.5 52.5L165 198.5" stroke="black" stroke-width="0.295105"/>
<path d="M27.175 43.6972L26.7002 38.2944L69.9097 43.6972C77.7444 57.8794 91.5145 102.902 86.0539 111.006C84.487 97.2744 72.363 64.0325 66.3485 49.0999L27.175 43.6972Z" fill="white" style="mix-blend-mode:soft-light"/>
<path d="M50.6859 86.7145C50.6837 86.7076 50.6814 86.7008 50.6791 86.6941C50.6814 86.7001 50.6837 86.7069 50.6859 86.7145C51.167 88.1506 52.5391 91.3841 54.2404 92.9973C54.2404 95.0233 53.7655 143.198 63.0247 156.705C59.7959 157.245 57.2476 157.83 56.3771 158.055C53.5154 146.725 49.4921 120.236 49.4921 106.054C50.8339 91.8404 50.85 87.2672 50.6859 86.7145Z" fill="white" style="mix-blend-mode:soft-light"/>
<path d="M112.644 76.3388V57.8794C111.062 64.0325 107.611 78.0947 106.472 85.1182C105.332 92.1418 97.6082 128.265 93.8887 145.449C94.8383 145.374 97.2125 145.044 99.1118 144.323C98.9219 141.262 108.054 97.7246 112.644 76.3388Z" fill="white" style="mix-blend-mode:soft-light"/>
<path d="M101.723 43.9223V38.9697L134.961 32.2163L146.832 44.1474C148.731 73.6374 158.703 128.34 153.48 160.532C153.084 160.456 151.96 160.261 150.631 160.081C154.239 145.134 146.436 79.2652 142.084 48.1994L131.163 36.0433L101.723 43.9223Z" fill="white" style="mix-blend-mode:soft-light"/>
<path d="M96 37L90.6556 84.9401L72.5 40C51.5 40 31 32.5 11 22C18 35.5 20.7804 58.5 17.2804 71L28.41 67.8192C22.149 100.259 17.2804 152.108 17.2804 179C39.5 165.5 67.5 160.5 67.5 160.5C57 134 59.0053 110.546 60.008 100.259C64.5536 109.582 76 136.394 76 159C89 156 104.5 159 104.5 159C102 137.5 105.664 106.229 114.651 87.4181C116.101 98.0219 121.5 124.5 112.5 160.5C132 164.5 145.5 170 160.5 184.229C167.69 124.972 157.414 73.5422 152.5 58H164C154.5 46.3482 147.704 31.1269 150.52 13.6567C132.5 27.2295 119.192 32.097 96 37Z" fill="url(#paint0_linear_118_31)"/>
<path d="M99.7761 45.4071L101 40.2294C119.5 34.2294 128.39 30.7581 147.393 20.2104C145 29.5 148.975 44.5411 156.5 53.2706H146.5C154 80.2706 160.812 139.653 155.5 173C155.5 173 146.646 166.126 145.316 165.946C151.816 146.446 149.5 72.7706 140.5 51L146.5 50C145.563 41.3649 143.07 34.8588 141.814 27.379L99.7761 45.4071Z" fill="white" style="mix-blend-mode:soft-light"/>
<path d="M51.5137 84.3396C51.5131 84.3378 51.5125 84.336 51.5119 84.3342C51.5126 84.3359 51.5132 84.3377 51.5137 84.3396C51.9956 85.7816 55.5592 94.5196 57.2665 96.1384L56.2336 101.008L55.6434 106.32C55.5343 110.909 55.4959 113.661 55.4959 116.353C55.4959 121.37 55.9396 148.389 61.5 156.5L53.5 158.5C50.6383 147.169 51.1799 126.977 50.7742 118.861C50.0881 105.139 50.3845 101.346 50.4791 97.1713C50.6605 89.1638 51.6139 84.6807 51.5137 84.3396Z" fill="white" style="mix-blend-mode:soft-light"/>
<path d="M112.644 83.3013L111 70C105.841 80.6569 93.5 108 93.5 152.5C94.4497 152.425 99 152.5 100 153.5C98.5 150.5 100 99.7365 112.644 83.3013Z" fill="white" style="mix-blend-mode:soft-light"/>
<path d="M24.5 37.9999L22.5 32C41 43 50.7489 42.0002 70.5 44L89.5 90L89 104.5C89 104.5 76 61.5001 66.5 47C49.5 47 30 44 24.5 37.9999Z" fill="white" style="mix-blend-mode:soft-light"/>
<path d="M177.676 37.313L200.309 26.4349C201.274 26.7646 204.519 27.9677 209.783 30.1434C212.099 40.4281 205.134 78.7653 201.361 96.6483L226.626 95.4121V89.4786L206.888 91.2092C210.257 79.5399 215.046 44.2355 215.046 26.4349L204.256 21.7375L176.36 34.5935L177.676 37.313Z" fill="white" style="mix-blend-mode:soft-light"/>
<path d="M197.677 113.954H201.098C199.276 127.159 197.66 154.245 198.44 154.262L198.467 154.253C198.457 154.259 198.448 154.262 198.44 154.262L194.256 155.736C194.694 142.056 195.993 114.548 197.677 113.954Z" fill="white" style="mix-blend-mode:soft-light"/>
<path d="M236.889 24.7044L240.31 19.0181L273.47 36.5714C274.733 37.5603 274.523 53.8775 273.47 66.7335C273.47 70.2936 268.47 100.357 267.154 114.696C265.259 118.256 264.259 141.891 265.048 153.264L261.101 151.781C259.206 150.198 262.68 108.763 265.575 87.9953C268.101 78.3038 270.838 52.3941 269.522 40.2799L236.889 24.7044Z" fill="white" style="mix-blend-mode:soft-light"/>
<path d="M228.399 84.8065C224.56 85.1362 215.781 85.8946 211.383 86.2903C207.718 56.5 213 40 216 12C209.183 18.1802 178.5 35.5 156.5 28C157.5 42 173.5 63.5 173.5 63.5C173.5 63.5 163.234 62.5903 159.5 63.5C170.41 89 171.142 170.191 167 187.5C174 176 199.445 163.77 211.383 161C210.545 155.658 206.001 128.06 211.383 113.987C214.088 113.657 217.928 112.849 226.305 112.256C226.305 133.5 228.399 148.5 235.467 166.66C268 158 287 172 287 172C273 102.5 272.5 71.5 287 26.5C279.667 28.5405 259.1 28.0971 235.5 10C229.768 20.3333 226.724 51.7613 228.399 84.8065Z" fill="url(#paint1_linear_118_31)"/>
<path d="M174.901 35.6965L178 38.5C186.634 38.5 196 33.5435 201.655 30.5C201.95 42.0091 196 71.3769 201.655 91.8267L226.5 90.5L227.772 87.8428L207.5 89C207.5 89 201.655 65 211.5 21.5C202.5 28.5 192.134 35.6965 174.901 35.6965Z" fill="white" style="mix-blend-mode:soft-light"/>
<path d="M206.5 115L201.655 116C198.655 128.5 198 145 200 160.5L205.655 158.5C205.655 158.5 201.017 131.188 206.5 115Z" fill="white" style="mix-blend-mode:soft-light"/>
<path d="M242.5 25.5L240.311 19.0181C249.662 27.4036 259 31 278.5 32.5C269 76 267 95 279 163L272.215 160.615C268.5 144 255.5 88.5 273.5 34.5C259 33.5 249.5 31 242.5 25.5Z" fill="white" style="mix-blend-mode:soft-light"/>
<defs>
<linearGradient id="paint0_linear_118_31" x1="90.0231" y1="177.145" x2="90.0231" y2="29.2973" gradientUnits="userSpaceOnUse">
<stop offset="0.05" stop-color="#EEAF61"/>
<stop offset="0.29" stop-color="#EE5D6C"/>
<stop offset="0.59" stop-color="#CE4993"/>
<stop offset="1" stop-color="#6A0D83"/>
</linearGradient>
<linearGradient id="paint1_linear_118_31" x1="219.357" y1="14.0807" x2="219.357" y2="166.66" gradientUnits="userSpaceOnUse">
<stop stop-color="#6A0D83"/>
<stop offset="0.41" stop-color="#CE4993"/>
<stop offset="0.71" stop-color="#EE5D6C"/>
<stop offset="0.95" stop-color="#EEAF61"/>
</linearGradient>
</defs>
</svg>
