<svg width="2452" height="1369" viewBox="0 0 2452 1369" fill="none" xmlns="http://www.w3.org/2000/svg">
<g filter="url(#filter0_dddddd_196_420)">
<path fill-rule="evenodd" clip-rule="evenodd" d="M1940.77 308.935L1819.29 503.347L1812.53 514.163L1799.27 535.386L1787.47 516.504L1779.25 503.347L1753.18 461.631C1752.29 461.702 1751.38 461.738 1750.47 461.738C1731.72 461.738 1716.52 446.535 1716.52 427.782C1716.52 409.028 1731.72 393.825 1750.47 393.825C1769.22 393.825 1784.43 409.028 1784.43 427.782C1784.43 432.988 1783.26 437.921 1781.16 442.33L1799.27 471.308L1921.95 274.979L1921.95 274.979V274.979H2176.62V274.979H2197.82L2176.62 308.896V308.935H2176.6L2110.37 414.92C2113.62 420.129 2115.5 426.283 2115.5 432.875C2115.5 451.629 2100.3 466.831 2081.54 466.831C2062.79 466.831 2047.59 451.629 2047.59 432.875C2047.59 414.533 2062.13 399.588 2080.32 398.941L2136.56 308.935H1940.77ZM1699.54 376.847C1718.29 376.847 1733.49 361.645 1733.49 342.891C1733.49 324.138 1718.29 308.935 1699.54 308.935C1698.97 308.935 1698.4 308.949 1697.83 308.977L1676.59 274.979L1675.77 275.492V274.979H1545.04V274.979H1545.04V441.851L1545.04 441.851V505.929L1661.33 692.048L1545.04 878.166V915.815L1545.04 915.815V1112H1548.43V1112H1675.77V1110.27L1675.84 1110.31L1799.27 912.788L1799.27 912.786L1921.95 1109.12V1110.3H1922.69L1922.7 1110.31L1922.71 1110.3H2176.62V1110.3H2198.56L1937.2 692.048L1937.2 692.047L2013.34 570.201C2014.55 570.331 2015.78 570.399 2017.03 570.399C2035.78 570.399 2050.98 555.196 2050.98 536.442C2050.98 517.689 2035.78 502.486 2017.03 502.486C1998.27 502.486 1983.07 517.689 1983.07 536.442C1983.07 541.276 1984.08 545.873 1985.9 550.035L1898.24 690.329L1898.24 690.329L1897.16 692.048L1900.68 697.676L1917.18 724.087L2137.3 1076.35H1941.51L1819.29 880.749L1812.39 869.704L1799.27 848.71L1789.16 864.881L1779.25 880.749L1655.96 1078.04H1578.99V887.902L1681.36 724.087L1700.18 693.958L1701.38 692.048L1697.75 686.252L1681.36 660.008L1578.99 496.193V308.935H1657.77L1669.31 327.406C1666.93 332.049 1665.58 337.313 1665.58 342.891C1665.58 361.645 1680.78 376.847 1699.54 376.847Z" fill="#F614D0"/>
</g>
<g filter="url(#filter1_dddddd_196_420)">
<path fill-rule="evenodd" clip-rule="evenodd" d="M269.978 276.675V276.675H482.205H516.161H534.837V276.781L665.066 485.191L748.349 356.828C746.432 352.575 745.366 347.857 745.366 342.889C745.366 324.136 760.568 308.933 779.322 308.933C798.076 308.933 813.278 324.136 813.278 342.889C813.278 361.643 798.076 376.846 779.322 376.846C778.361 376.846 777.409 376.806 776.468 376.727L686.879 520.1L668.898 548.876L666.859 552.139L655.779 534.407L646.839 520.1L515.948 310.631H482.205H303.934V775.281C314.084 781.152 320.913 792.126 320.913 804.694C320.913 823.448 305.71 838.651 286.956 838.651C268.203 838.651 253 823.448 253 804.694C253 792.126 259.829 781.152 269.978 775.281V310.631V276.675ZM303.934 968.235C314.084 962.364 320.913 951.39 320.913 938.822C320.913 920.068 305.71 904.865 286.956 904.865C268.203 904.865 253 920.068 253 938.822C253 951.39 259.829 962.364 269.978 968.235V1078.04V1112H303.934L482.205 1112V1112H516.161L516.161 1112V1078.04L516.161 575.83L647.688 786.317L655.227 798.382L667.708 818.356L679.853 798.92L687.728 786.317L819.468 575.49H823.465V569.093L829.442 559.528L823.465 555.793V541.534H801.393V542.001L800.645 541.534L667.708 754.278L534.837 541.64V541.534H482.205V541.534V575.49V1078.04H303.934V968.235Z" fill="#38D2FC"/>
</g>
<g filter="url(#filter2_dddddd_196_420)">
<path fill-rule="evenodd" clip-rule="evenodd" d="M1331.11 325.913C1349.86 325.913 1365.07 310.71 1365.07 291.956C1365.07 273.203 1349.86 258 1331.11 258C1318.54 258 1307.57 264.829 1301.7 274.978H1269.99V274.977H1236.03V274.978V308.935V628.122H1043.03C1037.16 617.973 1026.19 611.145 1013.62 611.145C994.867 611.145 979.664 626.348 979.664 645.102C979.664 663.855 994.867 679.058 1013.62 679.058C1026.19 679.058 1037.16 672.229 1043.03 662.079H1236.03H1269.99V628.122V308.935H1301.7C1307.57 319.084 1318.54 325.913 1331.11 325.913ZM942.312 645.102C942.312 663.855 927.109 679.058 908.356 679.058C895.787 679.058 884.813 672.229 878.942 662.079H857.421V799.602H1269.99L1269.99 816.58V1076.35H1456.75V308.935H1448.81C1442.94 319.084 1431.97 325.913 1419.4 325.913C1400.64 325.913 1385.44 310.71 1385.44 291.956C1385.44 273.203 1400.64 258 1419.4 258C1431.97 258 1442.94 264.829 1448.81 274.978H1456.75V274.977H1490.71V274.978H1490.71V308.935H1490.71V1076.35H1490.71V1110.3L1269.99 1110.3L1236.03 1110.3V1076.35V833.558L857.421 833.558L823.465 833.558V799.602V662.079V628.123V628.122H878.943C884.814 617.973 895.788 611.145 908.356 611.145C927.109 611.145 942.312 626.348 942.312 645.102ZM1059.46 993.152C1078.21 993.152 1093.42 977.95 1093.42 959.196C1093.42 947.342 1087.34 936.906 1078.14 930.833L1078.14 887.888H823.465V921.844V1076.35V1110.3H1044.18V1110.3H1078.14V1065.66C1087.34 1059.59 1093.42 1049.15 1093.42 1037.3C1093.42 1018.54 1078.21 1003.34 1059.46 1003.34C1040.71 1003.34 1025.5 1018.54 1025.5 1037.3C1025.5 1050.55 1033.1 1062.04 1044.18 1067.63V1076.35H857.421V921.844H1044.18V928.864C1033.1 934.456 1025.5 945.939 1025.5 959.196C1025.5 977.95 1040.71 993.152 1059.46 993.152ZM820.07 575.491V541.535H1022.11V310.632H888.532C882.661 320.782 871.688 327.61 859.119 327.61C840.366 327.61 825.163 312.408 825.163 293.654C825.163 274.901 840.366 259.698 859.119 259.698C871.688 259.698 882.662 266.527 888.533 276.676H1022.11V276.675H1056.07V276.676H1056.07V310.632H1056.07V541.535H1056.07V575.491H820.07Z" fill="#8550FA"/>
</g>
<path fill-rule="evenodd" clip-rule="evenodd" d="M1940.77 308.933L1819.29 503.345L1812.53 514.161L1799.27 535.384L1787.47 516.502L1753.18 461.63C1752.29 461.7 1751.38 461.736 1750.47 461.736C1731.72 461.736 1716.51 446.534 1716.51 427.78C1716.51 409.027 1731.72 393.824 1750.47 393.824C1769.22 393.824 1784.43 409.027 1784.43 427.78C1784.43 432.987 1783.26 437.919 1781.16 442.329L1799.27 471.306L1799.27 471.306L1921.95 274.977L1921.95 274.978V274.977H2176.62V274.978H2197.82L2176.62 308.894V308.933H2176.6L2110.37 414.919C2113.62 420.127 2115.5 426.281 2115.5 432.874C2115.5 451.627 2100.3 466.83 2081.54 466.83C2062.79 466.83 2047.59 451.627 2047.59 432.874C2047.59 414.532 2062.13 399.586 2080.32 398.939L2136.56 308.933H1940.77ZM1699.54 376.846C1718.29 376.846 1733.49 361.643 1733.49 342.89C1733.49 324.136 1718.29 308.933 1699.54 308.933C1698.97 308.933 1698.4 308.947 1697.83 308.975L1676.59 274.977L1675.77 275.49V274.977H1545.04V274.977H1545.04V441.85L1545.04 441.85V505.928L1661.33 692.046L1661.33 692.047L1545.04 878.165V915.814L1545.04 915.814V1112H1578.99V1112H1675.77V1110.27L1675.84 1110.31L1799.27 912.786L1799.27 912.785L1921.95 1109.12V1110.3H1922.69L1922.7 1110.31L1922.71 1110.3H2176.62V1110.3H2198.56L1937.2 692.046L2013.34 570.199C2014.55 570.33 2015.78 570.397 2017.03 570.397C2035.78 570.397 2050.98 555.194 2050.98 536.441C2050.98 517.687 2035.78 502.485 2017.03 502.485C1998.27 502.485 1983.07 517.687 1983.07 536.441C1983.07 541.274 1984.08 545.872 1985.9 550.034L1914.83 663.777L1898.24 690.328L1897.16 692.046L1900.68 697.675L1917.18 724.085L2137.3 1076.35H1941.51L1819.29 880.747L1812.39 869.703L1799.27 848.708L1789.16 864.879L1779.25 880.747L1655.96 1078.04H1578.99V887.901L1681.35 724.086L1700.18 693.957L1701.37 692.047L1697.75 686.251L1697.75 686.251L1578.99 496.192V308.933H1657.77L1669.31 327.405C1666.93 332.048 1665.58 337.312 1665.58 342.89C1665.58 361.643 1680.78 376.846 1699.54 376.846Z" fill="white"/>
<path fill-rule="evenodd" clip-rule="evenodd" d="M269.978 276.675V276.675H482.205H516.161H534.837V276.781L665.066 485.191L748.349 356.828C746.432 352.575 745.366 347.857 745.366 342.889C745.366 324.136 760.568 308.933 779.322 308.933C798.076 308.933 813.278 324.136 813.278 342.889C813.278 361.643 798.076 376.846 779.322 376.846C778.361 376.846 777.409 376.806 776.468 376.727L686.879 520.1L668.898 548.876L666.859 552.139L655.779 534.407L646.839 520.1L515.948 310.631H482.205H303.934V775.281C314.084 781.152 320.913 792.126 320.913 804.694C320.913 823.448 305.71 838.651 286.956 838.651C268.203 838.651 253 823.448 253 804.694C253 792.126 259.829 781.152 269.978 775.281V310.631V276.675ZM303.934 968.235C314.084 962.364 320.913 951.39 320.913 938.822C320.913 920.068 305.71 904.865 286.956 904.865C268.203 904.865 253 920.068 253 938.822C253 951.39 259.829 962.364 269.978 968.235V1078.04V1112H303.934L482.205 1112V1112H516.161L516.161 1112V1078.04L516.161 575.83L647.688 786.317L655.227 798.382L667.708 818.356L679.853 798.92L687.728 786.317L819.468 575.49H823.465V569.093L829.442 559.528L823.465 555.793V541.534H801.393V542.001L800.645 541.534L667.708 754.278L534.837 541.64V541.534H482.205V541.534V575.49V1078.04H303.934V968.235Z" fill="white"/>
<path fill-rule="evenodd" clip-rule="evenodd" d="M1331.11 325.913C1349.86 325.913 1365.07 310.71 1365.07 291.956C1365.07 273.203 1349.86 258 1331.11 258C1318.54 258 1307.57 264.829 1301.7 274.978H1269.99V274.977H1236.03V274.978V308.935V628.122H1043.03C1037.16 617.973 1026.19 611.145 1013.62 611.145C994.867 611.145 979.664 626.348 979.664 645.102C979.664 663.855 994.867 679.058 1013.62 679.058C1026.19 679.058 1037.16 672.229 1043.03 662.079H1236.03H1269.99V628.122V308.935H1301.7C1307.57 319.084 1318.54 325.913 1331.11 325.913ZM942.312 645.102C942.312 663.855 927.109 679.058 908.356 679.058C895.787 679.058 884.813 672.229 878.942 662.079H857.421V799.602H1269.99L1269.99 816.58V1076.35H1456.75V308.935H1448.81C1442.94 319.084 1431.97 325.913 1419.4 325.913C1400.64 325.913 1385.44 310.71 1385.44 291.956C1385.44 273.203 1400.64 258 1419.4 258C1431.97 258 1442.94 264.829 1448.81 274.978H1456.75V274.977H1490.71V274.978H1490.71V308.935H1490.71V1076.35H1490.71V1110.3L1269.99 1110.3L1236.03 1110.3V1076.35V833.558L857.421 833.558L823.465 833.558V799.602V662.079V628.123V628.122H878.943C884.814 617.973 895.788 611.145 908.356 611.145C927.109 611.145 942.312 626.348 942.312 645.102ZM1059.46 993.152C1078.21 993.152 1093.42 977.95 1093.42 959.196C1093.42 947.342 1087.34 936.906 1078.14 930.833L1078.14 887.888H823.465V921.844V1076.35V1110.3H1044.18V1110.3H1078.14V1065.66C1087.34 1059.59 1093.42 1049.15 1093.42 1037.3C1093.42 1018.54 1078.21 1003.34 1059.46 1003.34C1040.71 1003.34 1025.5 1018.54 1025.5 1037.3C1025.5 1050.55 1033.1 1062.04 1044.18 1067.63V1076.35H857.421V921.844H1044.18V928.864C1033.1 934.456 1025.5 945.939 1025.5 959.196C1025.5 977.95 1040.71 993.152 1059.46 993.152ZM820.07 575.491V541.535H1022.11V310.632H888.532C882.661 320.782 871.688 327.61 859.119 327.61C840.366 327.61 825.163 312.408 825.163 293.654C825.163 274.901 840.366 259.698 859.119 259.698C871.688 259.698 882.662 266.527 888.533 276.676H1022.11V276.675H1056.07V276.676H1056.07V310.632H1056.07V541.535H1056.07V575.491H820.07Z" fill="white"/>
<defs>
<filter id="filter0_dddddd_196_420" x="1291.92" y="21.8629" width="1159.75" height="1343.25" filterUnits="userSpaceOnUse" color-interpolation-filters="sRGB">
<feFlood flood-opacity="0" result="BackgroundImageFix"/>
<feColorMatrix in="SourceAlpha" type="matrix" values="0 0 0 0 0 0 0 0 0 0 0 0 0 0 0 0 0 0 127 0" result="hardAlpha"/>
<feOffset/>
<feGaussianBlur stdDeviation="3.01328"/>
<feColorMatrix type="matrix" values="0 0 0 0 0.964706 0 0 0 0 0.0784314 0 0 0 0 0.815686 0 0 0 1 0"/>
<feBlend mode="normal" in2="BackgroundImageFix" result="effect1_dropShadow_196_420"/>
<feColorMatrix in="SourceAlpha" type="matrix" values="0 0 0 0 0 0 0 0 0 0 0 0 0 0 0 0 0 0 127 0" result="hardAlpha"/>
<feOffset/>
<feGaussianBlur stdDeviation="6.02656"/>
<feColorMatrix type="matrix" values="0 0 0 0 0.964706 0 0 0 0 0.0784314 0 0 0 0 0.815686 0 0 0 1 0"/>
<feBlend mode="normal" in2="effect1_dropShadow_196_420" result="effect2_dropShadow_196_420"/>
<feColorMatrix in="SourceAlpha" type="matrix" values="0 0 0 0 0 0 0 0 0 0 0 0 0 0 0 0 0 0 127 0" result="hardAlpha"/>
<feOffset/>
<feGaussianBlur stdDeviation="21.093"/>
<feColorMatrix type="matrix" values="0 0 0 0 0.964706 0 0 0 0 0.0784314 0 0 0 0 0.815686 0 0 0 1 0"/>
<feBlend mode="normal" in2="effect2_dropShadow_196_420" result="effect3_dropShadow_196_420"/>
<feColorMatrix in="SourceAlpha" type="matrix" values="0 0 0 0 0 0 0 0 0 0 0 0 0 0 0 0 0 0 127 0" result="hardAlpha"/>
<feOffset/>
<feGaussianBlur stdDeviation="42.1859"/>
<feColorMatrix type="matrix" values="0 0 0 0 0.964706 0 0 0 0 0.0784314 0 0 0 0 0.815686 0 0 0 1 0"/>
<feBlend mode="normal" in2="effect3_dropShadow_196_420" result="effect4_dropShadow_196_420"/>
<feColorMatrix in="SourceAlpha" type="matrix" values="0 0 0 0 0 0 0 0 0 0 0 0 0 0 0 0 0 0 127 0" result="hardAlpha"/>
<feOffset/>
<feGaussianBlur stdDeviation="72.3188"/>
<feColorMatrix type="matrix" values="0 0 0 0 0.964706 0 0 0 0 0.0784314 0 0 0 0 0.815686 0 0 0 1 0"/>
<feBlend mode="normal" in2="effect4_dropShadow_196_420" result="effect5_dropShadow_196_420"/>
<feColorMatrix in="SourceAlpha" type="matrix" values="0 0 0 0 0 0 0 0 0 0 0 0 0 0 0 0 0 0 127 0" result="hardAlpha"/>
<feOffset/>
<feGaussianBlur stdDeviation="126.558"/>
<feColorMatrix type="matrix" values="0 0 0 0 0.964706 0 0 0 0 0.0784314 0 0 0 0 0.815686 0 0 0 1 0"/>
<feBlend mode="normal" in2="effect5_dropShadow_196_420" result="effect6_dropShadow_196_420"/>
<feBlend mode="normal" in="SourceGraphic" in2="effect6_dropShadow_196_420" result="shape"/>
</filter>
<filter id="filter1_dddddd_196_420" x="0.397903" y="24.0727" width="1081.65" height="1340.53" filterUnits="userSpaceOnUse" color-interpolation-filters="sRGB">
<feFlood flood-opacity="0" result="BackgroundImageFix"/>
<feColorMatrix in="SourceAlpha" type="matrix" values="0 0 0 0 0 0 0 0 0 0 0 0 0 0 0 0 0 0 127 0" result="hardAlpha"/>
<feOffset/>
<feGaussianBlur stdDeviation="3.00717"/>
<feColorMatrix type="matrix" values="0 0 0 0 0.219608 0 0 0 0 0.823529 0 0 0 0 0.988235 0 0 0 1 0"/>
<feBlend mode="normal" in2="BackgroundImageFix" result="effect1_dropShadow_196_420"/>
<feColorMatrix in="SourceAlpha" type="matrix" values="0 0 0 0 0 0 0 0 0 0 0 0 0 0 0 0 0 0 127 0" result="hardAlpha"/>
<feOffset/>
<feGaussianBlur stdDeviation="6.01434"/>
<feColorMatrix type="matrix" values="0 0 0 0 0.219608 0 0 0 0 0.823529 0 0 0 0 0.988235 0 0 0 1 0"/>
<feBlend mode="normal" in2="effect1_dropShadow_196_420" result="effect2_dropShadow_196_420"/>
<feColorMatrix in="SourceAlpha" type="matrix" values="0 0 0 0 0 0 0 0 0 0 0 0 0 0 0 0 0 0 127 0" result="hardAlpha"/>
<feOffset/>
<feGaussianBlur stdDeviation="21.0502"/>
<feColorMatrix type="matrix" values="0 0 0 0 0.219608 0 0 0 0 0.823529 0 0 0 0 0.988235 0 0 0 1 0"/>
<feBlend mode="normal" in2="effect2_dropShadow_196_420" result="effect3_dropShadow_196_420"/>
<feColorMatrix in="SourceAlpha" type="matrix" values="0 0 0 0 0 0 0 0 0 0 0 0 0 0 0 0 0 0 127 0" result="hardAlpha"/>
<feOffset/>
<feGaussianBlur stdDeviation="42.1003"/>
<feColorMatrix type="matrix" values="0 0 0 0 0.219608 0 0 0 0 0.823529 0 0 0 0 0.988235 0 0 0 1 0"/>
<feBlend mode="normal" in2="effect3_dropShadow_196_420" result="effect4_dropShadow_196_420"/>
<feColorMatrix in="SourceAlpha" type="matrix" values="0 0 0 0 0 0 0 0 0 0 0 0 0 0 0 0 0 0 127 0" result="hardAlpha"/>
<feOffset/>
<feGaussianBlur stdDeviation="72.172"/>
<feColorMatrix type="matrix" values="0 0 0 0 0.219608 0 0 0 0 0.823529 0 0 0 0 0.988235 0 0 0 1 0"/>
<feBlend mode="normal" in2="effect4_dropShadow_196_420" result="effect5_dropShadow_196_420"/>
<feColorMatrix in="SourceAlpha" type="matrix" values="0 0 0 0 0 0 0 0 0 0 0 0 0 0 0 0 0 0 127 0" result="hardAlpha"/>
<feOffset/>
<feGaussianBlur stdDeviation="126.301"/>
<feColorMatrix type="matrix" values="0 0 0 0 0.219608 0 0 0 0 0.823529 0 0 0 0 0.988235 0 0 0 1 0"/>
<feBlend mode="normal" in2="effect5_dropShadow_196_420" result="effect6_dropShadow_196_420"/>
<feBlend mode="normal" in="SourceGraphic" in2="effect6_dropShadow_196_420" result="shape"/>
</filter>
<filter id="filter2_dddddd_196_420" x="562.334" y="0.263733" width="1186.11" height="1367.78" filterUnits="userSpaceOnUse" color-interpolation-filters="sRGB">
<feFlood flood-opacity="0" result="BackgroundImageFix"/>
<feColorMatrix in="SourceAlpha" type="matrix" values="0 0 0 0 0 0 0 0 0 0 0 0 0 0 0 0 0 0 127 0" result="hardAlpha"/>
<feOffset/>
<feGaussianBlur stdDeviation="3.06829"/>
<feColorMatrix type="matrix" values="0 0 0 0 0.521569 0 0 0 0 0.313726 0 0 0 0 0.980392 0 0 0 1 0"/>
<feBlend mode="normal" in2="BackgroundImageFix" result="effect1_dropShadow_196_420"/>
<feColorMatrix in="SourceAlpha" type="matrix" values="0 0 0 0 0 0 0 0 0 0 0 0 0 0 0 0 0 0 127 0" result="hardAlpha"/>
<feOffset/>
<feGaussianBlur stdDeviation="6.13658"/>
<feColorMatrix type="matrix" values="0 0 0 0 0.521569 0 0 0 0 0.313726 0 0 0 0 0.980392 0 0 0 1 0"/>
<feBlend mode="normal" in2="effect1_dropShadow_196_420" result="effect2_dropShadow_196_420"/>
<feColorMatrix in="SourceAlpha" type="matrix" values="0 0 0 0 0 0 0 0 0 0 0 0 0 0 0 0 0 0 127 0" result="hardAlpha"/>
<feOffset/>
<feGaussianBlur stdDeviation="21.478"/>
<feColorMatrix type="matrix" values="0 0 0 0 0.521569 0 0 0 0 0.313726 0 0 0 0 0.980392 0 0 0 1 0"/>
<feBlend mode="normal" in2="effect2_dropShadow_196_420" result="effect3_dropShadow_196_420"/>
<feColorMatrix in="SourceAlpha" type="matrix" values="0 0 0 0 0 0 0 0 0 0 0 0 0 0 0 0 0 0 127 0" result="hardAlpha"/>
<feOffset/>
<feGaussianBlur stdDeviation="42.956"/>
<feColorMatrix type="matrix" values="0 0 0 0 0.521569 0 0 0 0 0.313726 0 0 0 0 0.980392 0 0 0 1 0"/>
<feBlend mode="normal" in2="effect3_dropShadow_196_420" result="effect4_dropShadow_196_420"/>
<feColorMatrix in="SourceAlpha" type="matrix" values="0 0 0 0 0 0 0 0 0 0 0 0 0 0 0 0 0 0 127 0" result="hardAlpha"/>
<feOffset/>
<feGaussianBlur stdDeviation="73.6389"/>
<feColorMatrix type="matrix" values="0 0 0 0 0.521569 0 0 0 0 0.313726 0 0 0 0 0.980392 0 0 0 1 0"/>
<feBlend mode="normal" in2="effect4_dropShadow_196_420" result="effect5_dropShadow_196_420"/>
<feColorMatrix in="SourceAlpha" type="matrix" values="0 0 0 0 0 0 0 0 0 0 0 0 0 0 0 0 0 0 127 0" result="hardAlpha"/>
<feOffset/>
<feGaussianBlur stdDeviation="128.868"/>
<feColorMatrix type="matrix" values="0 0 0 0 0.521569 0 0 0 0 0.313726 0 0 0 0 0.980392 0 0 0 1 0"/>
<feBlend mode="normal" in2="effect5_dropShadow_196_420" result="effect6_dropShadow_196_420"/>
<feBlend mode="normal" in="SourceGraphic" in2="effect6_dropShadow_196_420" result="shape"/>
</filter>
</defs>
</svg>