<svg xmlns="http://www.w3.org/2000/svg" width="2298" height="605" fill="none" viewBox="0 0 2298 605"><path fill="#F4F8F7" fill-rule="evenodd" d="M517.905 50C498.966 50 481.653 60.7001 473.183 77.6393L463.183 97.6393C446.561 130.884 470.735 170 507.905 170H581.503L519.003 295H361.905C342.966 295 325.653 305.7 317.183 322.639L307.183 342.639C290.561 375.884 314.735 415 351.905 415H716.003L685.003 477H624.905C605.966 477 588.653 487.7 580.183 504.639L570.183 524.639C553.561 557.884 577.735 597 614.905 597H1684.6C1703.54 597 1720.85 586.3 1729.32 569.361L1739.32 549.361C1755.95 516.116 1731.77 477 1694.6 477H1532L1587 367H1799.1C1818.04 367 1835.35 356.3 1843.82 339.361L1853.82 319.361C1870.44 286.116 1846.27 247 1809.1 247H1647H1527H1111.9C1092.97 247 1075.65 257.7 1067.18 274.639L1057.18 294.639C1040.56 327.884 1064.74 367 1101.9 367H1467L1412 477H805.003L836.003 415H866.101C885.04 415 902.353 404.3 910.823 387.361L920.823 367.361C937.445 334.116 913.27 295 876.101 295H815.101H806.904H639.003L701.503 170H1022.1C1041.04 170 1058.35 159.3 1066.82 142.361L1076.82 122.361C1093.44 89.1156 1069.27 50 1032.1 50H517.905ZM1120.95 92.1115C1127.72 78.5601 1141.57 70 1156.72 70H1216.78C1246.52 70 1265.86 101.293 1252.56 127.889C1245.78 141.44 1231.93 150 1216.78 150H1156.72C1126.99 150 1107.65 118.707 1120.95 92.1115ZM2215.71 483.584C2220.79 473.42 2231.18 467 2242.54 467H2267.46C2289.76 467 2304.27 490.469 2294.29 510.416C2289.21 520.58 2278.82 527 2267.46 527H2242.54C2220.24 527 2205.74 503.531 2215.71 483.584ZM1345.71 96.5836C1350.79 86.4201 1361.18 80 1372.54 80H1539.96C1562.26 80 1576.77 103.469 1566.79 123.416C1561.71 133.58 1551.32 140 1539.96 140H1372.54C1350.24 140 1335.74 116.531 1345.71 96.5836ZM1847.18 512.639C1855.65 495.7 1872.97 485 1891.9 485H2101.1C2138.27 485 2162.45 524.116 2145.82 557.361L2135.82 577.361C2127.35 594.3 2110.04 605 2091.1 605H1881.9C1844.74 605 1820.56 565.884 1837.18 532.639L1847.18 512.639ZM54.9474 345.111C61.7231 331.56 75.5736 323 90.7245 323H150.782C180.517 323 199.857 354.293 186.559 380.889C179.783 394.44 165.933 403 150.782 403H90.7244C60.9892 403 41.6494 371.707 54.9474 345.111ZM307.544 520C296.181 520 285.793 526.42 280.711 536.584C270.738 556.531 285.242 580 307.544 580H474.962C486.325 580 496.713 573.58 501.795 563.416C511.768 543.469 497.263 520 474.962 520H307.544Z" clip-rule="evenodd" opacity=".45"/><path fill="#F4F8F7" d="M2165.71 433.584C2170.79 423.42 2181.18 417 2192.54 417H2217.46C2239.76 417 2254.27 440.469 2244.29 460.416C2239.21 470.58 2228.82 477 2217.46 477H2192.54C2170.24 477 2155.73 453.531 2165.71 433.584Z"/><path fill="#F4F8F7" d="M1070.94 42.1115C1077.72 28.5601 1091.57 20 1106.72 20H1166.78C1196.51 20 1215.85 51.2925 1202.56 77.8885C1195.78 91.4399 1181.93 100 1166.78 100H1106.72C1076.99 100 1057.65 68.7075 1070.94 42.1115Z"/><path fill="#F4F8F7" d="M423.18 27.6393C431.65 10.7001 448.963 0 467.902 0H982.098C1019.27 0 1043.44 39.1156 1026.82 72.3607L1016.82 92.3607C1008.35 109.3 991.037 120 972.098 120H457.902C420.733 120 396.558 80.8844 413.18 47.6393L423.18 27.6393Z"/><path fill="#F4F8F7" d="M1295.71 46.5836C1300.79 36.4201 1311.18 30 1322.54 30H1489.96C1512.26 30 1526.77 53.4694 1516.79 73.4164C1511.71 83.5799 1501.32 90 1489.96 90H1322.54C1300.24 90 1285.73 66.5306 1295.71 46.5836Z"/><path fill="#F4F8F7" d="M230.708 486.584C235.79 476.42 246.178 470 257.541 470H424.959C447.26 470 461.765 493.469 451.792 513.416C446.71 523.58 436.322 530 424.959 530H257.541C235.24 530 220.735 506.531 230.708 486.584Z"/><path fill="#F4F8F7" d="M1477 197H1597L1457 477H1337L1477 197Z"/><path fill="#F4F8F7" d="M581 21H701L561 301H441L581 21Z"/><path fill="#F4F8F7" d="M712.18 272.639C720.65 255.7 737.963 245 756.902 245H765.098C802.267 245 826.442 284.116 809.82 317.361L719.82 497.361C711.35 514.3 694.037 525 675.098 525H666.902C629.733 525 605.558 485.884 622.18 452.639L712.18 272.639Z"/><path fill="#F4F8F7" d="M1797.18 462.639C1805.65 445.7 1822.96 435 1841.9 435H2051.1C2088.27 435 2112.44 474.116 2095.82 507.361L2085.82 527.361C2077.35 544.3 2060.04 555 2041.1 555H1831.9C1794.73 555 1770.56 515.884 1787.18 482.639L1797.18 462.639Z"/><path fill="#F4F8F7" d="M530.18 454.639C538.65 437.7 555.963 427 574.902 427H1644.6C1681.77 427 1705.94 466.116 1689.32 499.361L1679.32 519.361C1670.85 536.3 1653.54 547 1634.6 547H564.902C527.733 547 503.558 507.884 520.18 474.639L530.18 454.639Z"/><path fill="#F4F8F7" d="M1017.18 224.639C1025.65 207.7 1042.96 197 1061.9 197H1759.1C1796.27 197 1820.44 236.116 1803.82 269.361L1793.82 289.361C1785.35 306.3 1768.04 317 1749.1 317H1051.9C1014.73 317 990.558 277.884 1007.18 244.639L1017.18 224.639Z"/><path fill="#F4F8F7" d="M267.18 272.639C275.65 255.7 292.963 245 311.902 245H826.098C863.267 245 887.442 284.116 870.82 317.361L860.82 337.361C852.35 354.3 835.037 365 816.098 365H301.902C264.733 365 240.558 325.884 257.18 292.639L267.18 272.639Z"/><path fill="#F4F8F7" d="M4.94427 295.111C11.72 281.56 25.5705 273 40.7214 273H100.779C130.514 273 149.854 304.293 136.556 330.889C129.78 344.44 115.93 353 100.779 353H40.7214C10.9861 353 -8.35375 321.707 4.94427 295.111Z"/></svg>