<svg xmlns="http://www.w3.org/2000/svg" width="1571" height="358" fill="none" viewBox="0 0 1571 358"><path fill="#F4F8F7" d="M424.944 42.1115C431.72 28.5601 445.57 20 460.721 20H566.779C596.514 20 615.854 51.2925 602.556 77.8885C595.78 91.4399 581.93 100 566.779 100H460.721C430.986 100 411.646 68.7075 424.944 42.1115Z"/><path fill="#F4F8F7" d="M926.18 53.6393C934.65 36.7001 951.963 26 970.902 26H979.098C1016.27 26 1040.44 65.1156 1023.82 98.3607L933.82 278.361C925.35 295.3 908.037 306 889.098 306H880.902C843.733 306 819.558 266.884 836.18 233.639L926.18 53.6393Z"/><path fill="#F4F8F7" d="M46.1803 215.639C54.6499 198.7 71.9631 188 90.9017 188H1160.6C1197.77 188 1221.94 227.116 1205.32 260.361L1195.32 280.361C1186.85 297.3 1169.54 308 1150.6 308H80.9017C43.7326 308 19.5578 268.884 36.1803 235.639L46.1803 215.639Z"/><path fill="#F4F8F7" d="M728.18 27.6393C736.65 10.7001 753.963 0 772.902 0H1470.1C1507.27 0 1531.44 39.1156 1514.82 72.3607L1504.82 92.3607C1496.35 109.3 1479.04 120 1460.1 120H762.902C725.733 120 701.558 80.8844 718.18 47.6393L728.18 27.6393Z"/><path fill="#F4F8F7" fill-rule="evenodd" d="M822.904 50C803.966 50 786.653 60.7001 778.183 77.6393L768.183 97.6393C751.56 130.884 775.735 170 812.904 170H943.003L909.003 238H140.904C121.966 238 104.653 248.7 96.183 265.639L86.183 285.639C69.5605 318.884 93.7353 358 130.904 358H1200.6C1219.54 358 1236.85 347.3 1245.32 330.361L1255.32 310.361C1271.94 277.116 1247.77 238 1210.6 238H1029L1063 170H1510.1C1529.04 170 1546.35 159.3 1554.82 142.361L1564.82 122.361C1581.44 89.1156 1557.27 50 1520.1 50H822.904ZM510.724 70C495.573 70 481.723 78.5601 474.947 92.1115C461.649 118.707 480.989 150 510.724 150H616.781C631.932 150 645.783 141.44 652.558 127.889C665.856 101.293 646.517 70 616.781 70H510.724Z" clip-rule="evenodd" opacity=".45"/></svg>