<svg xmlns="http://www.w3.org/2000/svg" width="400" height="300" fill="none" viewBox="0 0 400 300"><path fill="#43AFDE" fill-rule="evenodd" d="M204.668 90.3785L224.556 99.6821C226.585 100.491 229.019 100.087 230.238 98.8731C230.631 98.4818 231.064 98.0911 231.514 97.6866C232.48 96.8161 233.48 95.9127 234.296 94.8277C235.92 93.2098 236.326 90.783 235.108 89.1644L225.773 69.3438C229.019 64.0856 231.455 58.0179 233.079 51.9504L254.186 44.6692C256.214 43.8603 257.432 42.2422 257.838 39.8151V36.9837V34.1521C257.838 32.1296 256.214 30.1069 254.186 29.298L233.485 21.6124C231.861 15.5449 229.427 9.47728 226.179 4.21874L228.166 0C268.194 12.0959 297.148 48.9776 297.148 92.8579C297.148 109.755 292.815 125.613 285.207 139.419C284.72 138.281 283.173 137.532 282.001 137.532L265.275 138.348C262.419 134.677 259.156 131.414 255.485 128.559L256.3 111.837C256.3 110.613 255.485 108.981 254.261 108.573C252.629 107.758 251.404 107.35 249.773 106.942C248.549 106.534 246.918 106.942 246.102 107.758L235.086 119.994C230.599 119.178 225.703 119.178 221.216 119.994L210.201 107.758C209.386 106.534 207.754 106.126 206.53 106.942C206.172 107.121 205.814 107.221 205.491 107.312C205.078 107.429 204.72 107.529 204.49 107.758C203.675 108.165 202.859 108.573 202.45 108.573C201.227 108.981 200.41 110.613 200.41 111.837L201.227 128.559C197.554 131.414 193.883 134.677 191.436 138.348L174.71 137.532C173.486 137.532 171.854 138.348 171.446 139.571C170.63 141.202 170.223 142.426 169.814 144.058C169.405 145.281 169.814 146.912 170.63 147.728L182.868 158.74C182.053 163.227 182.053 168.121 182.868 172.608L170.63 183.62C170.045 184.009 169.647 184.584 169.479 185.212C130.232 172.566 102 135.862 102 92.8579C102 78.0577 105.325 64.0533 111.263 51.5277C112.938 57.6133 115.373 63.6811 118.62 68.9393L108.879 89.1644C108.068 91.1874 108.474 93.6143 109.691 94.8277C110.084 95.2191 110.476 95.6522 110.882 96.1003C111.737 97.0425 112.651 98.0504 113.751 98.8731C115.373 100.491 117.809 100.896 119.432 99.6821L139.321 90.3785C144.598 93.6143 150.685 96.0412 156.773 97.6597L164.08 118.694C164.891 120.716 166.515 121.93 168.949 122.334H171.791H174.632C176.662 122.334 178.69 120.716 179.503 118.694L186.809 97.6597C193.708 96.0412 199.391 93.6143 204.668 90.3785ZM227.66 184.165C238.127 184.165 246.614 175.796 246.614 165.472C246.614 155.149 238.127 146.78 227.66 146.78C217.193 146.78 208.707 155.149 208.707 165.472C208.707 175.796 217.193 184.165 227.66 184.165ZM198.872 36.7816C198.872 51.4726 186.929 63.3821 172.197 63.3821C157.465 63.3821 145.522 51.4726 145.522 36.7816C145.522 22.0906 157.465 10.1812 172.197 10.1812C186.929 10.1812 198.872 22.0906 198.872 36.7816Z" clip-rule="evenodd"/><path fill="url(#paint0_linear_556_244)" fill-rule="evenodd" d="M204.668 90.3785L224.556 99.6821C226.585 100.491 229.019 100.087 230.238 98.8731C230.631 98.4818 231.064 98.0911 231.514 97.6866C232.48 96.8161 233.48 95.9127 234.296 94.8277C235.92 93.2098 236.326 90.783 235.108 89.1644L225.773 69.3438C229.019 64.0856 231.455 58.0179 233.079 51.9504L254.186 44.6692C256.214 43.8603 257.432 42.2422 257.838 39.8151V36.9837V34.1521C257.838 32.1296 256.214 30.1069 254.186 29.298L233.485 21.6124C231.861 15.5449 229.427 9.47728 226.179 4.21874L228.166 0C268.194 12.0959 297.148 48.9776 297.148 92.8579C297.148 109.755 292.815 125.613 285.207 139.419C284.72 138.281 283.173 137.532 282.001 137.532L265.275 138.348C262.419 134.677 259.156 131.414 255.485 128.559L256.3 111.837C256.3 110.613 255.485 108.981 254.261 108.573C252.629 107.758 251.404 107.35 249.773 106.942C248.549 106.534 246.918 106.942 246.102 107.758L235.086 119.994C230.599 119.178 225.703 119.178 221.216 119.994L210.201 107.758C209.386 106.534 207.754 106.126 206.53 106.942C206.172 107.121 205.814 107.221 205.491 107.312C205.078 107.429 204.72 107.529 204.49 107.758C203.675 108.165 202.859 108.573 202.45 108.573C201.227 108.981 200.41 110.613 200.41 111.837L201.227 128.559C197.554 131.414 193.883 134.677 191.436 138.348L174.71 137.532C173.486 137.532 171.854 138.348 171.446 139.571C170.63 141.202 170.223 142.426 169.814 144.058C169.405 145.281 169.814 146.912 170.63 147.728L182.868 158.74C182.053 163.227 182.053 168.121 182.868 172.608L170.63 183.62C170.045 184.009 169.647 184.584 169.479 185.212C130.232 172.566 102 135.862 102 92.8579C102 78.0577 105.325 64.0533 111.263 51.5277C112.938 57.6133 115.373 63.6811 118.62 68.9393L108.879 89.1644C108.068 91.1874 108.474 93.6143 109.691 94.8277C110.084 95.2191 110.476 95.6522 110.882 96.1003C111.737 97.0425 112.651 98.0504 113.751 98.8731C115.373 100.491 117.809 100.896 119.432 99.6821L139.321 90.3785C144.598 93.6143 150.685 96.0412 156.773 97.6597L164.08 118.694C164.891 120.716 166.515 121.93 168.949 122.334H171.791H174.632C176.662 122.334 178.69 120.716 179.503 118.694L186.809 97.6597C193.708 96.0412 199.391 93.6143 204.668 90.3785ZM227.66 184.165C238.127 184.165 246.614 175.796 246.614 165.472C246.614 155.149 238.127 146.78 227.66 146.78C217.193 146.78 208.707 155.149 208.707 165.472C208.707 175.796 217.193 184.165 227.66 184.165ZM198.872 36.7816C198.872 51.4726 186.929 63.3821 172.197 63.3821C157.465 63.3821 145.522 51.4726 145.522 36.7816C145.522 22.0906 157.465 10.1812 172.197 10.1812C186.929 10.1812 198.872 22.0906 198.872 36.7816Z" clip-rule="evenodd"/><path fill="#0E3460" d="M4.62994 247.605C4.62994 246.852 5.00635 246.476 5.75919 246.476H10.8408C11.5937 246.476 11.9701 246.852 11.9701 247.605V261.777H27.4973V247.605C27.4973 246.852 27.8737 246.476 28.6266 246.476H33.7082C34.461 246.476 34.8375 246.852 34.8375 247.605V284.87C34.8375 285.623 34.461 286 33.7082 286H28.6266C27.8737 286 27.4973 285.623 27.4973 284.87V268.665H11.9701V284.87C11.9701 285.623 11.5937 286 10.8408 286H5.75919C5.00635 286 4.62994 285.623 4.62994 284.87V247.605ZM62.1976 283.741C61.2189 284.569 60.1273 285.247 58.9227 285.774C57.7558 286.301 56.2125 286.564 54.2928 286.564C52.5236 286.564 50.8298 286.282 49.2112 285.717C47.5926 285.153 46.1622 284.306 44.92 283.176C43.6778 282.009 42.6803 280.56 41.9275 278.829C41.2123 277.097 40.8547 275.065 40.8547 272.731C40.8547 270.548 41.2123 268.609 41.9275 266.915C42.6803 265.184 43.6778 263.734 44.92 262.568C46.1622 261.363 47.5926 260.46 49.2112 259.857C50.8674 259.217 52.6177 258.897 54.4622 258.897C56.269 258.897 57.7558 259.142 58.9227 259.631C60.0896 260.083 61.1624 260.742 62.1411 261.608V260.591C62.1411 259.838 62.5175 259.462 63.2704 259.462H68.0132C68.7661 259.462 69.1425 259.838 69.1425 260.591V284.87C69.1425 285.623 68.7661 286 68.0132 286H64.0044C63.628 286 63.3268 285.905 63.101 285.717C62.8751 285.529 62.6681 285.134 62.4799 284.531L62.1976 283.741ZM62.1411 271.037C62.1411 270.171 62.0282 269.418 61.8023 268.778C61.5765 268.138 61.1624 267.536 60.5602 266.972C59.9203 266.369 59.1862 265.918 58.3581 265.616C57.53 265.278 56.5513 265.108 55.4221 265.108C54.4434 265.108 53.5023 265.297 52.5989 265.673C51.7332 266.012 50.9615 266.501 50.284 267.141C49.6064 267.781 49.0606 268.59 48.6465 269.569C48.2701 270.51 48.0819 271.564 48.0819 272.731C48.0819 273.935 48.2701 275.008 48.6465 275.949C49.023 276.89 49.5311 277.681 50.171 278.321C50.8486 278.961 51.6202 279.469 52.486 279.845C53.3894 280.184 54.3304 280.353 55.3091 280.353C56.476 280.353 57.53 280.146 58.471 279.732C59.4121 279.318 60.1837 278.735 60.786 277.982C61.2754 277.342 61.6141 276.74 61.8023 276.175C62.0282 275.61 62.1411 274.876 62.1411 273.973V271.037ZM100.289 280.41C100.477 280.598 100.571 280.805 100.571 281.031C100.571 281.257 100.459 281.482 100.233 281.708C98.5012 283.553 96.7696 284.833 95.0381 285.548C93.3066 286.225 91.3304 286.564 89.1095 286.564C87.1898 286.564 85.3642 286.282 83.6327 285.717C81.9011 285.115 80.3578 284.249 79.0027 283.12C77.6853 281.953 76.6313 280.504 75.8408 278.772C75.0503 277.041 74.6551 275.027 74.6551 272.731C74.6551 270.66 75.0315 268.778 75.7843 267.085C76.5748 265.353 77.6288 263.885 78.9463 262.68C80.3014 261.476 81.8635 260.554 83.6327 259.914C85.4395 259.236 87.3592 258.897 89.3918 258.897C91.8009 258.897 93.8336 259.293 95.4898 260.083C97.1837 260.836 98.5576 261.758 99.6116 262.85C99.9127 263.151 100.063 263.433 100.063 263.697C100.063 263.923 99.9504 264.167 99.7245 264.431L96.9578 267.875C96.732 268.101 96.5061 268.214 96.2803 268.214C96.0168 268.214 95.7721 268.101 95.5463 267.875C94.5676 266.896 93.6077 266.2 92.6667 265.786C91.7633 265.334 90.634 265.108 89.2789 265.108C88.2626 265.108 87.3027 265.297 86.3993 265.673C85.5336 266.012 84.7619 266.52 84.0844 267.197C83.4068 267.837 82.861 268.647 82.4469 269.625C82.0705 270.566 81.8823 271.62 81.8823 272.787C81.8823 273.917 82.0705 274.952 82.4469 275.893C82.8234 276.834 83.3315 277.643 83.9714 278.321C84.649 278.961 85.4395 279.469 86.3429 279.845C87.2463 280.184 88.2061 280.353 89.2225 280.353C90.427 280.353 91.5562 280.127 92.6102 279.676C93.7018 279.186 94.737 278.415 95.7157 277.361C95.9415 277.135 96.1674 277.022 96.3932 277.022C96.6191 277.022 96.8449 277.135 97.0708 277.361L100.289 280.41ZM105.185 246.476C105.185 245.723 105.562 245.346 106.315 245.346H111.058C111.81 245.346 112.187 245.723 112.187 246.476V266.576L118.285 260.253C118.737 259.726 119.245 259.462 119.809 259.462H126.811C127.262 259.462 127.488 259.65 127.488 260.027C127.488 260.253 127.413 260.441 127.262 260.591L118.341 269.738L129.408 284.927C129.521 285.115 129.577 285.284 129.577 285.435C129.577 285.811 129.352 286 128.9 286H121.955C121.39 286 120.939 285.736 120.6 285.209L113.203 275.046L112.187 276.062V284.87C112.187 285.623 111.81 286 111.058 286H106.315C105.562 286 105.185 285.623 105.185 284.87V246.476ZM149.955 265.673H145.946C145.193 265.673 144.817 265.297 144.817 264.544V260.591C144.817 259.838 145.193 259.462 145.946 259.462H149.955V251.444C149.955 250.692 150.331 250.315 151.084 250.315H155.827C156.58 250.315 156.956 250.692 156.956 251.444V259.462H162.716C163.468 259.462 163.845 259.838 163.845 260.591V264.544C163.845 265.297 163.468 265.673 162.716 265.673H156.956V276.74C156.956 279.149 157.954 280.353 159.949 280.353C160.514 280.353 161.022 280.316 161.473 280.24C161.963 280.127 162.358 280.071 162.659 280.071C163.036 280.071 163.224 280.278 163.224 280.692V285.435C163.224 285.736 163.167 285.924 163.054 286C162.941 286.112 162.716 286.207 162.377 286.282C161.85 286.357 161.229 286.414 160.514 286.451C159.836 286.526 159.14 286.564 158.424 286.564C155.865 286.564 153.813 285.981 152.27 284.814C150.727 283.647 149.955 281.765 149.955 279.168V265.673ZM168.871 246.476C168.871 245.723 169.248 245.346 170.001 245.346H174.744C175.496 245.346 175.873 245.723 175.873 246.476V262.85C177.19 261.608 178.658 260.648 180.277 259.97C181.895 259.255 183.627 258.897 185.471 258.897C188.332 258.897 190.534 259.613 192.078 261.043C193.659 262.473 194.449 264.355 194.449 266.689V284.87C194.449 285.623 194.073 286 193.32 286H188.577C187.824 286 187.448 285.623 187.448 284.87V269.004C187.448 266.407 186.13 265.108 183.495 265.108C182.253 265.108 181.124 265.466 180.107 266.181C179.129 266.859 178.319 267.687 177.68 268.665C177.077 269.607 176.626 270.548 176.324 271.489C176.023 272.392 175.873 273.615 175.873 275.159V284.87C175.873 285.623 175.496 286 174.744 286H170.001C169.248 286 168.871 285.623 168.871 284.87V246.476ZM225.79 280.24C225.978 280.429 226.072 280.636 226.072 280.861C226.072 281.087 225.96 281.313 225.734 281.539C224.83 282.442 223.946 283.214 223.08 283.854C222.252 284.456 221.367 284.964 220.426 285.378C219.523 285.792 218.544 286.094 217.49 286.282C216.436 286.47 215.269 286.564 213.989 286.564C212.145 286.564 210.376 286.263 208.682 285.661C207.026 285.058 205.539 284.174 204.221 283.007C202.942 281.84 201.906 280.391 201.116 278.659C200.363 276.928 199.987 274.952 199.987 272.731C199.987 270.623 200.363 268.722 201.116 267.028C201.869 265.334 202.866 263.885 204.108 262.68C205.388 261.476 206.856 260.554 208.513 259.914C210.169 259.236 211.919 258.897 213.764 258.897C216.06 258.897 218.055 259.311 219.749 260.14C221.443 260.93 222.835 261.984 223.927 263.302C225.056 264.581 225.884 266.031 226.411 267.649C226.938 269.23 227.202 270.83 227.202 272.448V274.142C227.202 274.895 226.825 275.272 226.072 275.272H206.875C207.365 277.041 208.268 278.377 209.585 279.28C210.903 280.146 212.465 280.579 214.272 280.579C215.777 280.579 217.076 280.278 218.168 279.676C219.297 279.073 220.294 278.302 221.16 277.361C221.424 277.022 221.706 276.853 222.007 276.853C222.233 276.853 222.478 276.984 222.741 277.248L225.79 280.24ZM220.2 269.399C219.749 267.969 218.958 266.84 217.829 266.012C216.7 265.184 215.326 264.77 213.707 264.77C211.976 264.77 210.526 265.221 209.36 266.125C208.193 267.028 207.365 268.12 206.875 269.399H220.2ZM247.353 247.605C247.353 246.852 247.73 246.476 248.482 246.476H253.282C253.846 246.476 254.26 246.589 254.524 246.814C254.825 247.003 255.089 247.266 255.314 247.605L271.858 271.206V247.605C271.858 246.852 272.234 246.476 272.987 246.476H278.069C278.822 246.476 279.198 246.852 279.198 247.605V284.87C279.198 285.623 278.822 286 278.069 286H274.06C273.495 286 273.062 285.905 272.761 285.717C272.498 285.491 272.253 285.209 272.027 284.87L254.693 260.422V284.87C254.693 285.623 254.317 286 253.564 286H248.482C247.73 286 247.353 285.623 247.353 284.87V247.605ZM299.293 286.564C297.373 286.564 295.547 286.282 293.816 285.717C292.122 285.153 290.635 284.287 289.355 283.12C288.075 281.953 287.059 280.523 286.306 278.829C285.553 277.097 285.177 275.065 285.177 272.731C285.177 270.585 285.535 268.665 286.25 266.972C287.003 265.24 288 263.791 289.242 262.624C290.522 261.419 292.009 260.497 293.703 259.857C295.434 259.217 297.298 258.897 299.293 258.897C301.25 258.897 303.094 259.217 304.826 259.857C306.557 260.497 308.044 261.419 309.287 262.624C310.566 263.791 311.564 265.24 312.279 266.972C313.032 268.665 313.408 270.585 313.408 272.731C313.408 275.065 313.032 277.097 312.279 278.829C311.526 280.523 310.51 281.953 309.23 283.12C307.95 284.287 306.445 285.153 304.713 285.717C303.019 286.282 301.212 286.564 299.293 286.564ZM299.293 280.353C301.438 280.353 303.113 279.657 304.318 278.264C305.56 276.871 306.181 275.046 306.181 272.787C306.181 271.545 305.993 270.453 305.616 269.512C305.24 268.571 304.732 267.781 304.092 267.141C303.49 266.463 302.774 265.955 301.946 265.616C301.118 265.278 300.234 265.108 299.293 265.108C298.352 265.108 297.467 265.278 296.639 265.616C295.811 265.955 295.077 266.463 294.437 267.141C293.835 267.781 293.345 268.571 292.969 269.512C292.592 270.453 292.404 271.545 292.404 272.787C292.404 275.046 293.006 276.871 294.211 278.264C295.453 279.657 297.147 280.353 299.293 280.353ZM319.071 260.591C319.071 259.838 319.447 259.462 320.2 259.462H324.943C325.696 259.462 326.072 259.838 326.072 260.591V262.285C327.013 261.231 328.124 260.403 329.404 259.801C330.683 259.199 332.208 258.897 333.977 258.897C336.612 258.897 338.682 259.688 340.188 261.269C341.731 262.812 342.503 264.826 342.503 267.31C342.503 268.063 342.126 268.44 341.374 268.44H336.8C336.499 268.44 336.292 268.383 336.179 268.27C336.066 268.12 335.972 267.875 335.897 267.536C335.671 265.918 334.636 265.108 332.791 265.108C331.813 265.108 330.966 265.315 330.25 265.729C329.573 266.143 328.971 266.652 328.444 267.254C327.728 268.082 327.145 269.08 326.693 270.246C326.279 271.413 326.072 272.844 326.072 274.538V284.87C326.072 285.623 325.696 286 324.943 286H320.2C319.447 286 319.071 285.623 319.071 284.87V260.591ZM350.883 265.673H346.874C346.121 265.673 345.745 265.297 345.745 264.544V260.591C345.745 259.838 346.121 259.462 346.874 259.462H350.883V251.444C350.883 250.692 351.259 250.315 352.012 250.315H356.755C357.508 250.315 357.884 250.692 357.884 251.444V259.462H363.643C364.396 259.462 364.773 259.838 364.773 260.591V264.544C364.773 265.297 364.396 265.673 363.643 265.673H357.884V276.74C357.884 279.149 358.882 280.353 360.877 280.353C361.441 280.353 361.949 280.316 362.401 280.24C362.89 280.127 363.286 280.071 363.587 280.071C363.963 280.071 364.151 280.278 364.151 280.692V285.435C364.151 285.736 364.095 285.924 363.982 286C363.869 286.112 363.643 286.207 363.304 286.282C362.777 286.357 362.156 286.414 361.441 286.451C360.764 286.526 360.067 286.564 359.352 286.564C356.792 286.564 354.741 285.981 353.198 284.814C351.654 283.647 350.883 281.765 350.883 279.168V265.673ZM369.799 246.476C369.799 245.723 370.175 245.346 370.928 245.346H375.671C376.424 245.346 376.8 245.723 376.8 246.476V262.85C378.118 261.608 379.586 260.648 381.204 259.97C382.823 259.255 384.555 258.897 386.399 258.897C389.26 258.897 391.462 259.613 393.005 261.043C394.586 262.473 395.377 264.355 395.377 266.689V284.87C395.377 285.623 395 286 394.247 286H389.504C388.752 286 388.375 285.623 388.375 284.87V269.004C388.375 266.407 387.058 265.108 384.423 265.108C383.181 265.108 382.051 265.466 381.035 266.181C380.056 266.859 379.247 267.687 378.607 268.665C378.005 269.607 377.553 270.548 377.252 271.489C376.951 272.392 376.8 273.615 376.8 275.159V284.87C376.8 285.623 376.424 286 375.671 286H370.928C370.175 286 369.799 285.623 369.799 284.87V246.476Z"/><defs><linearGradient id="paint0_linear_556_244" x1="276.952" x2="164.814" y1="221.44" y2="-5.873" gradientUnits="userSpaceOnUse"><stop offset=".24" stop-color="#4F937E"/><stop offset="1" stop-color="#4F937E" stop-opacity="0"/></linearGradient></defs></svg>